<?xml version="1.0" encoding="UTF-8"?>
<!DOCTYPE svg PUBLIC "-//W3C//DTD SVG 1.1//EN" "http://www.w3.org/Graphics/SVG/1.1/DTD/svg11.dtd">
<!-- Creator: CorelDRAW -->
<svg xmlns="http://www.w3.org/2000/svg" xml:space="preserve" width="189px" height="142px" style="shape-rendering:geometricPrecision; text-rendering:geometricPrecision; image-rendering:optimizeQuality; fill-rule:evenodd; clip-rule:evenodd"
viewBox="0 0 144.239 107.764"
 xmlns:xlink="http://www.w3.org/1999/xlink">
 <defs>
  <style type="text/css">
   <![CDATA[
    .fil5 {fill:#000072}
    .fil14 {fill:#4D4D9D}
    .fil3 {fill:#AF6C3E}
    .fil7 {fill:#B065A4}
    .fil9 {fill:#B19DA7}
    .fil4 {fill:#B2B2D4}
    .fil0 {fill:#C183E0}
    .fil11 {fill:#DD6B2C}
    .fil10 {fill:#E7D3C5}
    .fil12 {fill:#F5D2BF}
    .fil1 {fill:#FA9B27}
    .fil6 {fill:#FC90BA}
    .fil8 {fill:#FDE1BE}
    .fil13 {fill:#FF4A8B}
    .fil2 {fill:white}
   ]]>
  </style>
 </defs>
 <g id="Слой_x0020_1">
  <metadata id="CorelCorpID_0Corel-Layer"/>
  <g id="_121131800">
   <path id="_120764384" class="fil0" d="M21.3168 107.764c-4.23254,0 -7.31293,-1.36287 -8.05565,-3.99847 -0.299184,-1.06558 -0.192043,-2.24562 0.26371,-3.48239 1.33988,1.4044 3.2278,2.29426 5.32397,2.38644 0.231968,0.0101211 0.466951,0.0151889 0.706514,0.0151889 3.65358,0 8.09925,-1.19118 13.2296,-3.54723l95.0594 0c2.05923,0 3.96702,-0.738413 5.43878,-2.04963 4.0953,0.68017 6.39147,1.44341 6.39147,2.2507 8.61374e-005,2.84219 -28.477,5.1476 -63.6023,5.1476 -14.8772,0 -28.5636,-0.415785 -39.3972,-1.10812 -1.21905,0.663445 -2.51203,1.28284 -3.86225,1.83845 -4.16103,1.7123 -8.18129,2.54746 -11.496,2.54746zm-7.80036 -7.48948c-0.689645,-0.303879 -1.0488,-0.616342 -1.0488,-0.935912 0,-0.0982685 0.0343401,-0.196523 0.102202,-0.293757 0.272237,0.442632 0.589812,0.854397 0.946593,1.22967z"/>
   <path id="_120764288" class="fil1" d="M143.379 48.072c0,0.0810123 -7.17812e-005,0.162096 -0.00512518,0.24565 -0.131618,2.85841 -0.577882,6.55305 -1.78122,10.392 -2.48812,7.94121 -8.22535,16.511 -21.141,19.61 7.17812e-005,-2.87125e-005 -6.48415,2.34387 -4.16307,-8.93693 0.000100494,0 12.9866,1.5533 15.9336,-14.0157 0.395127,-2.08761 0.610298,-4.48265 0.5875,-7.2317 -0.0226972,-2.93442 2.35147,-5.32134 5.28336,-5.32134 2.92178,-4.30687e-005 5.28588,2.36668 5.28595,5.25802z"/>
   <path id="_120764192" class="fil2" d="M143.379 48.072c0,0.0810123 -7.17812e-005,0.162096 -0.00512518,0.24565 -0.131618,2.85841 -0.577882,6.55305 -1.78122,10.392 -4.30534,1.05899 -7.33094,-0.853881 -9.37046,-3.34261 0.395127,-2.08761 0.610298,-4.48265 0.5875,-7.2317 -0.0226972,-2.93442 2.35147,-5.32134 5.28336,-5.32134 2.92178,-4.30687e-005 5.28588,2.36668 5.28595,5.25802z"/>
   <path id="_120764096" class="fil3" d="M122.658 76.8184c-0.766781,-0.559621 -1.47285,-1.18202 -2.11249,-1.85916 9.26006,-3.31428 14.1397,-9.7675 16.6766,-16.1985 0.631158,0.159512 1.30211,0.247143 2.0162,0.247143 0.450843,0 0.91923,-0.0349287 1.40492,-0.108878 -2.34031,7.14402 -7.38517,14.5637 -17.9852,17.9194z"/>
   <path id="_120764000" class="fil4" d="M139.239 59.0079c-0.714137,0 -1.38519,-0.0876161 -2.01625,-0.247143 0.307984,-0.779458 0.580911,-1.55887 0.823,-2.33173 1.20384,-3.83895 1.64952,-7.53354 1.78121,-10.392 0.0050534,-0.083582 0.0050534,-0.164609 0.0050534,-0.245635 0,-0.671054 -0.127627,-1.31273 -0.360083,-1.90377 0.689286,0.223311 1.31628,0.61584 1.83286,1.15674 0.83829,0.8782 1.26918,2.02634 1.21348,3.23473 -0.138724,3.01035 -0.614835,6.77485 -1.87439,10.6199 -0.485614,0.0738916 -0.954159,0.108878 -1.40487,0.108878z"/>
   <path id="_120763904" class="fil5" d="M116.988 70.2821c-0.628559,3.49562 -0.379421,5.9271 0.716061,6.88583 0.969865,0.849287 2.44719,0.347924 2.46138,0.343387 0.027363,-0.00963304 0.059765,-0.0192661 0.0871137,-0.0258412 18.4062,-4.41581 21.8505,-20.1944 22.2653,-29.2063 0.0557884,-1.20841 -0.375286,-2.35653 -1.21348,-3.23473 -0.845238,-0.885335 -1.98531,-1.3725 -3.20941,-1.3725 -1.1891,-4.30687e-005 -2.30538,0.464927 -3.14307,1.30919 -0.836624,0.842711 -1.29196,1.95999 -1.28286,3.14611 0.0664407,8.42387 -2.02989,14.5996 -6.2294,18.356 -3.96707,3.54869 -8.60925,3.84044 -10.4517,3.79893zm2.17178 9.09644c-0.7881,0 -1.74484,-0.190938 -2.57087,-0.905534 -1.7158,-1.48497 -2.10028,-4.60218 -1.14155,-9.2646 0.0896404,-0.436573 0.497343,-0.730833 0.940492,-0.679165 0.0553002,0.00607269 5.54925,0.589525 9.92756,-3.34312 3.80252,-3.41554 5.69915,-9.15014 5.63788,-17.0453 -0.0131503,-1.64705 0.618883,-3.19828 1.78019,-4.3687 1.16237,-1.17147 2.71156,-1.81665 4.3616,-1.81665 1.69765,-1.43562e-005 3.27829,0.676122 4.45074,1.90377 1.16541,1.21999 1.76451,2.81741 1.687,4.49834 -0.203543,4.41984 -1.15624,10.9476 -4.53885,16.9491 -4.0075,7.1096 -10.4016,11.7655 -19.0033,13.8384 -0.182296,0.0597363 -0.779946,0.233461 -1.53092,0.233461z"/>
   <path id="_120763808" class="fil1" d="M127.844 98.2795l-95.2462 0c-0.988599,0.456327 -1.92859,0.858991 -2.82046,1.21148 -4.99718,1.98122 -8.52669,2.42744 -10.8908,2.32107 -3.10172,-0.136758 -5.81057,-2.29322 -6.41868,-5.33652 -0.732326,-3.67437 1.73066,-7.08735 4.34569,-9.56342 2.55413,-2.41986 5.25049,-3.94528 5.25049,-3.94528 -0.210161,-2.34897 -0.0962299,-4.65484 0.179783,-6.76323 0.514585,-3.93015 1.58876,-7.16585 2.15902,-8.69382 0.22792,-0.608288 0.374784,-0.945057 0.374784,-0.945057 1.43562e-005,-1.43562e-005 14.7455,0.506962 28.71,-1.84755 6.90506,-1.16537 13.6176,-3.03013 18.2598,-6.00252 4.35304,-2.78754 8.46085,-4.12306 12.0537,-4.64218 7.98992,-1.1507 13.4403,1.74068 13.4403,1.74068 -0.00496726,-1.85514 0.0936888,-3.89717 0.392485,-5.93718 0.732398,-5.03469 2.66852,-10.0597 7.19675,-12.2289 0.308989,-0.146922 0.631043,-0.281081 0.962773,-0.400094 2.42498,-0.877238 4.25476,0.162053 5.63281,2.35906 0.628502,0.998189 1.16079,2.23754 1.61712,3.64598 0.94767,2.94956 1.54569,6.63913 1.91288,10.4173 0.36518,3.7452 0.506962,7.5791 0.542408,10.8655 0.0355317,3.18255 0.993165,6.23347 2.69333,8.81083 1.27482,1.93818 2.9724,3.61052 5.00987,4.87007 0.0558171,0.0354312 0.111419,0.0683788 0.167135,0.103839 5.25813,3.26101 9.11469,6.07138 10.8199,8.96529 2.86865,4.85993 -0.701948,10.9947 -6.34488,10.9946z"/>
   <path id="_120763712" class="fil2" d="M104.164 82.9668c0,11.4586 -16.1641,12.4341 -47.7472,12.4341 -22.5322,0 -29.3613,-18.6751 -31.6393,-28.8361 0.228437,-0.608288 0,0 0,0 1.43562e-005,-1.43562e-005 14.7455,0.506962 28.71,-1.84755l2.94709 8.85637 -0.52976 1.10005c0,0 3.64647,5.88098 18.0237,-2.68624 14.3803,-8.56722 30.2354,-0.47657 30.2355,10.9794z"/>
   <path id="_120763616" class="fil2" d="M29.7772 99.491c-4.99719,1.98123 -8.5267,2.42745 -10.8908,2.32109 -3.10172,-0.136758 -5.81057,-2.29322 -6.41868,-5.33652 -0.732326,-3.67437 1.73066,-7.08735 4.34569,-9.56342 3.86938,0.765231 9.38824,3.54013 12.9638,12.5789z"/>
   <path id="_120763520" class="fil2" d="M127.844 98.2795l-4.9819 0c-6.71716,-8.6457 -2.47312,-16.2906 0.506861,-19.9599 4.8651,3.01795 8.52923,5.64851 10.3996,8.31651 0.154502,0.2152 0.293729,0.43353 0.420351,0.648773 0.527262,0.894379 0.836165,1.82932 0.955193,2.76221 0.532344,4.14534 -2.69336,8.23244 -7.30008,8.23241z"/>
   <path id="_120763424" class="fil6" d="M131.104 90.6882c1.15981,0.636656 1.70828,1.86686 1.2246,2.74758 -0.483116,0.880698 -1.81565,1.07824 -2.97543,0.441627 -1.15975,-0.636642 -1.70828,-1.8668 -1.22512,-2.74702 0.48369,-0.880727 1.81563,-1.07876 2.97595,-0.442187z"/>
   <path id="_120763328" class="fil6" d="M135.144 90.0471c-0.622975,0.491242 -1.66733,0.51915 -2.60226,0.00762316 -1.16069,-0.638637 -1.70778,-1.8678 -1.22664,-2.74955 0.413273,-0.750099 1.43936,-1.0033 2.45328,-0.66903 0.154502,0.2152 0.293729,0.43353 0.420351,0.648773 0.527262,0.894379 0.836165,1.82932 0.955264,2.76218z"/>
   <path id="_120763232" class="fil6" d="M127.602 81.2139c0,0 -0.724229,2.55309 -2.65891,3.78478 -1.80896,1.15166 1.02202,5.96707 4.96226,2.69182 1.21253,-1.00789 1.54419,-2.78148 0.695359,-4.1099 -0.498836,-0.77996 -1.40945,-1.60598 -2.99872,-2.3667z"/>
   <path id="_120763136" class="fil2" d="M114.956 53.6693c-7.96918,4.16309 -14.1804,-0.443134 -17.3224,-3.79334 0.782989,-5.37706 2.93696,-10.744 8.15953,-12.629 5.83844,-2.10843 8.23043,6.87209 9.1629,16.4223z"/>
   <path id="_120763040" class="fil6" d="M108.67 42.8134c0,1.32333 -0.814401,2.39604 -1.81871,2.39604 -1.00481,-1.43562e-005 -1.81918,-1.07267 -1.81918,-2.39604 7.17812e-005,-1.32287 0.814372,-2.39554 1.81918,-2.39554 1.00441,-2.87125e-005 1.81868,1.07268 1.81871,2.39554z"/>
   <path id="_120762944" class="fil6" d="M113.043 43.252c-0.319527,0.686788 -0.892427,1.14312 -1.54829,1.14312 -1.0063,0 -1.8197,-1.07166 -1.8197,-2.39706 0,-1.29251 0.777922,-2.34641 1.75083,-2.39199 0.628502,0.998189 1.16079,2.23754 1.61716,3.64594z"/>
   <path id="_120762848" class="fil6" d="M113.871 50.5713c0,0 -2.34136,-0.739418 -4.27754,0.129149 -1.81049,0.812334 -4.09167,-3.82526 0.444139,-5.20434 1.39538,-0.424457 2.93493,0.221316 3.52951,1.5533 0.349474,0.781956 0.524175,1.90629 0.303893,3.52189z"/>
   <path id="_120762752" class="fil3" d="M29.4521 98.6983c-0.282143,-0.662928 -0.575384,-1.29043 -0.877224,-1.88348 0.310482,-0.115482 0.626478,-0.237022 0.949091,-0.364649 0.734925,-0.290226 1.50316,-0.615337 2.30337,-0.975937 0.340889,-0.153468 0.710045,-0.2355 1.08331,-0.2355l19.9584 -1.43562e-005c1.1365,0.106868 2.31955,0.162068 3.5477,0.162068 5.86985,0 11.2089,-0.0334213 16.0091,-0.162053l48.4821 -1.43562e-005c0.36762,0.718645 0.805198,1.44643 1.32077,2.18334l-89.6316 0c-0.124598,0 -0.247703,0.0268318 -0.360643,0.0790024 -0.978981,0.45327 -1.90629,0.849832 -2.78445,1.19724z"/>
   <path id="_120762656" class="fil4" d="M56.4168 95.4008c-1.22819,0 -2.41127,-0.0551997 -3.54777,-0.162053l19.5569 -1.43562e-005c-4.8002,0.128632 -10.1393,0.162068 -16.0091,0.162068z"/>
   <path id="_120762560" class="fil4" d="M19.5184 100.968c-0.20917,0 -0.4072,-0.00455093 -0.594592,-0.0126478 -2.783,-0.122071 -5.0917,-2.03342 -5.61397,-4.64877 -0.0320431,-0.160072 -0.0570804,-0.320072 -0.0754564,-0.479613 1.19338,1.72954 3.19533,2.84729 5.39822,2.94454 0.211195,0.00958997 0.431491,0.0146864 0.661421,0.0146864 2.1788,-1.43562e-005 5.21144,-0.45884 9.28082,-1.97113 0.301883,0.593042 0.595081,1.22057 0.877181,1.8835 -4.58139,1.81058 -7.82171,2.26943 -9.93363,2.26943z"/>
   <path id="_120762464" class="fil4" d="M127.844 97.4221l-5.61559 0c-0.515633,-0.736906 -0.953211,-1.46467 -1.3209,-2.18333l6.68272 -1.43562e-005c1.46623,0 2.79207,-0.414278 3.90121,-1.11268 0.297375,-0.107887 0.550519,-0.284124 0.730804,-0.525697 0.922274,-0.754621 1.64801,-1.72296 2.1175,-2.80475 0.0289565,1.14406 -0.256259,2.29627 -0.856407,3.34666 -1.17239,2.05367 -3.28083,3.27981 -5.63933,3.27981z"/>
   <path id="_120762368" class="fil7" d="M131.492 94.1261c0.255254,-0.160546 0.499296,-0.336266 0.730733,-0.525682 -0.180228,0.241572 -0.433501,0.417824 -0.730733,0.525682z"/>
   <path id="_120762272" class="fil3" d="M114.934 67.5594c-1.09909,-2.90506 -2.16064,-7.05949 -2.60582,-12.8017 0.592611,-0.181334 1.19725,-0.409713 1.8126,-0.689789 0.288273,3.09798 0.456816,6.60166 0.498851,10.4766 0.0111835,1.02402 0.110916,2.0319 0.29436,3.01494z"/>
   <path id="_120762176" class="fil4" d="M112.329 54.7577c-0.0354456,-0.453758 -0.0669144,-0.918168 -0.0942631,-1.39221 -0.0621912,-1.09145 -0.146362,-2.11902 -0.251708,-3.08432 0.811343,0.0237739 1.47835,0.178276 1.75284,0.251708 0.154502,1.11163 0.289695,2.29019 0.405679,3.53507 -0.615251,0.280047 -1.22005,0.508484 -1.8126,0.689789zm0.631129 -8.57383c-0.489778,-0.47199 -1.14063,-0.757105 -1.82535,-0.808759 -0.102733,-0.402664 -0.212214,-0.788057 -0.327681,-1.15675 0.2123,0.113902 0.444685,0.176754 0.688267,0.176754 0.334357,0 0.647251,-0.118511 0.915684,-0.325657 0.19503,0.655822 0.378316,1.36186 0.548997,2.11446zm-3.2519 -4.63717c-0.945574,-1.75334 -2.14287,-2.8913 -3.59034,-3.50361 0.463936,-0.164135 0.901515,-0.246138 1.3168,-0.246138 0.623965,-4.30687e-005 1.19727,0.184865 1.73258,0.556591 0.514643,0.35704 0.995706,0.876678 1.4429,1.55179 -0.461855,0.338764 -0.7997,0.935424 -0.901945,1.64136z"/>
   <path id="_120762080" class="fil7" d="M111.495 44.3951c-0.243511,0 -0.476082,-0.0628086 -0.688281,-0.176754 -0.318034,-1.01446 -0.684218,-1.90225 -1.09901,-2.67157 0.102389,-0.70604 0.440119,-1.3026 0.902003,-1.64141 0.682797,1.0316 1.28437,2.42642 1.80096,4.16407 -0.268419,0.207146 -0.581413,0.325657 -0.91567,0.325657z"/>
   <path id="_120761984" class="fil7" d="M113.736 50.5328c-0.274506,-0.0734465 -0.941597,-0.227877 -1.75294,-0.251679 -0.203055,-1.8577 -0.486203,-3.48796 -0.84831,-4.90603 0.684793,0.0516107 1.33552,0.336783 1.82527,0.808802 0.296815,1.30814 0.555587,2.75967 0.775984,4.34891z"/>
   <path id="_120761888" class="fil8" d="M101.557 59.647c0,0 -4.77491,-3.66826 -14.0998,-3.66826 -1.49805,-4.30687e-005 -3.1152,0.0947081 -4.8478,0.314517 0.311487,-0.458366 0.561157,-0.88934 0.760206,-1.27526 1.54015,-0.257781 2.96225,-0.356049 4.237,-0.356049 0.71217,-2.87125e-005 1.37909,0.0304065 1.99342,0.0815578 4.41535,0.364089 7.21295,1.8126 7.23928,1.82629 0.125617,0.0668139 0.263868,0.100278 0.401616,0.100278 0.154071,-1.43562e-005 0.307425,-0.041547 0.443665,-0.123579 0.136241,-0.0820603 0.244114,-0.19803 0.315521,-0.333768 1.42323,0.840213 2.66143,1.95746 3.55689,3.43429z"/>
   <path id="_120761792" class="fil3" d="M28.7288 78.0461c-1.64599,-0.340315 -3.18107,-0.749525 -4.60066,-1.19926 1.38668,0.385408 2.89339,0.73537 4.51353,1.02102 0.0288991,0.0592195 0.0577408,0.118511 0.0871137,0.178276zm28.472 -2.26386c-0.325686,-0.183875 -0.581442,-0.374267 -0.776945,-0.543944 5.77821,-2.15549 10.118,-4.9668 13.0949,-7.34158 4.47761,-3.57157 6.78398,-6.80981 7.32032,-7.61052 2.03447,-1.19979 3.47936,-2.55456 4.49886,-3.8116 0.431032,-0.067862 0.853881,-0.128129 1.2712,-0.181305 -0.980445,1.44339 -2.57127,3.16028 -5.11015,4.6204 5.7425e-005,0 -2.50848,4.00657 -8.11848,8.25574 -3.08786,2.33878 -7.11369,4.75157 -12.1797,6.6128z"/>
   <path id="_120761696" class="fil4" d="M38.6665 79.0463c-3.6581,0 -6.97746,-0.388451 -9.93771,-1.00024 -0.0293298,-0.0597937 -0.0582433,-0.119028 -0.0871137,-0.178276 2.64525,0.466434 5.59331,0.762718 8.8164,0.762718 2.46749,-1.43562e-005 5.09697,-0.173711 7.87388,-0.576848 4.158,-0.603709 7.85159,-1.60648 11.0919,-2.8154 0.195503,0.169662 0.451245,0.360098 0.776902,0.543944 -3.1618,1.16179 -6.72877,2.10939 -10.7247,2.68928 -2.75054,0.40008 -5.35679,0.574838 -7.80954,0.574824z"/>
   <path id="_120761600" class="fil9" d="M81.338 56.4745c0.34745,-0.428907 0.645729,-0.846229 0.900983,-1.24227 0.383441,-0.0810553 0.760192,-0.152449 1.13042,-0.214238 -0.199049,0.385881 -0.448733,0.816928 -0.760206,1.27526 -0.417293,0.0531755 -0.840213,0.113443 -1.2712,0.181248z"/>
   <path id="_120761504" class="fil5" d="M20.5739 102.058l-0.0668427 -0.131159 -0.0536923 -0.11396c-0.0329045,-0.0754564 -0.0638278,-0.150396 -0.0911765,-0.223843 -0.0546829,-0.149922 -0.100278,-0.298294 -0.140792,-0.449724 -0.0754564,-0.300864 -0.123062,-0.606738 -0.149908,-0.913646 -0.0450786,-0.613356 -0.00354599,-1.23323 0.145357,-1.82629 0.0643303,-0.297303 0.153956,-0.589008 0.262848,-0.870089l0.17272 -0.416819c0.0612724,-0.136772 0.140777,-0.266394 0.210161,-0.397065 0.283622,-0.523701 0.660416,-0.98758 1.08483,-1.38262 0.0562334,-0.0527018 0.14484,-0.0496295 0.197513,0.00658951 0.0299041,0.0323877 0.0420351,0.0754564 0.0359624,0.115984l-0.00202423 0.0141553c-0.0435568,0.285646 -0.116989,0.546485 -0.160546,0.814401 -0.0420207,0.267887 -0.0942057,0.524189 -0.118008,0.784999 -0.0374554,0.256259 -0.0491271,0.513551 -0.0683788,0.764254 -0.0151745,0.124067 -0.00100494,0.252713 -0.00759445,0.376291 -0.00404846,0.124555 -0.010638,0.247645 -0.00152176,0.371741 0.0136815,0.493769 0.0612868,0.976454 0.1251,1.4515 0.0268605,0.238515 0.0688812,0.473038 0.104327,0.708021l0.0602819 0.346904c0.00811128,0.0587457 0.0182181,0.113974 0.0283536,0.168671l0.0121597 0.0805098c0.00406282,0.0248219 0.00961868,0.0552285 0.0050534,0.0607843l-0.605187 0.759675c-0.201074,0.252727 -0.569282,0.294274 -0.822512,0.0932007 -0.0663258,-0.0531899 -0.120033,-0.121052 -0.156483,-0.192474z"/>
   <path id="_120761408" class="fil5" d="M14.5737 100.972l-0.0670149 -0.131187 -0.0536923 -0.114434c-0.0326748,-0.0749539 -0.0636699,-0.149908 -0.0911191,-0.22334 -0.0544245,-0.150425 -0.0999338,-0.298308 -0.140347,-0.449738 -0.0755569,-0.301352 -0.123263,-0.60724 -0.150008,-0.913646 -0.0454806,-0.613844 -0.00358906,-1.23322 0.145156,-1.82679 0.0645887,-0.296787 0.154057,-0.589008 0.262992,-0.870089l0.172663 -0.416317c0.0613011,-0.136743 0.140792,-0.266394 0.210017,-0.397553 0.283938,-0.523184 0.660531,-0.987092 1.08479,-1.38264 0.0565205,-0.0526874 0.145041,-0.0496295 0.197714,0.00709198 0.0301338,0.0324164 0.0420351,0.0749683 0.0361203,0.115467l-0.00222522 0.0141696c-0.0435568,0.286163 -0.116845,0.546987 -0.160402,0.814903 -0.0421212,0.267902 -0.0942057,0.524175 -0.118209,0.784511 -0.0374554,0.256761 -0.0489691,0.51404 -0.0682209,0.76424 -0.0152176,0.124569 -0.00136384,0.25323 -0.00795336,0.376808 -0.00393361,0.124569 -0.010638,0.247143 -0.00120592,0.371726 0.0137389,0.493797 0.0613299,0.975937 0.124885,1.45152 0.026961,0.238012 0.0689817,0.473009 0.104327,0.708021l0.0607556 0.346402c0.00788158,0.0587457 0.0178017,0.114462 0.0281813,0.16916l0.0121167 0.0805098c0.00393361,0.0243338 0.00936027,0.0547116 0.00479498,0.0607987l-0.604828 0.75966c-0.201418,0.252713 -0.569541,0.294274 -0.822412,0.0932151 -0.0668857,-0.0537067 -0.120176,-0.121052 -0.156871,-0.192474z"/>
   <path id="_120761312" class="fil5" d="M22.9147 82.8615c0.00304352,0.169102 -0.000516825,0.352489 -0.0111548,0.531267 -0.0111261,0.180257 -0.0243051,0.361619 -0.0440593,0.543929 -0.0354312,0.365108 -0.0820459,0.729311 -0.178778,1.11472l-0.00251234 0.0101068c-0.0369817,0.146893 -0.185885,0.235528 -0.332246,0.199064 -0.0567072,-0.0147439 -0.104844,-0.0455954 -0.140304,-0.0866112 -0.275496,-0.319111 -0.458337,-0.669532 -0.616859,-1.02001 -0.0805242,-0.175735 -0.150927,-0.353494 -0.215243,-0.532286 -0.0643016,-0.180329 -0.119013,-0.356537 -0.162068,-0.547475l-0.00150741 -0.00759445c-0.104844,-0.464927 0.187378,-0.92681 0.652305,-1.03165 0.464941,-0.104844 0.92681,0.187392 1.03115,0.652319 0.013179,0.0566784 0.0197398,0.118008 0.0212759,0.174227z"/>
   <path id="_120761216" class="fil5" d="M97.5917 55.0286c0.261398,0.127125 0.464927,0.25323 0.685726,0.388982 0.214841,0.137203 0.422404,0.283608 0.627009,0.43251 0.408737,0.299299 0.791086,0.634072 1.15269,0.989604 0.360141,0.357025 0.689789,0.749554 0.979986,1.16637 0.288245,0.419346 0.528252,0.873635 0.699422,1.34616 0.0400683,0.109366 -0.016725,0.229944 -0.125603,0.269452 -0.0784138,0.0288417 -0.16257,0.00759445 -0.218789,-0.0466147l-0.0151745 -0.0151889c-0.170696,-0.167164 -0.311487,-0.344894 -0.490768,-0.495305 -0.160015,-0.162599 -0.339324,-0.307927 -0.514054,-0.452781 -0.360557,-0.280607 -0.724746,-0.547475 -1.11066,-0.786004 -0.383843,-0.240596 -0.77996,-0.459357 -1.17853,-0.669044 -0.199997,-0.104341 -0.402635,-0.202581 -0.605216,-0.29627 -0.195432,-0.0972779 -0.416317,-0.190938 -0.587486,-0.265375l-0.018175 -0.00812563c-0.434492,-0.189962 -0.632622,-0.695861 -0.44322,-1.1304 0.190019,-0.434578 0.696378,-0.632565 1.13093,-0.443148 0.00969046,0.00452222 0.0222952,0.010638 0.0319139,0.0151745z"/>
   <path id="_120954232" class="fil5" d="M25.3497 67.4388c-0.732341,1.88859 -3.05294,8.53483 -2.43202,15.452 0.0299041,0.335218 -0.139284,0.657889 -0.432008,0.823503 -0.104829,0.0597076 -10.4871,6.02734 -9.17588,12.592 0.52228,2.61533 2.83094,4.52671 5.61397,4.64877 2.44013,0.106351 6.72524,-0.405176 13.3127,-3.45404 0.112969,-0.0521706 0.236017,-0.0790024 0.3606,-0.0790024l95.2473 0c2.35859,0 4.46689,-1.22614 5.63933,-3.27981 1.15624,-2.02483 1.14356,-4.42541 -0.0344406,-6.42238 -1.76138,-2.98607 -6.18384,-5.98124 -10.6999,-8.77334 -5.01442,-3.09956 -8.04607,-8.48365 -8.10938,-14.4021 -0.156899,-14.5485 -2.10078,-23.85 -5.47327,-26.1909 -0.900423,-0.624999 -1.90832,-0.722708 -3.08279,-0.298796 -6.63199,2.39498 -8.00251,10.9769 -7.9848,17.7548 0.00110543,0.301294 -0.156483,0.581413 -0.414781,0.736891 -0.257695,0.155478 -0.579404,0.165111 -0.845281,0.0233002 -0.0262719,-0.0136815 -2.824,-1.46214 -7.23928,-1.82629 -4.06279,-0.336324 -10.3783,0.207146 -17.3907,4.69485 -13.217,8.45832 -42.1751,8.11443 -46.8594,8.00049zm-5.79437 35.2463c-0.239548,0 -0.47456,-0.00506775 -0.706514,-0.0151889 -3.57505,-0.157029 -6.54478,-2.6356 -7.22217,-6.02734 -1.39024,-6.96176 7.34474,-12.7967 9.5382,-14.1398 -0.585448,-8.37886 2.68472,-15.9584 2.82703,-16.2836 0.141308,-0.322154 0.471,-0.523673 0.815391,-0.513049 0.327696,0.0116573 32.829,1.02001 46.4765,-7.71384 7.45356,-4.76982 14.1995,-5.32589 18.5464,-4.95213 2.98512,0.256259 5.26005,0.962773 6.56673,1.46671 0.170739,-7.09091 1.97619,-15.4925 9.10355,-18.0663 1.71082,-0.618424 3.27423,-0.448719 4.6447,0.502913 4.92487,3.41808 6.09572,16.8863 6.21067,27.5826 0.0572383,5.32691 2.78452,10.1717 7.29601,12.9602 5.43585,3.3608 9.43376,6.23852 11.2758,9.36183 1.49512,2.53378 1.51227,5.57914 0.046586,8.14534 -1.48188,2.59508 -4.14736,4.14433 -7.12988,4.14433l-95.0593 0c-5.13038,2.35602 -9.57609,3.54723 -13.2296,3.54723z"/>
   <path id="_120954136" class="fil1" d="M73.8982 78.8923c-0.4508,5.334 -2.14085,11.134 -7.36342,11.134 -6.16761,0 -7.53861,-5.59229 -7.72346,-9.64139 -0.103824,-2.29578 0.17473,-4.09522 0.17473,-4.09522 1.43562e-005,-4.30687e-005 5.72194,-6.04658 14.783,-6.13672 2.87125e-005,-1.43562e-005 0.514542,4.20104 0.129192,8.73936z"/>
   <path id="_120954040" class="fil2" d="M73.8982 78.8923c-0.4508,5.334 -2.14085,11.134 -7.36342,11.134 -6.16761,0 -7.53861,-5.59229 -7.72346,-9.64139 3.24338,-2.15146 8.75207,-4.4548 15.0869,-1.49258z"/>
   <path id="_120953944" class="fil3" d="M73.9301 71.9868c-0.0754851,-1.13548 -0.161091,-1.83382 -0.161091,-1.83382 -0.549973,0.0050534 -1.08889,0.0329045 -1.61358,0.0795049 0.0506919,-0.784037 0.707031,-1.2707 1.37504,-1.2707 0.398099,-2.87125e-005 0.800203,0.173208 1.08026,0.559635 0.312019,0.430472 0.591046,0.97087 0.790081,1.64903 -0.491744,0.253201 -0.983029,0.525697 -1.47228,0.816899l0.00156483 -0.000545537z"/>
   <path id="_120953848" class="fil4" d="M67.5416 90.1245c-0.435008,0 -0.892384,-0.0338951 -1.37352,-0.104801 0.120047,0.00452222 0.242577,0.00657516 0.366673,0.00657516 5.22259,0 6.91262,-5.79994 7.36337,-11.1339l4.30687e-005 -4.30687e-005c0.228408,-2.68775 0.140749,-5.25697 0.0318565,-6.9055 0.487768,-0.290728 0.978981,-0.563167 1.47075,-0.816396 0.148386,0.503904 0.251708,1.08431 0.291719,1.75182 0.257781,4.33729 0.314502,17.2023 -8.15091,17.2023zm-6.12351 -2.09272c-0.20159,-0.193953 -0.383943,-0.406138 -0.539938,-0.637087 0.166676,0.222292 0.346416,0.435554 0.539938,0.637087z"/>
   <path id="_120953752" class="fil3" d="M73.8982 78.8923c-0.789579,-0.369214 -1.56652,-0.656827 -2.3272,-0.872587 0.402649,-2.89339 0.538862,-5.77411 0.581399,-7.72244 0.000559893,-0.0217928 0.00152176,-0.0435568 0.00302917,-0.0648328 0.524735,-0.0466434 1.06357,-0.0744371 1.61358,-0.0795049 2.87125e-005,-1.43562e-005 0.0855776,0.698402 0.161048,1.83387 0.108935,1.64851 0.196508,4.21776 -0.0318996,6.90554l4.30687e-005 -4.30687e-005z"/>
   <path id="_120953656" class="fil4" d="M66.5348 90.0263c-0.124095,0 -0.246655,-0.00202423 -0.366687,-0.00657516 -0.00251234,-0.000545537 -0.00557022,-0.000516825 -0.00811128,-0.00101929 1.43562e-005,-4.30687e-005 -3.0438,-0.351986 -4.74195,-1.98682 -0.193436,-0.201619 -0.373248,-0.414795 -0.539881,-0.63713 -0.00248363,-0.00356035 -0.00455093,-0.00657516 -0.00657516,-0.00961868 0,-2.87125e-005 1.22815,0.33071 2.82349,0.33071 2.37378,0 5.56141,-0.731321 6.73031,-4.36817 0.52116,-1.62072 0.887819,-3.47734 1.14561,-5.32793 0.760694,0.21576 1.53758,0.503416 2.32716,0.87263l4.30687e-005 -4.30687e-005c-0.4508,5.334 -2.14085,11.134 -7.3634,11.134z"/>
   <path id="_120953560" class="fil5" d="M59.1395 76.3125c0.0966893,1.7311 0.20963,3.43381 0.480575,5.08132 0.129709,0.823474 0.295265,1.63281 0.518619,2.41327 0.218287,0.78042 0.506962,1.53152 0.889829,2.20966 0.381374,0.677643 0.85846,1.27881 1.42822,1.75083 0.567761,0.47657 1.23069,0.81084 1.94328,1.03368 0.714654,0.2152 1.50063,0.285646 2.26843,0.286637 0.37477,-0.00307224 0.738399,-0.0557022 1.08938,-0.137748 0.35101,-0.0820603 0.688267,-0.204103 1.00379,-0.370219 1.28088,-0.63713 2.2279,-1.94023 2.85946,-3.41099 0.634618,-1.4804 1.01847,-3.11724 1.26664,-4.77588 0.248722,-1.66323 0.343875,-3.36034 0.388451,-5.06152 0.0517112,-1.69972 0.0628086,-3.41808 0.088133,-5.12888l0.000545537 -0.015232c0.00353164,-0.226369 0.189373,-0.407157 0.415757,-0.403611 0.192977,0.00249799 0.353006,0.13927 0.393519,0.320087 0.773873,3.44992 0.783994,6.98503 0.383398,10.5145 -0.222823,1.76244 -0.571795,3.53861 -1.27781,5.25247 -0.355518,0.853335 -0.797661,1.69562 -1.39833,2.46187 -0.592008,0.764757 -1.35477,1.45911 -2.26537,1.91797 -0.904989,0.469478 -1.92555,0.686745 -2.90402,0.704475 -0.958724,-0.00156483 -1.91036,-0.0901428 -2.8559,-0.375789 -0.938927,-0.291762 -1.82983,-0.792106 -2.57179,-1.44543 -0.744988,-0.652821 -1.33249,-1.44948 -1.77564,-2.28917 -0.883253,-1.68959 -1.26715,-3.51785 -1.34463,-5.30868 -0.0197255,-0.448733 -0.01773,-0.896432 0.00354599,-1.34211 0.0177587,-0.44569 0.0496295,-0.888838 0.107356,-1.32945 0.107428,-0.88176 0.27653,-1.75031 0.55863,-2.59914 0.0273917,-0.0825627 0.115984,-0.127125 0.19803,-0.0997759 0.0627942,0.0212616 0.10381,0.0779975 0.107356,0.139787l0.000559893 0.00704891z"/>
   <path id="_120953464" class="fil5" d="M63.9822 89.6576c0.0147008,-0.15041 0.0521562,-0.35648 0.0800073,-0.539823l0.0932007 -0.571321c0.0668427,-0.382881 0.121023,-0.769782 0.17572,-1.16126 0.0283679,-0.196551 0.0420351,-0.392514 0.067862,-0.591535l0.0223383 -0.298351c0.0110974,-0.100278 0.0186918,-0.201016 0.0217353,-0.301294 0.0319283,-0.405722 0.0232858,-0.810338 0.0334213,-1.24082l4.30687e-005 -0.0122028c0.00251234,-0.110356 0.0941626,-0.197456 0.205065,-0.194943 0.0684218,0.00150741 0.128646,0.0384891 0.163087,0.0916646 0.241099,0.373234 0.445173,0.780965 0.588505,1.20588 0.151473,0.423337 0.259302,0.864016 0.326159,1.30917 0.0734465,0.44513 0.102303,0.896447 0.0921671,1.34719 -0.0090875,0.224819 -0.0238026,0.450743 -0.0551997,0.675619 -0.0338807,0.230418 -0.0688812,0.436559 -0.147884,0.694354 -0.138739,0.452753 -0.618395,0.707519 -1.07166,0.568234 -0.396505,-0.121583 -0.641178,-0.504938 -0.602173,-0.903022l0.00760881 -0.0775381z"/>
   <path id="_120953368" class="fil5" d="M68.4644 89.0671c0.0147008,-0.15041 0.051625,-0.356509 0.0799786,-0.539852l0.0932294 -0.571292c0.0668283,-0.382881 0.120492,-0.769796 0.175189,-1.16128 0.0288991,-0.196537 0.0425519,-0.391997 0.067862,-0.591549l0.0227977 -0.298323c0.0111692,-0.100278 0.0187349,-0.201045 0.0217784,-0.301323 0.0314402,-0.405707 0.0227834,-0.810338 0.0329189,-1.24082l0.000516825 -0.0116573c0.00256977,-0.110931 0.0941913,-0.198016 0.204591,-0.195475 0.0683788,0.00146434 0.128646,0.0384747 0.163589,0.0916646 0.241127,0.373707 0.445173,0.780951 0.588003,1.20587 0.151946,0.423882 0.259302,0.864016 0.326159,1.30919 0.0734609,0.445144 0.102805,0.896432 0.0926839,1.34718 -0.00907314,0.224847 -0.0243195,0.45024 -0.0557166,0.675605 -0.033407,0.230403 -0.0688812,0.436573 -0.147381,0.694368 -0.138724,0.452724 -0.618381,0.707519 -1.07166,0.568234 -0.397051,-0.121554 -0.641681,-0.504923 -0.602173,-0.903008l0.00763752 -0.0775237z"/>
   <path id="_120953272" class="fil1" d="M31.5234 16.4295c-22.1299,9.15928 -25.0371,32.158 -25.0371,32.158 -3.32832,-6.53024 -5.04612,-13.1815 -5.85671,-19.1532 -0.748577,-5.5306 -0.721243,-10.4796 -0.472119,-14.2142 0.27887,-4.17276 3.88589,-7.35628 8.05727,-7.08582 7.90908,0.510494 13.7817,2.628 17.6536,4.59812 3.78174,1.91791 5.6551,3.69713 5.65511,3.69705z"/>
   <path id="_120953176" class="fil3" d="M4.81315 42.6853c-1.56631,-4.13523 -2.56395,-8.23547 -3.16592,-12.12 0.811343,0.640561 1.80187,0.960734 2.79174,0.960734 0.0611002,-7.17812e-005 0.121956,-0.00150741 0.183028,-0.00353164 0.373793,1.93717 0.885091,3.93364 1.57007,5.95035 -0.567229,1.67329 -1.02684,3.41048 -1.37893,5.21245zm19.9258 -26.2715c-0.718673,-0.406138 -1.55686,-0.833035 -2.51406,-1.25135 0.693363,-0.497946 1.36186,-0.957217 1.99645,-1.37707 0.518131,0.235974 1.00733,0.472521 1.46872,0.707016 0.545465,0.276932 1.05091,0.550504 1.51633,0.815908 -0.833093,0.337788 -1.65813,0.707002 -2.46744,1.10549z"/>
   <path id="_120953080" class="fil8" d="M24.2214 13.7854c-3.83083,-1.74473 -9.21787,-3.44133 -16.1847,-3.89107 -0.165642,-0.0106667 -0.329964,-0.0156914 -0.493697,-0.0156914 -2.2703,-0.000100494 -4.33557,1.01847 -5.73456,2.64268 1.148,-2.12418 3.39209,-3.5452 5.91602,-3.5452 0.144452,-8.61374e-005 0.289838,0.00456528 0.435755,0.014184 7.43332,0.480058 13.0498,2.42491 16.8451,4.28462 -0.254723,0.163044 -0.516581,0.333251 -0.78398,0.510479z"/>
   <path id="_120952984" class="fil10" d="M27.2064 15.3082c-0.465444,-0.265404 -0.970898,-0.538804 -1.51635,-0.815822 -0.461352,-0.234595 -0.950613,-0.471 -1.46872,-0.707016 0.267414,-0.177343 0.529243,-0.347421 0.783994,-0.510508 1.20538,0.590472 2.2274,1.17245 3.06557,1.69612 -0.289163,0.108863 -0.577351,0.22133 -0.864504,0.337228z"/>
   <path id="_120952888" class="fil6" d="M27.4262 19.3224c0,0 -5.56192,-5.27824 -16.885,-6.01007 -3.02288,-0.194986 -5.63494,2.11142 -5.83716,5.13395 -0.376248,5.62612 -0.0591046,15.062 4.58429,24.1721 1.43562e-005,-5.7425e-005 2.10589,-16.6604 18.1378,-23.296z"/>
   <path id="_120952792" class="fil7" d="M7.18058 34.8757c-1.75656,-6.18991 -1.90911,-12.0511 -1.62022,-16.3722 0.164207,-2.45381 2.20907,-4.34437 4.62567,-4.34437 0.0991873,-2.87125e-005 0.199537,0.00304352 0.299916,0.00963304 5.54081,0.358059 9.67514,1.84653 12.4004,3.22257 -0.333754,0.188397 -0.664479,0.381876 -0.993165,0.581413 -2.43958,-0.963806 -5.62739,-1.81667 -9.57487,-2.07191 -0.110543,-0.00714941 -0.220397,-0.010638 -0.329648,-0.010638 -2.64886,-4.30687e-005 -4.88056,2.0709 -5.0598,4.75107 -0.215372,3.22045 -0.183588,7.79334 0.893188,12.8078 -0.223354,0.469463 -0.437377,0.945559 -0.641466,1.42667z"/>
   <path id="_120952696" class="fil5" d="M10.186 14.1591c-2.41661,0 -4.46149,1.89063 -4.62568,4.3444 -0.36673,5.48539 -0.0217784,13.454 3.41265,21.4251 0.449838,-1.72752 1.24467,-4.16966 2.60673,-6.85792 2.24837,-4.43757 6.50994,-10.3464 14.1944,-13.9569 -2.07189,-1.47025 -7.17143,-4.42036 -15.2882,-4.94504 -0.100364,-0.00669001 -0.200758,-0.00963304 -0.299916,-0.00963304zm-0.898184 29.3172c-0.318278,0 -0.615811,-0.17773 -0.764154,-0.46843 -4.61918,-9.06256 -5.09252,-18.3899 -4.67607,-24.6188 0.233949,-3.49666 3.25986,-6.15952 6.74914,-5.93313 11.5005,0.743481 17.184,6.01974 17.4205,6.24359 0.210707,0.200026 0.305903,0.493295 0.252727,0.779429 -0.052673,0.285617 -0.247157,0.525209 -0.51559,0.636125 -6.43348,2.66285 -11.3512,7.2641 -14.615,13.6748 -2.44996,4.81281 -2.99447,8.89592 -2.99964,8.93642 -0.0480073,0.373765 -0.333596,0.672576 -0.704576,0.736906 -0.0491701,0.00857068 -0.0986561,0.0131647 -0.147367,0.0131216z"/>
   <path id="_120952600" class="fil1" d="M41.0479 15.0469c23.8207,2.48873 33.1475,23.7118 33.1475,23.7118 1.33405,-7.2069 1.0899,-14.0724 0.16916,-20.0283 -0.854857,-5.51484 -2.28817,-10.2517 -3.58925,-13.7614 -1.45348,-3.92105 -5.81716,-5.94768 -9.73916,-4.5025 -7.4378,2.73791 -12.4659,6.43817 -15.6176,9.42779 -3.08022,2.91404 -4.37071,5.15268 -4.37067,5.15264z"/>
   <path id="_120952504" class="fil3" d="M74.1215 32.6245c-0.849861,-1.62724 -1.7848,-3.16222 -2.80429,-4.60512 0.0831083,-2.12823 0.00607269,-4.18789 -0.18689,-6.15142 1.01901,-0.2588 1.94734,-0.866543 2.5799,-1.76348 0.527735,3.89564 0.736877,8.1109 0.411235,12.5201zm-26.5727 -19.5224c-0.891853,-0.151903 -1.78375,-0.270874 -2.68068,-0.357987 0.371252,-0.38703 0.777922,-0.792608 1.22157,-1.21296 0.375818,-0.356107 0.777419,-0.722205 1.20739,-1.09547 0.727818,0.222235 1.49912,0.472019 2.3054,0.752597 -0.799169,0.673552 -1.48037,1.32031 -2.05367,1.91382z"/>
   <path id="_120952408" class="fil8" d="M47.2971 10.4356c-0.309951,-0.0946938 -0.611849,-0.184262 -0.905606,-0.268849 3.10511,-2.85801 7.93415,-6.3155 14.94,-8.89539 0.760737,-0.279588 1.54014,-0.412254 2.30792,-0.412254 1.79487,-8.61374e-005 3.52391,0.725751 4.78601,1.99189 -1.21649,-0.782028 -2.64522,-1.21398 -4.11395,-1.21398 -0.86548,-4.30687e-005 -1.74523,0.149908 -2.60419,0.466449 -6.55151,2.41173 -11.2337,5.57051 -14.4101,8.33213z"/>
   <path id="_120952312" class="fil10" d="M44.868 12.7441c-0.309434,-0.0298466 -0.621927,-0.0561616 -0.931878,-0.07794 0.653381,-0.74104 1.46671,-1.58975 2.45529,-2.49936 0.293786,0.0844865 0.595597,0.174227 0.905549,0.268935 -0.429941,0.373234 -0.8316,0.739433 -1.20739,1.09547 -0.443622,0.42025 -0.850349,0.826029 -1.22157,1.2129z"/>
   <path id="_120952216" class="fil6" d="M45.7984 16.6554c0,0 3.83184,-6.64207 14.4796,-10.5625 2.84225,-1.04694 6.00252,0.421873 7.05595,3.26208 1.96055,5.2868 4.33932,14.4234 2.47759,24.4775 1.43562e-005,-1.43562e-005 -6.75613,-15.374 -24.0131,-17.1771z"/>
   <path id="_120952120" class="fil7" d="M69.6313 25.8107c-0.332735,-0.403166 -0.673121,-0.798666 -1.02106,-1.18561 -0.39349,-5.11369 -1.6632,-9.50719 -2.785,-12.5333 -0.759689,-2.04819 -2.70601,-3.32439 -4.77233,-3.32439 -0.57936,-7.17812e-005 -1.16789,0.100278 -1.74273,0.31199 -3.71181,1.36693 -6.52517,3.09142 -8.5905,4.70853 -0.374238,-0.0982828 -0.749554,-0.190436 -1.12586,-0.277032 2.2158,-2.09017 5.75385,-4.68827 10.9805,-6.6128 0.524218,-0.193522 1.06153,-0.284627 1.59027,-0.284627 1.88708,-5.7425e-005 3.66927,1.16485 4.36464,3.03975 1.50573,4.06025 3.02608,9.72345 3.10208,16.1575z"/>
   <path id="_120952024" class="fil5" d="M47.3188 15.9849c8.39655,1.27581 14.163,5.72959 17.5811,9.34568 2.07044,2.18986 3.52697,4.30539 4.44973,5.83387 1.02608,-8.61897 -0.909095,-16.3565 -2.82046,-21.5112 -0.890302,-2.40065 -3.56191,-3.63737 -5.95491,-2.75512 -7.66419,2.82247 -11.6971,7.0919 -13.2555,9.08684zm22.4928 18.706c-0.3373,0 -0.647265,-0.199035 -0.78553,-0.513035 -0.0161795,-0.0370104 -1.69916,-3.79691 -5.41655,-7.71434 -4.95211,-5.21812 -10.9744,-8.23094 -17.9002,-8.95465 -0.289192,-0.0304065 -0.543427,-0.20462 -0.675117,-0.463419 -0.132164,-0.2588 -0.124081,-0.567229 0.0207735,-0.818937 0.163116,-0.282086 4.11141,-6.95668 14.9263,-10.9395 3.27931,-1.20795 6.93896,0.483662 8.1575,3.76956 2.17018,5.85301 4.36869,14.9298 2.51708,24.9318 -0.0688525,0.370678 -0.370736,0.652821 -0.745003,0.696378 -0.0333783,0.00401975 -0.0663402,0.00607269 -0.0992447,0.00607269z"/>
   <path id="_120951928" class="fil1" d="M79.9493 50.0486c0,0 1.68547,1.21907 2.87462,1.88101 0,0 -0.974932,4.4862 -6.59152,7.71638 0,-1.43562e-005 -2.50798,4.00607 -8.119,8.25726 -5.01387,3.79737 -12.5054,7.79232 -22.905,9.30157 -10.3996,1.5097 -18.7176,-0.189919 -24.6042,-2.40516 -6.58847,-2.48016 -10.1318,-5.60748 -10.1318,-5.60748 -6.30319,-1.50018 -8.51327,-5.52392 -8.51327,-5.52392 0.951446,-0.972922 2.22111,-2.62042 2.22111,-2.62042 -2.03238,-1.67992 -3.26781,-4.59001 -3.26781,-4.59001 3.01149,-1.55178 3.90675,-3.49404 3.90675,-3.49404 -0.0982685,-5.65059 0.672877,-10.5232 2.03271,-14.7161 2.09147,-6.44121 5.56798,-11.2859 9.40398,-14.9086 11.1192,-10.5025 27.7481,-12.9167 41.3941,-6.00859 7.77311,3.9336 15.5528,11.335 19.3882,25.1496 4.30687e-005,0 1.41047,1.608 4.73889,2.23904 2.87125e-005,-4.30687e-005 -0.35704,3.14106 -1.82776,5.32941z"/>
   <path id="_120951832" class="fil2" d="M68.1134 67.9033c-5.01392,3.79741 -12.5055,7.79237 -22.905,9.30161 -10.3996,1.5097 -18.7176,-0.189919 -24.6042,-2.40516 1.06915,-11.0646 9.55988,-20.3899 21.0529,-22.0582 11.493,-1.66827 22.2851,4.85792 26.4563,15.1617z"/>
   <path id="_120951736" class="fil11" d="M25.3153 17.331c0,0 0.389959,5.97881 3.60494,12.388 0.120061,0.239548 -0.1337,0.493295 -0.372243,0.371741 -1.64897,-0.842238 -5.61661,-3.51886 -6.95617,-10.2365 1.43562e-005,0 2.65028,-1.93011 3.72348,-2.52327z"/>
   <path id="_120951640" class="fil11" d="M35.9752 13.5979c0,0 -1.76299,0.106954 -3.69764,0.931978 4.30687e-005,-7.17812e-005 2.54088,14.4963 6.21269,17.8916 0.128646,0.118913 0.336281,0.0891379 0.425921,-0.0617893 2.55461,-4.2989 0.868581,-18.9192 0.868581,-18.9192 -2.08962,-0.24107 -3.80956,0.157502 -3.80956,0.157416z"/>
   <path id="_120951544" class="fil11" d="M47.256 14.1459c0,0 1.32636,5.84308 0.0662971,12.9021 -0.0470885,0.263796 0.268433,0.435037 0.4624,0.250186 1.34161,-1.27633 4.3844,-4.97037 3.75892,-11.7913 2.87125e-005,-0.000100494 -3.08989,-1.09749 -4.28762,-1.36093z"/>
   <path id="_120951448" class="fil3" d="M20.7055 73.9194c-0.250717,-0.0952106 -0.494314,-0.190881 -0.73135,-0.286608 -5.75038,-2.31806 -8.90264,-5.05697 -8.93307,-5.0838 -0.10559,-0.0932151 -0.232413,-0.158522 -0.369214,-0.19144 -4.52447,-1.07725 -6.81517,-3.54469 -7.61837,-4.6042 0.863815,-0.961753 1.76197,-2.12408 1.80649,-2.18231 0.28266,-0.366185 0.223799,-0.890862 -0.132795,-1.18562 -1.26659,-1.04689 -2.21676,-2.65839 -2.68979,-3.57103 2.66089,-1.58977 3.52265,-3.40844 3.56099,-3.49099 0.0539077,-0.117506 0.0808831,-0.245118 0.0786435,-0.374282 -0.0685511,-3.90022 0.279774,-7.56137 1.04113,-10.9724 0.0710634,7.42564 2.08599,21.4246 15.0752,27.295 -0.508469,1.49754 -0.875156,3.05191 -1.08786,4.64775zm47.0604 -6.83162c-0.657387,-1.46971 -1.45153,-2.85536 -2.36416,-4.14633 10.7835,-9.32185 8.73484,-23.3152 6.69129,-30.4552 1.70022,3.05441 3.07469,6.46441 4.118,10.2233 0.0349431,0.124555 0.0967324,0.239548 0.181822,0.336783 0.0602819,0.0683788 1.4039,1.56697 4.40668,2.33477 -0.193953,1.00934 -0.646246,2.8245 -1.56294,4.18839 -0.258269,0.383857 -0.165599,0.90351 0.209687,1.17447 0.0592482,0.0430113 1.25043,0.902003 2.35198,1.57863 -0.469952,1.24637 -1.96455,4.26184 -5.99442,6.58038 -0.12154,0.0698431 -0.224359,0.16916 -0.299313,0.28767 -0.0217497,0.0349144 -2.26539,3.55735 -7.11926,7.41451 -0.200026,0.15901 -0.406684,0.320087 -0.619371,0.482628z"/>
   <path id="_120951352" class="fil4" d="M37.4586 76.9136c-7.06712,0 -12.7572,-1.4707 -16.7531,-2.99412 0.212716,-1.59588 0.579375,-3.15015 1.08786,-4.64775 3.7245,1.68346 8.35147,2.6989 14.0937,2.6989 2.58905,-1.43562e-005 5.40491,-0.206629 8.46694,-0.6513 9.85366,-1.43023 16.5611,-4.49986 21.0478,-8.3778 0.912626,1.29096 1.70676,2.67662 2.36413,4.14636 -4.54645,3.47478 -12.0253,7.72043 -22.6811,9.26714l2.87125e-005 -2.87125e-005c-2.69184,0.390978 -5.23729,0.558659 -7.62622,0.558601z"/>
   <path id="_120951256" class="fil8" d="M6.90264 41.1882c1.65787,-6.77335 4.98149,-12.5403 9.94171,-17.2245 1.50669,-1.42319 3.1177,-2.69435 4.80977,-3.80957 0.0830796,0.387432 0.175232,0.761211 0.275008,1.12129 -1.89362,1.20983 -3.69207,2.60673 -5.36494,4.18737 -3.83609,3.62214 -7.31262,8.46695 -9.40408,14.9081 -0.0874152,0.269381 -0.173366,0.541905 -0.257479,0.817416zm63.6681 -11.211c-3.7458,-4.97187 -8.21375,-8.29771 -12.6123,-10.5236 -2.05418,-1.03975 -4.17421,-1.8678 -6.33425,-2.48923 -0.00654645,-0.373765 -0.0248219,-0.758182 -0.0551997,-1.15321 1.93976,0.588448 3.84552,1.3492 5.69459,2.28462 5.46416,2.76518 9.91135,6.74094 13.3071,11.8815zm-44.6628 -8.87618c-0.295767,-1.3639 -0.449752,-2.44312 -0.525711,-3.09139 2.26236,-1.12441 4.63002,-1.99898 7.05645,-2.61686 0.12968,0.66903 0.334256,1.68498 0.606235,2.89896 -0.938467,0.677112 -2.21676,1.35072 -3.68093,1.89718 -1.23169,0.45983 -2.42289,0.765259 -3.45606,0.912138zm21.6617 -5.05498c-1.98784,-0.331256 -3.99343,-0.495793 -5.99395,-0.495793 -0.528697,-1.43562e-005 -1.05696,0.0116573 -1.5847,0.0344406 -0.041992,-0.500975 -0.0820459,-0.930859 -0.114965,-1.2717 0.462917,-0.0178305 0.92681,-0.0268462 1.39123,-0.0268462 2.04203,-0.000100494 4.09015,0.175232 6.118,0.529243 0.0541948,0.312435 0.119516,0.727273 0.184377,1.23066z"/>
   <path id="_120951160" class="fil12" d="M21.9291 21.2754c-0.0997902,-0.360083 -0.191972,-0.733834 -0.275023,-1.12128 1.20437,-0.794144 2.44872,-1.50873 3.72803,-2.14433 0.0759732,0.648242 0.22993,1.72753 0.525697,3.09142 -0.476053,0.0673164 -0.918713,0.101283 -1.31628,0.101283 -0.57178,-1.43562e-005 -1.05089,-0.0699005 -1.40339,-0.2122 -0.126593,-0.0507062 -0.260307,-0.0764757 -0.393002,-0.0764757 -0.186373,-0.000100494 -0.370736,0.0501464 -0.533306,0.15143 -0.110902,0.0693119 -0.222335,0.13927 -0.33272,0.210161z"/>
   <path id="_120951064" class="fil12" d="M33.0448 18.2917c-0.27195,-1.21395 -0.476584,-2.22983 -0.606235,-2.89886 2.43403,-0.619902 4.92731,-0.982024 7.43731,-1.07976 0.0329189,0.340788 0.0729297,0.77083 0.114965,1.2717 -1.55785,0.0677615 -3.11065,0.234997 -4.64572,0.49987 -0.325628,0.056176 -0.612811,0.265389 -0.744988,0.567746 -0.219808,0.500329 -0.768303,1.07115 -1.55533,1.6393z"/>
   <path id="_120950968" class="fil12" d="M51.6242 16.9644c-1.33905,-0.384934 -2.69283,-0.690808 -4.05469,-0.918211 -0.0648041,-0.503473 -0.130168,-0.918196 -0.184348,-1.23069 1.40698,0.245535 2.80323,0.576862 4.18384,0.995691 0.0304209,0.394955 0.0486102,0.779443 0.0551997,1.15321z"/>
   <path id="_120950872" class="fil5" d="M9.87863 69.8116c-0.208625,-0.232514 -0.392227,-0.46797 -0.576116,-0.712586 -0.184693,-0.241084 -0.357959,-0.492778 -0.526975,-0.749051 -0.168628,-0.2558 -0.330251,-0.518102 -0.478393,-0.793111 -0.146247,-0.275511 -0.288733,-0.555572 -0.391839,-0.863499 -0.0422791,-0.126665 0.0259704,-0.263868 0.152693,-0.305903 0.0805385,-0.027363 0.165355,-0.00911621 0.227288,0.0400108l0.00877166 0.00709198c0.2269,0.182784 0.458739,0.361605 0.693033,0.537857l0.701345 0.530233 0.698101 0.532774c0.230504,0.177257 0.464769,0.359624 0.681175,0.538416 0.366486,0.302328 0.418283,0.844764 0.115726,1.21144 -0.302543,0.366658 -0.845023,0.418327 -1.21159,0.115984 -0.0321436,-0.0268605 -0.0659382,-0.059765 -0.0932151,-0.0896547z"/>
   <path id="_120950776" class="fil5" d="M75.4859 59.2226c0.156512,-0.232973 0.329691,-0.474546 0.49987,-0.709543l0.518131 -0.709572 0.521663 -0.707533c0.174184,-0.235471 0.345856,-0.473483 0.510967,-0.713046l0.00558458 -0.00815434c0.0760019,-0.109854 0.226886,-0.137203 0.336769,-0.0612294 0.0699293,0.0480647 0.106365,0.128129 0.104341,0.207146 -0.0111117,0.324595 -0.0683644,0.633067 -0.130168,0.939458 -0.0637704,0.305357 -0.144323,0.602704 -0.232959,0.896447 -0.0895973,0.293183 -0.183846,0.583926 -0.292738,0.86805 -0.106308,0.286622 -0.215746,0.5642 -0.349445,0.846286 -0.20304,0.429438 -0.716132,0.613327 -1.14612,0.410244 -0.429424,-0.203643 -0.612825,-0.716649 -0.409727,-1.14612 0.01773,-0.0380297 0.0415326,-0.0784999 0.0638278,-0.112438z"/>
   <path id="_120950680" class="fil5" d="M45.0848 76.355l0.123579 0.849358 -0.123579 -0.849358c11.1547,-1.61915 18.828,-6.19546 23.3005,-9.74977 4.85389,-3.85721 7.09748,-7.37957 7.11926,-7.41451 0.074997,-0.118511 0.177759,-0.21777 0.299313,-0.28767 4.02987,-2.31855 5.52443,-5.334 5.99442,-6.58038 -1.10153,-0.676638 -2.29273,-1.53557 -2.35198,-1.57863 -0.375243,-0.270988 -0.46797,-0.790584 -0.209687,-1.17447 0.916703,-1.36389 1.36895,-3.17903 1.56294,-4.18839 -3.00278,-0.7678 -4.34641,-2.26639 -4.40668,-2.33477 -0.0850607,-0.0972492 -0.146879,-0.2122 -0.181822,-0.336783 -3.21903,-11.5985 -9.5938,-19.8799 -18.9475,-24.6138 -13.3213,-6.74153 -29.5649,-4.38389 -40.4192,5.86781 -7.62156,7.19767 -11.3789,16.9496 -11.1673,28.9855 0.00223957,0.129149 -0.0247645,0.25679 -0.0786435,0.374282 -0.0383455,0.082534 -0.900122,1.90124 -3.56099,3.49099 0.473024,0.912626 1.42319,2.52419 2.68979,3.57103 0.356609,0.294748 0.415441,0.819454 0.132795,1.18562 -0.0445187,0.0582289 -0.942674,1.22055 -1.80649,2.18231 0.803203,1.05948 3.0939,3.52697 7.61837,4.6042 0.136829,0.0328758 0.263624,0.0982398 0.369214,0.19144 0.0304352,0.0268318 3.18268,2.76574 8.93307,5.0838 5.29856,2.13572 13.9569,4.34134 25.1106,2.7222zm-7.62671 2.27549c-7.81613,0 -14.0167,-1.74067 -18.2031,-3.4373 -5.30841,-2.15094 -8.44065,-4.59964 -9.18231,-5.21498 -6.44469,-1.6075 -8.76853,-5.71993 -8.86547,-5.89618 -0.181707,-0.330739 -0.125847,-0.741945 0.138007,-1.0124 0.548265,-0.56219 1.22041,-1.3735 1.66676,-1.92857 -1.79139,-1.79341 -2.84067,-4.23397 -2.88914,-4.34793 -0.175519,-0.413316 -0.00272769,-0.89237 0.396663,-1.09799 2.2076,-1.13805 3.16661,-2.49734 3.43787,-2.94556 -0.168628,-12.4335 3.76995,-22.5368 11.7083,-30.0339 11.3796,-10.7466 28.4071,-13.2185 42.3727,-6.1509 9.74223,4.93035 16.3915,13.4981 19.765,25.4656 0.38189,0.347392 1.68802,1.38162 4.13319,1.84552 0.441655,0.0840414 0.743481,0.493797 0.692832,0.939989 -0.0141553,0.123019 -0.326145,2.76171 -1.53405,4.99011 0.585993,0.405162 1.46112,0.992145 2.14688,1.37553 0.329705,0.183803 0.49987,0.562176 0.419848,0.931375 -0.0425088,0.195948 -1.10154,4.79969 -6.82299,8.17319 -0.536306,0.800705 -2.84274,4.03898 -7.32032,7.61052 -4.64618,3.70619 -12.6138,8.47707 -24.1868,10.157 -2.77687,0.403123 -5.40643,0.576848 -7.87387,0.576834z"/>
   <path id="_120950584" class="fil3" d="M55.2256 54.6022c-1.03468,-0.459342 -2.10282,-0.849287 -3.19981,-1.16481 0.469507,-0.496338 0.954676,-1.12737 1.4515,-1.91743 4.30687e-005,0 1.35832,1.18662 1.7483,3.08224z"/>
   <path id="_120950488" class="fil4" d="M43.2874 68.0076c-6.04405,0 -8.62041,-4.8822 -8.62041,-4.8822 -3.57607,-2.47915 -2.05215,-6.44009 -2.05215,-6.44009 1.70727,0.987063 3.03468,1.36894 4.06784,1.36894 2.29173,-0.000531181 3.13295,-1.88149 3.44138,-3.21498 0.464424,0.17773 1.00126,0.286149 1.61814,0.286149 0.457361,0 0.959227,-0.0597507 1.50873,-0.195489 1.29047,-0.319627 2.15143,-0.887833 2.72322,-1.53912 0.655377,0.75867 1.69966,1.64294 3.00785,1.64294 0.902534,0 1.9311,-0.42137 3.0438,-1.59636 1.09699,0.315521 2.16509,0.705494 3.19979,1.16485 0.208151,1.01237 0.140289,2.2274 -0.558113,3.57153 4.30687e-005,-1.43562e-005 -0.00152176,7.38718 -8.27702,9.4363 -1.12175,0.277535 -2.15497,0.397553 -3.10304,0.397524z"/>
   <path id="_120950392" class="fil5" d="M41.9539 49.6921c0,0 -2.13981,0.506459 -3.60498,1.43631 -0.631545,0.40107 -0.808314,1.24183 -0.405679,1.87237 0.728823,1.14055 2.30488,2.67257 5.30766,1.92909 3.00278,-0.743983 3.68195,-2.83414 3.79437,-4.18282 0.0618036,-0.745505 -0.486705,-1.40644 -1.23271,-1.46619 -1.7295,-0.139327 -3.85868,0.411235 -3.85866,0.411235z"/>
   <path id="_120950296" class="fil5" d="M43.8389 53.6308l0.0815434 0.195489 0.0997615 0.218847c0.071451,0.145859 0.146879,0.2907 0.223354,0.434535 0.154976,0.287125 0.334256,0.55863 0.519624,0.818435 0.376837,0.517571 0.818435,0.961753 1.30767,1.29957 0.979526,0.675059 2.1813,0.870591 3.44795,0.627999 0.15756,-0.0313971 0.316024,-0.0572383 0.471516,-0.103308 0.158034,-0.0390346 0.313483,-0.0810553 0.461381,-0.135221 0.306922,-0.0896691 0.585964,-0.216765 0.856924,-0.351484 0.261341,-0.145386 0.503918,-0.309966 0.71764,-0.498865 0.209185,-0.19401 0.385924,-0.412268 0.540398,-0.650295 0.622975,-0.947612 0.7531,-2.34185 0.66903,-3.77411l-0.00150741 -0.0253388c-0.00808256,-0.140275 0.0987422,-0.261312 0.239534,-0.269424 0.0921814,-0.00559893 0.176252,0.0390059 0.224862,0.109911 0.46296,0.672532 0.718673,1.43327 0.824005,2.26082 0.0952249,0.821464 -0.0222809,1.72803 -0.436559,2.54038 -0.20304,0.405679 -0.479111,0.774892 -0.791086,1.10206 -0.318048,0.321049 -0.672059,0.593056 -1.04228,0.827034 -0.749008,0.454748 -1.53862,0.729814 -2.34643,0.904544 -0.405133,0.0916502 -0.827537,0.142313 -1.25449,0.170667 -0.430443,0.0111117 -0.867045,0 -1.3026,-0.0800217 -0.869558,-0.138308 -1.72549,-0.488744 -2.43503,-1.0038 -0.356509,-0.2558 -0.682711,-0.543929 -0.976957,-0.854885 -0.291173,-0.313555 -0.54647,-0.650295 -0.775395,-0.998233 -0.229915,-0.347967 -0.424399,-0.713089 -0.594578,-1.08635 -0.0855632,-0.186904 -0.163589,-0.376794 -0.232973,-0.571278l-0.0997615 -0.29581c-0.0333783,-0.105805 -0.0587601,-0.189876 -0.0947081,-0.327121 -0.123564,-0.471057 0.159024,-0.953168 0.630024,-1.07623 0.431003,-0.112969 0.871108,0.113945 1.03722,0.514556l0.0319139 0.0769351z"/>
   <path id="_120609480" class="fil5" d="M43.8536 53.6911c0.0324307,0.138279 0.0486102,0.224388 0.0688525,0.333797l0.0496582 0.30787c0.0294016,0.204605 0.0491127,0.408751 0.0607556,0.613873 0.0233432,0.410215 0.0217784,0.823503 -0.0192374,1.23828 -0.0399678,0.414766 -0.10839,0.832102 -0.219808,1.24539 -0.115467,0.41168 -0.269438,0.818923 -0.465444,1.21144 -0.387418,0.786521 -0.980488,1.49608 -1.68548,2.0243 -0.347421,0.273975 -0.728278,0.487725 -1.1147,0.678146 -0.390978,0.174199 -0.788043,0.326662 -1.18916,0.434535 -0.79614,0.222306 -1.62269,0.347435 -2.49734,0.294762 -0.436545,-0.034455 -0.876678,-0.109395 -1.30767,-0.245133 -0.428462,-0.143821 -0.845281,-0.341851 -1.21398,-0.605719 -0.745491,-0.525223 -1.27222,-1.27221 -1.57103,-2.04304 -0.293183,-0.781008 -0.422375,-1.57356 -0.326662,-2.3839 0.016725,-0.140304 0.143333,-0.240051 0.283105,-0.223843 0.091722,0.0111261 0.166633,0.0693694 0.202078,0.147381l0.0106523 0.0237883c0.59409,1.30561 1.35982,2.47809 2.35299,3.02558 0.247703,0.138265 0.505943,0.249684 0.780951,0.323116 0.277578,0.0673164 0.568751,0.0997759 0.867562,0.106868 0.302888,-0.00763752 0.608762,-0.0253244 0.922259,-0.0891379 0.156024,-0.0212903 0.31298,-0.0567215 0.470497,-0.0957131 0.15957,-0.0319426 0.311459,-0.0830652 0.465429,-0.128646 1.23376,-0.37632 2.20562,-1.11015 2.75714,-2.16461 0.275008,-0.526716 0.458337,-1.12585 0.550016,-1.75943 0.0425806,-0.316024 0.0744515,-0.640159 0.0774806,-0.966319 0.00104801,-0.162584 0,-0.326145 -0.00506775,-0.488213l-0.0136528 -0.240094 -0.0192517 -0.211209 -0.0075801 -0.0830078c-0.0440449,-0.484695 0.312966,-0.914162 0.797647,-0.958724 0.443694,-0.0405277 0.840716,0.255254 0.938984,0.6776z"/>
   <path id="_120610728" class="fil5" d="M52.3439 57.0636c0,0 0.306405,2.49536 -0.692832,4.99573 -0.777907,1.94935 -2.34844,3.90378 -5.47682,4.67814 -3.12787,0.774347 -5.42923,-0.221316 -7.02658,-1.58268 -2.05013,-1.74477 -2.94353,-4.0947 -2.94353,-4.0947 1.43562e-005,0 7.31779,0.873132 6.84223,-6.95718 3.23274,7.1476 9.29752,2.96075 9.29753,2.96069z"/>
   <path id="_119265688" class="fil13" d="M51.651 62.0592c-0.777907,1.94939 -2.34844,3.90382 -5.47682,4.67818 -3.12787,0.774347 -5.42923,-0.221316 -7.02658,-1.58268 4.30687e-005,-4.30687e-005 4.30386,-7.60495 12.5034,-3.09551z"/>
   <path id="_120789064" class="fil5" d="M37.6212 61.9387c1.07725,1.85715 3.68446,5.09446 8.34082,3.94075 4.65742,-1.15324 5.452,-5.23117 5.53811,-7.37703 -1.13749,0.483145 -2.86553,0.948589 -4.66953,0.447197 -1.18155,-0.328184 -2.21524,-1.01392 -3.09142,-2.04762 -0.292724,1.32333 -0.886799,2.41226 -1.77868,3.25348 -1.36183,1.28485 -3.10761,1.67941 -4.3393,1.78322zm6.42037 5.95438c-6.1033,0.00101929 -8.63511,-6.44664 -8.66246,-6.52007 -0.109897,-0.288718 -0.06077,-0.61383 0.129149,-0.857943 0.190436,-0.243137 0.494802,-0.370219 0.801207,-0.333251 0.0253675,0.00254105 2.74955,0.290714 4.44669,-1.31931 1.06305,-1.00888 1.53659,-2.59205 1.40795,-4.70651 -0.0258269,-0.425418 0.255756,-0.808802 0.669532,-0.911104 0.413804,-0.102819 0.841735,0.104829 1.01747,0.49328 0.872644,1.93007 2.03089,3.10965 3.44088,3.5062 2.25476,0.633067 4.52873,-0.893891 4.551,-0.909597 0.254766,-0.173237 0.582433,-0.202581 0.863514,-0.0754564 0.280593,0.12711 0.476082,0.390475 0.513049,0.696881 0.0106667,0.0865968 0.972894,8.70548 -6.83261,10.6386 -0.834126,0.206113 -1.61559,0.298294 -2.34536,0.298251z"/>
   <path id="_120789016" class="fil5" d="M22.1981 49.4206c0.654343,3.52901 3.36335,5.98533 6.05061,5.48698 2.68727,-0.498879 4.33477,-3.76349 3.67991,-7.29247 -0.654817,-3.52852 -3.36388,-5.9853 -6.05062,-5.48644 -2.68726,0.498348 -4.33477,3.76297 -3.67989,7.29192z"/>
   <path id="_120789664" class="fil2" d="M26.6144 47.3842c0.19144,1.03065 0.982498,1.7483 1.76751,1.60244 0.785028,-0.145386 1.26613,-1.099 1.07471,-2.12965 -0.190895,-1.03063 -0.982527,-1.74829 -1.76704,-1.60293 -0.784956,0.145816 -1.26613,1.09952 -1.07518,2.13014z"/>
   <path id="_120788992" class="fil5" d="M58.1119 38.975c-0.723712,0.369214 -1.45153,0.781984 -2.11499,1.22513 -0.667508,0.446163 -1.28641,0.933902 -1.84857,1.46112 -0.289149,0.256747 -0.540383,0.544949 -0.803232,0.819454l-0.35704 0.441612c-0.0571953,0.075442 -0.123593,0.14385 -0.177271,0.22133l-0.159512 0.232944c-0.452796,0.604699 -0.773385,1.29048 -1.08586,1.98129l-1.62923 -1.25553c0.0647897,-0.0435855 0.105805,-0.0678476 0.150884,-0.0951962 0.0456241,-0.0283823 0.0891379,-0.0536923 0.131675,-0.0764757 0.0861374,-0.047634 0.173208,-0.0952106 0.258297,-0.135724 0.170667,-0.088133 0.343373,-0.163087 0.515561,-0.23906 0.344923,-0.147912 0.699422,-0.264356 1.05648,-0.366673 0.714611,-0.201605 1.45455,-0.307913 2.19244,-0.313483 0.736389,-0.00304352 1.4738,0.0719104 2.17068,0.280062 0.70347,0.172189 1.35628,0.491773 1.95897,0.847808 0.176768,0.10381 0.234997,0.331227 0.131173,0.507464 -0.0774806,0.13113 -0.222838,0.197011 -0.365151,0.179798l-0.0440449 -0.0061014c-0.32715,-0.0405133 -0.636628,-0.114434 -0.952149,-0.146348 -0.317,-0.0258412 -0.623965,-0.0698862 -0.934921,-0.0668427 -0.617318,-0.0202997 -1.2246,0.0318996 -1.81463,0.138265 -0.591003,0.0982254 -1.16637,0.265878 -1.71739,0.483145 -0.138265,0.051625 -0.271979,0.115482 -0.408205,0.171701l-0.396046 0.190909c-0.128144,0.0683644 -0.257795,0.134748 -0.37833,0.208682 -0.0627798,0.0354025 -0.11953,0.0729297 -0.177257,0.109897 -0.0293298,0.0182037 -0.0577408,0.0354599 -0.0820459,0.052673l-0.0587314 0.0405133 -0.0233145 0.0156627c-0.48873,0.334802 -1.15624,0.209716 -1.49101,-0.279516 -0.205567,-0.300376 -0.234997,-0.675117 -0.115467,-0.991643 0.339841,-0.88077 0.736375,-1.75995 1.31931,-2.51709 0.260336,-0.40064 0.603192,-0.734867 0.916172,-1.08938 0.349976,-0.318091 0.687779,-0.649275 1.07523,-0.914665 0.752597,-0.557654 1.57507,-1.00227 2.43554,-1.31476 0.866069,-0.308458 1.74273,-0.509503 2.68119,-0.523673 0.20617,-0.00307224 0.375286,0.161551 0.378316,0.367175 0.00254105,0.146879 -0.0805242,0.275008 -0.202581,0.337817l-0.0349144 0.0177012z"/>
   <path id="_120789136" class="fil14" d="M40.4629 52.4052c-0.334285,0 -0.573848,-0.0840271 -0.625501,-0.247616 -0.0926839,-0.29024 0.44467,-0.720683 1.2003,-0.961251 0.331242,-0.105863 0.64929,-0.157 0.9101,-0.157 0.333797,-2.87125e-005 0.573316,0.084587 0.625487,0.24766 0.092727,0.290685 -0.445187,0.7212 -1.20031,0.961251 -0.331701,0.105791 -0.649778,0.157 -0.910071,0.156957z"/>
  </g>
 </g>
</svg>
