<?xml version="1.0" encoding="UTF-8"?>
<!DOCTYPE svg PUBLIC "-//W3C//DTD SVG 1.1//EN" "http://www.w3.org/Graphics/SVG/1.1/DTD/svg11.dtd">
<!-- Creator: CorelDRAW -->
<svg xmlns="http://www.w3.org/2000/svg" xml:space="preserve" width="138px" height="34px" style="shape-rendering:geometricPrecision; text-rendering:geometricPrecision; image-rendering:optimizeQuality; fill-rule:evenodd; clip-rule:evenodd"
viewBox="0 0 69.9266 16.7787"
 xmlns:xlink="http://www.w3.org/1999/xlink">
 <defs>
  <style type="text/css">
   <![CDATA[
    .str0 {stroke:#E77817;stroke-width:0.0359543}
    .fil4 {fill:#000072}
    .fil13 {fill:#4D4D9D}
    .fil2 {fill:#AF6C3E}
    .fil6 {fill:#B065A4}
    .fil8 {fill:#B19DA7}
    .fil3 {fill:#B2B2D4}
    .fil10 {fill:#DD6B2C}
    .fil9 {fill:#E7D3C5}
    .fil11 {fill:#F5D2BF}
    .fil0 {fill:#FA9B27}
    .fil5 {fill:#FC90BA}
    .fil7 {fill:#FDE1BE}
    .fil12 {fill:#FF4A8B}
    .fil1 {fill:white}
    .fil14 {fill:#E77817;fill-rule:nonzero}
   ]]>
  </style>
 </defs>
 <g id="Слой_x0020_1">
  <metadata id="CorelCorpID_0Corel-Layer"/>
  <g id="_130068568">
   <g>
    <path id="_103895416" class="fil0" d="M23.4281 7.85492c0,0.0132408 -9.58782e-006,0.0264864 -0.000834141,0.0401394 -0.0215103,0.467066 -0.0944257,1.07076 -0.291053,1.69804 -0.406557,1.29759 -1.34402,2.69788 -3.45443,3.20426 1.43817e-005,-4.79391e-006 -1.05951,0.382986 -0.680242,-1.46029 1.91756e-005,0 2.122,0.253809 2.60354,-2.29015 0.0645644,-0.341111 0.0997229,-0.732462 0.0959981,-1.18165 -0.00371049,-0.479482 0.384227,-0.869505 0.863297,-0.869505 0.477416,-4.79391e-006 0.863709,0.386715 0.863719,0.859155z"/>
    <path id="_103895584" class="fil1" d="M23.4281 7.85492c0,0.0132408 -9.58782e-006,0.0264864 -0.000834141,0.0401394 -0.0215103,0.467066 -0.0944257,1.07076 -0.291053,1.69804 -0.703487,0.173041 -1.19787,-0.139522 -1.53113,-0.54618 0.0645644,-0.341111 0.0997229,-0.732462 0.0959981,-1.18165 -0.00371049,-0.479482 0.384227,-0.869505 0.863297,-0.869505 0.477416,-4.79391e-006 0.863709,0.386715 0.863719,0.859155z"/>
    <path id="_103895296" class="fil2" d="M20.0423 12.5521c-0.125294,-0.0914439 -0.240664,-0.193142 -0.345181,-0.30379 1.51309,-0.541549 2.31043,-1.596 2.72494,-2.64682 0.103131,0.0260645 0.212763,0.0403839 0.329447,0.0403839 0.073668,0 0.150203,-0.00570955 0.229561,-0.0177902 -0.382406,1.16733 -1.20673,2.37969 -2.93877,2.92802z"/>
    <path id="_128103096" class="fil3" d="M22.7515 9.64185c-0.116693,0 -0.22634,-0.0143194 -0.329457,-0.0403839 0.0503265,-0.127365 0.0949242,-0.25472 0.134479,-0.381001 0.196709,-0.627283 0.269533,-1.23098 0.291048,-1.69804 0.000824553,-0.0136579 0.000824553,-0.0268986 0.000824553,-0.0401346 0,-0.109651 -0.0208535,-0.214504 -0.0588357,-0.311077 0.112628,0.0364913 0.215079,0.100629 0.29949,0.18901 0.136976,0.143501 0.20738,0.331106 0.198281,0.528553 -0.0226704,0.491889 -0.100466,1.10701 -0.306278,1.73529 -0.0793488,0.0120711 -0.155908,0.0177902 -0.229552,0.0177902z"/>
    <path id="_101157704" class="fil4" d="M19.1158 11.484c-0.10271,0.57118 -0.0619997,0.96848 0.117,1.12514 0.158477,0.138774 0.39987,0.056851 0.40219,0.0561079 0.00446793,-0.0015724 0.0097652,-0.00314481 0.0142331,-0.00421864 3.00756,-0.721541 3.57037,-3.29976 3.63814,-4.7723 0.00911323,-0.197452 -0.0613237,-0.385052 -0.198281,-0.528553 -0.138113,-0.144661 -0.324399,-0.224264 -0.524416,-0.224264 -0.194297,-4.79391e-006 -0.376701,0.0759691 -0.513577,0.213919 -0.136703,0.1377 -0.211105,0.320262 -0.209619,0.514075 0.0108582,1.37645 -0.331681,2.38557 -1.01788,2.99936 -0.648214,0.579852 -1.40674,0.627523 -1.70781,0.62074zm0.354869 1.48636c-0.128774,0 -0.285108,-0.0312036 -0.420081,-0.147964 -0.280358,-0.242644 -0.343182,-0.751997 -0.186526,-1.51383 0.0146454,-0.0713334 0.0812664,-0.119416 0.153674,-0.110974 0.00903652,0.00099234 0.906744,0.0963289 1.62216,-0.546266 0.621329,-0.558093 0.931236,-1.49513 0.921222,-2.78519 -0.00214767,-0.269125 0.101128,-0.522599 0.290885,-0.713842 0.18993,-0.191416 0.443068,-0.296839 0.712682,-0.296839 0.277395,-4.79391e-006 0.535667,0.110476 0.727246,0.311072 0.190429,0.199345 0.28832,0.460364 0.275655,0.735026 -0.0332602,0.722198 -0.188928,1.78882 -0.741647,2.76947 -0.65482,1.1617 -1.69961,1.92247 -3.10512,2.26119 -0.0297894,0.0097604 -0.127441,0.0381499 -0.250151,0.0381499z"/>
    <path id="_127755240" class="fil0" d="M20.8896 16.0588l-15.5632 0c-0.161536,0.0745645 -0.315128,0.140356 -0.460858,0.197955 -0.816537,0.323728 -1.39325,0.396643 -1.77956,0.379261 -0.506817,-0.0223444 -0.949444,-0.374711 -1.04881,-0.871984 -0.119661,-0.600389 0.282788,-1.15807 0.710084,-1.56266 0.417344,-0.395402 0.857928,-0.644656 0.857928,-0.644656 -0.0343388,-0.38382 -0.015724,-0.760597 0.0293771,-1.10511 0.0840804,-0.642183 0.2596,-1.17089 0.352784,-1.42056 0.0372391,-0.099397 0.0612374,-0.154421 0.0612374,-0.154421 0,-4.79391e-006 2.4094,0.082834 4.69119,-0.301892 1.12829,-0.190419 2.22511,-0.49512 2.98363,-0.980806 0.711287,-0.455479 1.3825,-0.673703 1.96956,-0.758526 1.30555,-0.188027 2.19614,0.284423 2.19614,0.284423 -0.000810171,-0.303129 0.015307,-0.636794 0.0641329,-0.970129 0.11967,-0.822664 0.436035,-1.64376 1.17594,-1.99819 0.0504895,-0.0240079 0.103112,-0.0459257 0.157317,-0.0653746 0.396241,-0.143338 0.695227,0.0264816 0.920397,0.385469 0.1027,0.163103 0.189676,0.365612 0.264236,0.595754 0.154848,0.481956 0.252567,1.08483 0.312563,1.70218 0.0596746,0.611962 0.0828388,1.23842 0.0886298,1.77542 0.00580543,0.520024 0.162283,1.01854 0.440091,1.43968 0.208305,0.316695 0.485686,0.589958 0.818608,0.795765 0.00912281,0.00579105 0.0182073,0.0111746 0.0273109,0.0169657 0.859174,0.532848 1.48933,0.992062 1.76797,1.46492 0.468739,0.794107 -0.114694,1.79652 -1.03675,1.79651z"/>
    <path id="_103114208" class="fil1" d="M17.0203 13.5567c0,1.87233 -2.64121,2.03172 -7.80187,2.03172 -3.68175,0 -4.79761,-3.05149 -5.16985,-4.7118 0.0373254,-0.099397 0,0 0,0 0,-4.79391e-006 2.4094,0.082834 4.69119,-0.301892l0.481553 1.44712 -0.0865637 0.179748c0,0 0.595835,0.960949 2.94507,-0.438931 2.34974,-1.39987 4.94045,-0.0778675 4.94046,1.79403z"/>
    <path id="_101853400" class="fil1" d="M4.86557 16.2568c-0.816537,0.323733 -1.39325,0.396648 -1.77956,0.379266 -0.506817,-0.0223444 -0.949444,-0.374711 -1.04881,-0.871984 -0.119661,-0.600389 0.282788,-1.15807 0.710084,-1.56266 0.632255,0.12504 1.53403,0.578457 2.11828,2.05538z"/>
    <path id="_130228144" class="fil1" d="M20.8896 16.0588l-0.814035 0c-1.09758,-1.4127 -0.404108,-2.66188 0.0828196,-3.26144 0.794955,0.49313 1.39367,0.922962 1.69928,1.35891 0.0252447,0.0351681 0.0479918,0.0708396 0.0686824,0.106013 0.0861562,0.146138 0.136631,0.298905 0.15608,0.451342 0.0869855,0.677346 -0.440095,1.34518 -1.19283,1.34517z"/>
    <path id="_130228240" class="fil5" d="M21.4223 14.8184c0.189513,0.104028 0.27913,0.305041 0.200098,0.44895 -0.0789365,0.143908 -0.296671,0.176186 -0.486179,0.0721627 -0.189503,-0.104028 -0.279135,-0.305032 -0.200184,-0.448864 0.0790324,-0.143908 0.296671,-0.176267 0.486266,-0.072249z"/>
    <path id="_130228336" class="fil5" d="M22.0824 14.7136c-0.101794,0.0802693 -0.272438,0.0848283 -0.425206,0.00124642 -0.189657,-0.104354 -0.279049,-0.3052 -0.200433,-0.449276 0.0675318,-0.122566 0.235189,-0.163937 0.400867,-0.10932 0.0252447,0.0351681 0.0479918,0.0708396 0.0686824,0.106013 0.0861562,0.146138 0.136631,0.298905 0.15609,0.451337z"/>
    <path id="_130228432" class="fil5" d="M20.8501 13.2703c0,0 -0.118342,0.417171 -0.434467,0.618429 -0.295583,0.18818 0.167001,0.975014 0.810833,0.439841 0.198128,-0.16469 0.252318,-0.454492 0.11362,-0.671555 -0.0815109,-0.127446 -0.230304,-0.262414 -0.489986,-0.386715z"/>
    <path id="_130228528" class="fil1" d="M18.7837 8.76953c-1.30216,0.680246 -2.31706,-0.0724072 -2.83047,-0.619829 0.12794,-0.878609 0.479895,-1.75555 1.33326,-2.06357 0.953998,-0.344514 1.34485,1.1229 1.49721,2.6834z"/>
    <path id="_130228624" class="fil5" d="M17.7566 6.99569c0,0.216229 -0.133069,0.391514 -0.297175,0.391514 -0.164182,-4.79391e-006 -0.297251,-0.175275 -0.297251,-0.391514 9.58782e-006,-0.216157 0.133069,-0.391428 0.297251,-0.391428 0.16412,-4.79391e-006 0.297175,0.175275 0.297175,0.391428z"/>
    <path id="_130228720" class="fil5" d="M18.4712 7.06735c-0.0522105,0.112221 -0.145821,0.186785 -0.252989,0.186785 -0.164431,0 -0.297338,-0.175112 -0.297338,-0.391677 0,-0.211196 0.127111,-0.383403 0.286081,-0.390852 0.1027,0.163103 0.189676,0.365612 0.264245,0.595744z"/>
    <path id="_130228816" class="fil5" d="M18.6064 8.26332c0,0 -0.382578,-0.120821 -0.698948,0.0211028 -0.295837,0.132734 -0.668578,-0.625045 0.0725702,-0.850382 0.228003,-0.0693583 0.479569,0.0361605 0.576722,0.253804 0.0571003,0.127772 0.085648,0.311489 0.0496553,0.575476z"/>
    <path id="_130228912" class="fil2" d="M4.81245 16.1272c-0.046103,-0.108323 -0.0940182,-0.210855 -0.143338,-0.30776 0.050734,-0.0188688 0.102364,-0.03873 0.155078,-0.0595835 0.120087,-0.0474214 0.245616,-0.100547 0.37637,-0.159465 0.0557005,-0.025077 0.116022,-0.0384807 0.177015,-0.0384807l3.26119 -4.79391e-006c0.185707,0.0174642 0.379016,0.0264816 0.579694,0.0264816 0.959127,0 1.83152,-0.00546027 2.61587,-0.0264768l7.92194 -4.79391e-006c0.0600677,0.117427 0.131569,0.236345 0.215812,0.356758l-14.6457 0c-0.0203597,0 -0.040475,0.00438164 -0.0589316,0.0129052 -0.159963,0.0740659 -0.311484,0.138865 -0.454976,0.19563z"/>
    <path id="_130229008" class="fil3" d="M9.21847 15.5884c-0.200683,0 -0.393997,-0.00901735 -0.579704,-0.0264768l3.19558 -4.79391e-006c-0.784346,0.0210165 -1.65675,0.0264816 -2.61587,0.0264816z"/>
    <path id="_130229104" class="fil3" d="M3.18929 16.4981c-0.0341758,0 -0.0665347,-0.000743056 -0.0971582,-0.00206618 -0.454736,-0.0199475 -0.831979,-0.332261 -0.917315,-0.75961 -0.00523495,-0.0261556 -0.00932895,-0.0522968 -0.0123299,-0.0783661 0.194997,0.282606 0.522114,0.465244 0.882065,0.481136 0.0345066,0.00156761 0.0705041,0.00239696 0.108074,0.00239696 0.356015,0 0.851547,-0.074972 1.51648,-0.322079 0.0493246,0.0969041 0.0972349,0.199441 0.143328,0.307764 -0.748593,0.295847 -1.27806,0.370823 -1.62315,0.370823z"/>
    <path id="_130229200" class="fil3" d="M20.8897 15.9187l-0.917583 0c-0.084253,-0.120413 -0.155754,-0.239326 -0.215836,-0.356753l1.09195 -4.79391e-006c0.239581,0 0.456222,-0.0676948 0.637456,-0.181809 0.0485911,-0.017632 0.089953,-0.046429 0.119412,-0.0859021 0.150701,-0.123304 0.269284,-0.281527 0.346001,-0.458293 0.00473159,0.186939 -0.0418748,0.37521 -0.139939,0.546841 -0.191565,0.335569 -0.536084,0.535921 -0.921462,0.535921z"/>
    <path id="_130229296" class="fil6" d="M21.4857 15.3801c0.0417118,-0.0262323 0.0815876,-0.054943 0.119402,-0.0858973 -0.029449,0.0394731 -0.0708348,0.0682749 -0.119402,0.0858973z"/>
    <path id="_130229392" class="fil2" d="M18.7802 11.0392c-0.17959,-0.474684 -0.353048,-1.15352 -0.42579,-2.09179 0.0968322,-0.0296264 0.19563,-0.066947 0.296177,-0.11271 0.047105,0.506208 0.074646,1.07871 0.0815109,1.71186 0.00183127,0.167322 0.0181258,0.332007 0.0481021,0.492637z"/>
    <path id="_130229488" class="fil3" d="M18.3544 8.94737c-0.00579105,-0.0741426 -0.0109349,-0.150025 -0.0154028,-0.227485 -0.0101631,-0.178343 -0.0239168,-0.346245 -0.041127,-0.503974 0.132571,0.00388307 0.24156,0.0291278 0.286412,0.041127 0.0252447,0.181641 0.0473351,0.374218 0.0662854,0.577628 -0.100528,0.0457579 -0.199355,0.0830881 -0.296177,0.11271zm0.103127 -1.40096c-0.0800296,-0.0771197 -0.186378,-0.123707 -0.298263,-0.132149 -0.0167835,-0.0657964 -0.0346744,-0.128769 -0.0535432,-0.189014 0.0346887,0.0186148 0.0726613,0.0288833 0.112465,0.0288833 0.0546314,0 0.105758,-0.0193626 0.149623,-0.0532124 0.0318651,0.107158 0.0618127,0.222529 0.0897037,0.345502zm-0.531357 -0.757711c-0.154508,-0.286494 -0.350147,-0.472435 -0.58666,-0.572489 0.0758061,-0.0268171 0.147307,-0.0402161 0.215165,-0.0402161 0.101952,-9.58782e-006 0.19563,0.0302064 0.2831,0.0909453 0.0840948,0.0583419 0.162701,0.143247 0.235769,0.253564 -0.0754658,0.0553505 -0.130668,0.152844 -0.147374,0.268195z"/>
    <path id="_130229584" class="fil6" d="M18.2182 7.25413c-0.0397895,0 -0.0777908,-0.0102638 -0.112465,-0.0288833 -0.051966,-0.165759 -0.111799,-0.310823 -0.179575,-0.436529 0.0167308,-0.11537 0.0719135,-0.212845 0.147384,-0.268205 0.111569,0.168559 0.209868,0.396476 0.294279,0.680405 -0.0438595,0.0338498 -0.0950057,0.0532124 -0.149623,0.0532124z"/>
    <path id="_130229680" class="fil6" d="M18.5843 8.25703c-0.0448518,-0.0119992 -0.153856,-0.0372343 -0.286427,-0.0411222 -0.0331787,-0.303546 -0.0794447,-0.569934 -0.138616,-0.801643 0.111895,0.00843249 0.218224,0.0550293 0.298248,0.132159 0.0485,0.213746 0.0907823,0.45093 0.126794,0.710606z"/>
    <path id="_130229776" class="fil7" d="M16.5943 9.74629c0,0 -0.780219,-0.599392 -2.3039,-0.599392 -0.244782,-4.79391e-006 -0.509022,0.0154747 -0.792132,0.0513907 0.050897,-0.0748953 0.0916931,-0.145318 0.12422,-0.208377 0.251661,-0.0421193 0.484032,-0.0581789 0.692322,-0.0581789 0.116367,0 0.225343,0.00497129 0.325722,0.0133271 0.721465,0.0594924 1.17859,0.296182 1.18289,0.298416 0.0205275,0.0109157 0.0431164,0.0163856 0.0656239,0.0163856 0.0251776,-4.79391e-006 0.0502354,-0.00678818 0.0724983,-0.020192 0.0222581,-0.0134086 0.0398853,-0.0323589 0.0515537,-0.0545403 0.232557,0.137293 0.434875,0.31985 0.581195,0.561161z"/>
    <path id="_130229872" class="fil2" d="M4.69427 12.7527c-0.268953,-0.0556046 -0.519785,-0.12247 -0.751743,-0.195956 0.226579,0.0629728 0.472776,0.120159 0.737505,0.166833 0.004722,0.00967411 0.00943442,0.0193626 0.0142331,0.0291278zm4.65231 -0.369913c-0.0532172,-0.0300434 -0.0950105,-0.0611559 -0.126952,-0.0888791 0.944156,-0.352204 1.65327,-0.811571 2.1397,-1.19961 0.731637,-0.583592 1.1085,-1.11272 1.19613,-1.24356 0.332434,-0.196042 0.568529,-0.417411 0.735113,-0.622811 0.0704274,-0.0110883 0.139522,-0.020935 0.207711,-0.0296264 -0.160203,0.235851 -0.420143,0.516391 -0.834994,0.754974 9.58782e-006,0 -0.409884,0.654666 -1.32655,1.34898 -0.504554,0.382151 -1.16237,0.776403 -1.99016,1.08052z"/>
    <path id="_130229968" class="fil3" d="M6.31808 12.9161c-0.597734,0 -1.14011,-0.0634714 -1.62382,-0.163439 -0.00478912,-0.00976999 -0.00951591,-0.0194489 -0.0142331,-0.0291278 0.432233,0.0762136 0.913945,0.124627 1.44059,0.124627 0.403187,0 0.832841,-0.0283847 1.28659,-0.0942579 0.679417,-0.0986443 1.28295,-0.262495 1.81241,-0.460033 0.0319418,0.0277232 0.0737304,0.0588405 0.126943,0.0888791 -0.516635,0.189839 -1.09947,0.344673 -1.75241,0.439429 -0.449439,0.0653698 -0.875296,0.0939271 -1.27607,0.0939223z"/>
    <path id="_130230064" class="fil8" d="M13.2906 9.2279c0.0567743,-0.0700822 0.105509,-0.138271 0.147221,-0.202984 0.0626516,-0.0132456 0.124215,-0.024914 0.184709,-0.0350099 -0.0325267,0.0630543 -0.0733229,0.133486 -0.12422,0.208377 -0.0681838,0.00869136 -0.137288,0.0185381 -0.207711,0.0296168z"/>
    <path id="_130230160" class="fil4" d="M3.36175 16.6762l-0.0109205 -0.0214288 -0.00877286 -0.0186243c-0.00537877,-0.0123299 -0.0104316,-0.0245736 -0.0148995,-0.0365728 -0.00893585,-0.0244969 -0.0163856,-0.0487445 -0.023006,-0.0734859 -0.0123299,-0.0491616 -0.0201057,-0.0991381 -0.0244969,-0.149287 -0.00736345,-0.100222 -0.000575269,-0.201512 0.0237538,-0.298416 0.010513,-0.0485767 0.0251537,-0.0962426 0.0429487,-0.142173l0.0282218 -0.0681071c0.0100145,-0.0223492 0.023006,-0.0435287 0.0343388,-0.0648808 0.0463475,-0.0855713 0.107916,-0.161368 0.177264,-0.225918 0.00918513,-0.00860987 0.0236627,-0.0081113 0.0322726,0.00107863 0.004885,0.00529248 0.00686968,0.0123299 0.00587734,0.0189503l-0.00033078 0.00231067c-0.00711896,0.0466783 -0.0191181,0.0892962 -0.0262371,0.133074 -0.00686488,0.0437732 -0.0153932,0.0856528 -0.0192811,0.128271 -0.00612182,0.04187 -0.00802501,0.0839126 -0.0111746,0.124877 -0.00247845,0.0202735 -0.000162993,0.0412948 -0.00123683,0.0614867 -0.00066156,0.0203502 -0.00174019,0.0404654 -0.000249283,0.0607389 0.00223396,0.0806815 0.0100145,0.159556 0.0204412,0.237179 0.00438643,0.0389697 0.0112561,0.0772922 0.0170471,0.115687l0.00984669 0.0566832c0.00132791,0.0096022 0.00297702,0.0186243 0.00463571,0.027565l0.00198468 0.0131545c0.000666354,0.00405565 0.0015724,0.00902214 0.000824553,0.00993298l-0.098884 0.124129c-0.0328575,0.0412948 -0.0930211,0.0480829 -0.134397,0.0152303 -0.010839,-0.00869136 -0.0196167,-0.0197797 -0.0255707,-0.0314529z"/>
    <path id="_130230256" class="fil4" d="M2.38134 16.4988l-0.0109493 -0.0214384 -0.00877286 -0.0186963c-0.00534042,-0.0122484 -0.0104028,-0.0244969 -0.0148899,-0.036496 -0.00889271,-0.0245784 -0.0163281,-0.0487397 -0.0229293,-0.0734859 -0.0123491,-0.0492383 -0.020144,-0.0992196 -0.0245113,-0.149287 -0.00743536,-0.100303 -0.000589651,-0.201507 0.0237155,-0.298498 0.0105562,-0.0484952 0.0251728,-0.0962426 0.0429726,-0.142173l0.0282122 -0.0680256c0.0100193,-0.0223444 0.023006,-0.0435287 0.0343196,-0.0649575 0.0463955,-0.0854898 0.10793,-0.161291 0.177255,-0.225923 0.00923307,-0.00860987 0.0236963,-0.0081113 0.0323062,0.00116013 0.00492335,0.00529727 0.00686488,0.0122484 0.00590131,0.018864l-0.000364337 0.00231546c-0.00711896,0.0467598 -0.0190941,0.0893777 -0.0262083,0.133156 -0.00688406,0.043778 -0.0153932,0.0856528 -0.0193195,0.128189 -0.00611703,0.0419563 -0.00800104,0.0839941 -0.0111458,0.124877 -0.00248804,0.0203549 -0.00022052,0.0413763 -0.00129915,0.0615682 -0.000642384,0.0203549 -0.0017354,0.0403839 -0.00019655,0.0607437 0.00224355,0.0806863 0.0100193,0.159465 0.0204077,0.237174 0.0044056,0.038893 0.0112705,0.0772922 0.0170471,0.115691l0.0099234 0.0566017c0.00128956,0.00959741 0.0029099,0.018701 0.00460695,0.0276417l0.00197989 0.0131545c0.000642384,0.00397415 0.00152926,0.00894064 0.000781408,0.00993298l-0.0988265 0.124129c-0.0329102,0.0412948 -0.0930642,0.0480829 -0.134383,0.0152303 -0.0109253,-0.00877286 -0.0196359,-0.0197797 -0.025633,-0.0314481z"/>
    <path id="_130230352" class="fil4" d="M3.74425 13.5395c0.000498567,0.0276273 -8.62904e-005,0.0575941 -0.00182169,0.0868081 -0.00181689,0.0294538 -0.00397415,0.059085 -0.00720046,0.0888743 -0.00579105,0.0596602 -0.0134038,0.119172 -0.0292141,0.182145l-0.000407482 0.0016539c-0.00604512,0.0240031 -0.0303742,0.0384855 -0.054291,0.0325267 -0.00926663,-0.00241134 -0.0171286,-0.00744974 -0.0229245,-0.0141516 -0.0450148,-0.0521434 -0.0748905,-0.109402 -0.100792,-0.16667 -0.0131593,-0.0287155 -0.0246647,-0.0577618 -0.0351729,-0.0869759 -0.0105083,-0.0294634 -0.0194441,-0.0582556 -0.0264816,-0.0894544l-0.000244489 -0.00124162c-0.0171334,-0.0759691 0.0306139,-0.15144 0.106583,-0.168573 0.0759739,-0.0171334 0.15144,0.0306187 0.168492,0.106588 0.00215247,0.00926184 0.0032263,0.0192811 0.00347559,0.028471z"/>
    <path id="_130230448" class="fil4" d="M15.9464 8.99164c0.0427138,0.020772 0.0759691,0.041381 0.112048,0.0635625 0.0351058,0.0224163 0.0690227,0.0463427 0.102455,0.0706718 0.066784,0.0489027 0.129263,0.103606 0.188348,0.161699 0.0588453,0.0583371 0.11271,0.12248 0.160126,0.190587 0.0471002,0.0685194 0.0863192,0.142748 0.114287,0.219959 0.00654848,0.0178717 -0.00273253,0.0375747 -0.0205227,0.0440273 -0.0128141,0.00471241 -0.0265631,0.00124162 -0.0357482,-0.00761273l-0.00248325 -0.00248325c-0.027891,-0.0273157 -0.050897,-0.0563572 -0.0801878,-0.0809356 -0.026146,-0.0265679 -0.0554464,-0.0503121 -0.0839989,-0.0739796 -0.0589124,-0.0458538 -0.118424,-0.0894592 -0.181478,-0.128434 -0.0627187,-0.0393149 -0.127446,-0.0750583 -0.192571,-0.10932 -0.0326801,-0.0170519 -0.0657916,-0.033102 -0.0988936,-0.0484137 -0.0319322,-0.0158918 -0.0680256,-0.0311988 -0.0959933,-0.0433609l-0.00297223 -0.00132791c-0.070993,-0.0310406 -0.103366,-0.113702 -0.0724216,-0.184705 0.0310502,-0.0710122 0.113788,-0.103362 0.184796,-0.072412 0.00158199,0.000738262 0.00364337,0.00174019 0.00521098,0.00247845z"/>
    <path id="_130230544" class="fil4" d="M4.14213 11.0195c-0.119666,0.308594 -0.49885,1.39458 -0.397391,2.52485 0.00488979,0.0547752 -0.0227567,0.107499 -0.0705903,0.13456 -0.0171286,0.00975561 -1.71358,0.984861 -1.49933,2.05752 0.0853412,0.427348 0.462574,0.739662 0.917315,0.75961 0.398719,0.0173731 1.0989,-0.0662087 2.17529,-0.564392 0.0184614,-0.00852357 0.038567,-0.0129052 0.058922,-0.0129052l15.5633 0c0.385392,0 0.729887,-0.200352 0.921462,-0.535921 0.188928,-0.330857 0.186857,-0.723109 -0.00562805,-1.04941 -0.287807,-0.487924 -1.01043,-0.97733 -1.74835,-1.43356 -0.819356,-0.506467 -1.31473,-1.38622 -1.32507,-2.35329 -0.025633,-2.37721 -0.343263,-3.89708 -0.894328,-4.27957 -0.14713,-0.102125 -0.311815,-0.118088 -0.503725,-0.0488212 -1.08366,0.391337 -1.30761,1.79362 -1.30471,2.90113 0.000182169,0.0492287 -0.0255659,0.0950009 -0.0677715,0.120409 -0.0421097,0.0254029 -0.094675,0.0269753 -0.138122,0.00380637 -0.00429055,-0.00223396 -0.461438,-0.238914 -1.18289,-0.298416 -0.663856,-0.0549526 -1.69581,0.0338498 -2.84163,0.767136 -2.15964,1.38208 -6.89139,1.3259 -7.65678,1.30728zm-0.946798 5.75922c-0.0391423,0 -0.0775415,-0.000829347 -0.115442,-0.00248325 -0.584162,-0.025657 -1.06942,-0.430656 -1.1801,-0.984861 -0.227164,-1.13755 1.20013,-2.09097 1.55853,-2.31043 -0.0956625,-1.3691 0.438681,-2.6076 0.461937,-2.66073 0.0230875,-0.0526419 0.0769615,-0.0855665 0.133232,-0.0838311 0.053548,0.00190318 5.36424,0.16667 7.59423,-1.26044 1.2179,-0.779385 2.32019,-0.870244 3.03047,-0.809174 0.487766,0.0418748 0.859491,0.157317 1.073,0.239662 0.0278958,-1.15865 0.322908,-2.53146 1.48751,-2.95202 0.279547,-0.101051 0.535005,-0.0733229 0.758939,0.0821772 0.80472,0.55851 0.996036,2.7592 1.01482,4.50698 0.00935292,0.870416 0.45499,1.66204 1.19216,2.11769 0.888216,0.549152 1.54147,1.01937 1.84245,1.52972 0.244298,0.414017 0.247102,0.911629 0.00760794,1.33094 -0.242136,0.424036 -0.677672,0.677183 -1.16502,0.677183l-15.5326 0c-0.838297,0.38497 -1.56472,0.579613 -2.16171,0.579613z"/>
    <path id="_130230640" class="fil0" d="M12.0749 12.891c-0.0736584,0.871576 -0.349812,1.81928 -1.20318,1.81928 -1.00778,0 -1.2318,-0.913777 -1.26201,-1.57539 -0.0169657,-0.375133 0.0285525,-0.669158 0.0285525,-0.669158 0,-4.79391e-006 0.934961,-0.988006 2.41552,-1.00274 4.79391e-006,0 0.0840756,0.68645 0.0211076,1.42801z"/>
    <path id="_130230736" class="fil1" d="M12.0749 12.891c-0.0736584,0.871576 -0.349812,1.81928 -1.20318,1.81928 -1.00778,0 -1.2318,-0.913777 -1.26201,-1.57539 0.529967,-0.351547 1.43008,-0.727912 2.46518,-0.24389z"/>
    <path id="_130230832" class="fil2" d="M12.0801 11.7626c-0.0123347,-0.185539 -0.0263234,-0.299648 -0.0263234,-0.299648 -0.0898667,0.000829347 -0.177926,0.00537877 -0.26366,0.0129915 0.00828388,-0.128108 0.115528,-0.207629 0.224681,-0.207629 0.0650486,-4.79391e-006 0.130754,0.0283033 0.176517,0.0914439 0.0509832,0.0703363 0.0965733,0.15864 0.1291,0.269451 -0.0803508,0.0413715 -0.16063,0.0858973 -0.240573,0.133477l0.000258871 -8.62904e-005z"/>
    <path id="_130230928" class="fil3" d="M11.0363 14.7263c-0.0710793,0 -0.145812,-0.00553697 -0.224432,-0.0171239 0.0196167,0.000738262 0.0396361,0.00107384 0.0599143,0.00107384 0.853369,0 1.12952,-0.947704 1.20317,-1.81928l4.79391e-006 -9.58782e-006c0.0373254,-0.439175 0.0230012,-0.858983 0.00520619,-1.12835 0.0797036,-0.0475029 0.159968,-0.0920191 0.240324,-0.133395 0.0242428,0.0823354 0.041127,0.177173 0.0476659,0.286244 0.0421193,0.708713 0.0513859,2.81084 -1.33185,2.81084zm-1.00058 -0.34195c-0.032939,-0.0316878 -0.0627331,-0.0663621 -0.0882224,-0.104095 0.0272342,0.0363187 0.0566017,0.0711656 0.0882224,0.104095z"/>
    <path id="_130231024" class="fil2" d="M12.0749 12.891c-0.129014,-0.0603266 -0.255966,-0.107321 -0.380263,-0.142576 0.0657916,-0.47278 0.0880498,-0.94349 0.0950009,-1.26184 9.10843e-005,-0.00356188 0.000249283,-0.00711416 0.000493773,-0.0105945 0.0857439,-0.00761753 0.173789,-0.0121622 0.26366,-0.0129915 4.79391e-006,0 0.0139838,0.114119 0.0263138,0.299653 0.0177998,0.269365 0.0321096,0.689182 -0.00521098,1.12836l4.79391e-006 -9.58782e-006z"/>
    <path id="_130231120" class="fil3" d="M10.8717 14.7102c-0.0202782,0 -0.0403072,-0.00033078 -0.0599191,-0.00107384 -0.000407482,-9.10843e-005 -0.000910843,-8.62904e-005 -0.00132312,-0.000167787 0,-4.79391e-006 -0.497354,-0.0575126 -0.774835,-0.324644 -0.0316063,-0.0329438 -0.0609881,-0.0677763 -0.0882128,-0.104105 -0.000407482,-0.000584857 -0.000743056,-0.00107863 -0.00107384,-0.0015724 0,-4.79391e-006 0.200678,0.054037 0.461352,0.054037 0.387875,0 0.908734,-0.119498 1.09973,-0.713756 0.085159,-0.264825 0.145069,-0.568198 0.187193,-0.870579 0.124297,0.0352544 0.251239,0.0822539 0.380258,0.142585l4.79391e-006 -9.58782e-006c-0.0736584,0.871576 -0.349812,1.81928 -1.20317,1.81928z"/>
    <path id="_130231216" class="fil4" d="M9.66336 12.4694c0.0157959,0.28286 0.0342525,0.561079 0.0785243,0.830281 0.0211939,0.134556 0.0482459,0.2668 0.084742,0.394328 0.0356667,0.127518 0.0828388,0.250247 0.145395,0.361053 0.0623161,0.11073 0.140275,0.208957 0.233372,0.286086 0.0927718,0.0778723 0.201095,0.132489 0.31753,0.168904 0.116775,0.0351633 0.245199,0.0466735 0.37066,0.0468365 0.0612374,-0.000503361 0.120653,-0.00910364 0.178003,-0.0225122 0.0573544,-0.0134086 0.11246,-0.0333464 0.164019,-0.0604896 0.209293,-0.104109 0.364035,-0.317036 0.467234,-0.557355 0.103697,-0.241896 0.166416,-0.509353 0.206968,-0.780377 0.0406428,-0.271767 0.0561894,-0.549075 0.0634714,-0.827046 0.00845167,-0.277735 0.0102638,-0.558515 0.0144009,-0.838057l9.10843e-005 -0.00248804c0.000575269,-0.0369898 0.0309447,-0.0665299 0.0679345,-0.0659498 0.0315296,0.000407482 0.0576803,0.0227567 0.0643007,0.0523016 0.126449,0.563716 0.128103,1.14135 0.0626468,1.71807 -0.0364098,0.28798 -0.0934333,0.578208 -0.208794,0.858249 -0.0580926,0.139436 -0.130337,0.277064 -0.228487,0.402267 -0.0967315,0.124963 -0.221368,0.23842 -0.370157,0.313397 -0.147873,0.0767122 -0.314634,0.112211 -0.474516,0.115111 -0.156655,-0.000258871 -0.312151,-0.0147317 -0.466654,-0.0614052 -0.15342,-0.0476754 -0.298991,-0.129431 -0.420229,-0.236182 -0.121727,-0.106669 -0.217725,-0.236843 -0.290137,-0.37405 -0.144321,-0.276077 -0.207049,-0.574814 -0.21971,-0.867434 -0.0032263,-0.0733229 -0.00290032,-0.146478 0.000575269,-0.219302 0.00290511,-0.0728243 0.0081113,-0.145232 0.0175457,-0.217227 0.0175505,-0.144081 0.0451826,-0.286 0.0912761,-0.424697 0.00447751,-0.0134949 0.0189551,-0.020772 0.0323589,-0.0163041 0.0102638,0.00347079 0.0169657,0.0127422 0.0175409,0.0228382l9.58782e-005 0.00115533z"/>
    <path id="_130231312" class="fil4" d="M10.4547 14.65c0.00240175,-0.0245784 0.00852357,-0.058246 0.013073,-0.088208l0.0152303 -0.0933518c0.0109205,-0.0625605 0.0197749,-0.125783 0.0287107,-0.189748 0.00463571,-0.0321192 0.00686968,-0.0641377 0.0110883,-0.0966596l0.00365296 -0.0487493c0.0018121,-0.0163856 0.00305372,-0.0328431 0.00354749,-0.0492287 0.00522057,-0.066295 0.00380637,-0.132413 0.00546506,-0.202754l4.79391e-006 -0.00199427c0.000412276,-0.0180299 0.0153885,-0.032263 0.0335094,-0.0318507 0.0111794,0.000244489 0.0210165,0.00628961 0.0266446,0.0149762 0.0393964,0.0609881 0.0727428,0.127609 0.0961611,0.197039 0.024751,0.0691761 0.0423734,0.141181 0.0532939,0.213919 0.012004,0.0727332 0.0167164,0.146478 0.0150625,0.220132 -0.00148611,0.0367357 -0.00388786,0.0736489 -0.00901735,0.110394 -0.00553697,0.0376514 -0.0112561,0.0713334 -0.0241661,0.113458 -0.0226704,0.0739796 -0.101046,0.11561 -0.175107,0.0928485 -0.0647897,-0.019866 -0.104771,-0.0825032 -0.098395,-0.147552l0.00124162 -0.0126703z"/>
    <path id="_130231408" class="fil4" d="M11.187 14.5535c0.00240175,-0.0245784 0.00843728,-0.0582508 0.0130682,-0.0882128l0.0152351 -0.093347c0.0109205,-0.0625605 0.0196886,-0.125783 0.0286244,-0.189753 0.004722,-0.0321144 0.00695597,-0.0640515 0.0110883,-0.0966596l0.00372487 -0.0487445c0.00182648,-0.0163856 0.00306331,-0.0328479 0.00356188,-0.0492335 0.00513428,-0.066295 0.00372008,-0.132413 0.00537877,-0.202754l8.14965e-005 -0.00190318c0.000421864,-0.0181258 0.0153932,-0.0323541 0.0334327,-0.0319418 0.0111746,0.000239696 0.0210213,0.00628961 0.0267309,0.014981 0.0394012,0.0610601 0.072738,0.127604 0.0960796,0.197035 0.0248277,0.0692624 0.0423686,0.141181 0.0532939,0.213924 0.012004,0.0727332 0.0167979,0.146473 0.015144,0.220127 -0.00148132,0.0367405 -0.00397415,0.0735674 -0.00910364,0.110394 -0.00546027,0.0376466 -0.0112561,0.0713334 -0.0240846,0.113458 -0.0226656,0.0739748 -0.101041,0.11561 -0.175107,0.0928485 -0.064876,-0.0198612 -0.104852,-0.0825032 -0.098395,-0.147552l0.00124642 -0.0126655z"/>
    <path id="_130231504" class="fil0" d="M5.15091 2.68458c-3.61601,1.49662 -4.09105,5.2546 -4.09105,5.2546 -0.543845,-1.06703 -0.824529,-2.15385 -0.95698,-3.12961 -0.122317,-0.903695 -0.117854,-1.71236 -0.0771436,-2.32259 0.0455661,-0.681828 0.634949,-1.20201 1.31655,-1.15782 1.29234,0.0834141 2.25193,0.429415 2.88458,0.751331 0.617935,0.313383 0.924041,0.60411 0.924041,0.604095z"/>
    <path id="_130231600" class="fil2" d="M0.786465 6.97475c-0.255933,-0.675692 -0.41895,-1.34567 -0.517311,-1.98039 0.132576,0.104665 0.294423,0.156981 0.456169,0.156981 0.00998572,-9.58782e-006 0.0199283,-0.000244489 0.0299092,-0.000575269 0.0610744,0.316532 0.144623,0.642753 0.256546,0.972282 -0.0926855,0.273411 -0.167787,0.557268 -0.225314,0.85171zm3.25587 -4.29275c-0.117432,-0.0663621 -0.254394,-0.136118 -0.4108,-0.20447 0.113295,-0.0813623 0.222529,-0.156406 0.326221,-0.225012 0.0846605,0.0385574 0.164599,0.0772107 0.239988,0.115528 0.0891284,0.0452497 0.171713,0.089953 0.247769,0.133319 -0.136128,0.0551923 -0.270937,0.115524 -0.403178,0.180635z"/>
    <path id="_130231696" class="fil7" d="M3.95775 2.25252c-0.625955,-0.285084 -1.50619,-0.562311 -2.64457,-0.635797 -0.0270616,-0.00174498 -0.0539123,-0.00256474 -0.0806671,-0.00256474 -0.370967,-1.43817e-005 -0.70843,0.166421 -0.937023,0.431812 0.187581,-0.347089 0.554267,-0.579282 0.966673,-0.579282 0.0236052,-1.43817e-005 0.0473591,0.00074785 0.071204,0.00232025 1.2146,0.078438 2.13232,0.396226 2.75248,0.700103 -0.0416207,0.0266398 -0.0844064,0.054454 -0.128103,0.0834093z"/>
    <path id="_130231792" class="fil9" d="M4.44551 2.50136c-0.0760554,-0.0433657 -0.158645,-0.0880402 -0.247769,-0.133304 -0.0753843,-0.0383321 -0.155332,-0.0769615 -0.239988,-0.115528 0.0436965,-0.0289744 0.0864774,-0.0567647 0.128103,-0.0834141 0.196958,0.0964823 0.363954,0.191574 0.500911,0.277146 -0.0472488,0.0177854 -0.0943346,0.0361605 -0.141257,0.0551012z"/>
    <path id="_130231888" class="fil5" d="M4.48143 3.15727c0,0 -0.908815,-0.862463 -2.75899,-0.982042 -0.493936,-0.0318603 -0.920743,0.345003 -0.953787,0.838887 -0.0614771,0.919304 -0.00965973,2.46112 0.749073,3.94971 0,-4.79391e-006 0.344097,-2.72229 2.96371,-3.80655z"/>
    <path id="_130231984" class="fil6" d="M1.1733 5.69867c-0.287021,-1.01142 -0.311945,-1.96914 -0.264739,-2.6752 0.0268315,-0.400953 0.360958,-0.709868 0.755827,-0.709868 0.0162082,-4.79391e-006 0.0326034,0.000498567 0.0490082,0.0015724 0.905364,0.0585097 1.58091,0.301724 2.02621,0.526568 -0.0545355,0.0307817 -0.108573,0.0623976 -0.162283,0.0950009 -0.398623,-0.157485 -0.919511,-0.296839 -1.56453,-0.338546 -0.0180587,-0.00116971 -0.0360119,-0.00174019 -0.0538644,-0.00174019 -0.432818,-4.79391e-006 -0.797477,0.338383 -0.826768,0.776321 -0.0351921,0.526218 -0.0299955,1.27343 0.145946,2.09278 -0.036496,0.0767074 -0.0714628,0.154503 -0.104814,0.233114z"/>
    <path id="_130232080" class="fil4" d="M1.66439 2.31359c-0.394874,0 -0.729005,0.308929 -0.755832,0.709873 -0.0599239,0.896308 -0.00356188,2.19838 0.557623,3.50085 0.073505,-0.282275 0.203377,-0.681315 0.425939,-1.12058 0.367381,-0.725098 1.06372,-1.6906 2.31936,-2.28055 -0.338546,-0.240242 -1.17181,-0.722284 -2.49808,-0.808019 -0.0164,-0.00109301 -0.0328047,-0.0015724 -0.0490082,-0.0015724zm-0.146761 4.79041c-0.0520044,0 -0.100624,-0.0290415 -0.124862,-0.0765396 -0.754773,-1.48082 -0.832113,-3.0049 -0.764068,-4.0227 0.0382267,-0.571353 0.532661,-1.00646 1.10281,-0.969473 1.87918,0.121487 2.80785,0.983624 2.8465,1.0202 0.0344299,0.0326801 0.0499813,0.0806 0.0412948,0.127355 -0.00860507,0.0466687 -0.0403839,0.0858206 -0.0842482,0.103942 -1.05122,0.43511 -1.85477,1.18695 -2.38807,2.23446 -0.40032,0.786412 -0.489295,1.45359 -0.490139,1.46021 -0.00784284,0.0610744 -0.0545068,0.109896 -0.115126,0.120409 -0.0080346,0.00139982 -0.0161219,0.00215247 -0.0240798,0.00214288z"/>
    <path id="_129936904" class="fil0" d="M6.7072 2.45866c3.89228,0.406653 5.41628,3.87449 5.41628,3.87449 0.217984,-1.17761 0.178089,-2.29942 0.0276417,-3.27261 -0.13968,-0.901121 -0.373882,-1.67512 -0.586478,-2.24861 -0.2375,-0.640697 -0.950522,-0.971846 -1.59137,-0.735707 -1.21533,0.447373 -2.03692,1.052 -2.5519,1.54049 -0.503308,0.476155 -0.714173,0.841945 -0.714163,0.84194z"/>
    <path id="_129937000" class="fil2" d="M12.1114 5.33082c-0.138865,-0.26589 -0.291633,-0.516707 -0.458221,-0.752476 0.0135812,-0.34775 0.00099234,-0.684297 -0.0305372,-1.00514 0.166507,-0.0422871 0.318196,-0.141588 0.421557,-0.288148 0.0862281,0.636545 0.120404,1.32532 0.0671915,2.04578zm-4.34197 -3.18995c-0.14573,-0.0248229 -0.291465,-0.0442622 -0.43802,-0.0584953 0.0606622,-0.0632413 0.127111,-0.129512 0.199604,-0.198199 0.0614052,-0.0581837 0.127029,-0.118007 0.197284,-0.178995 0.118927,0.0363091 0.244954,0.0771244 0.376701,0.122973 -0.130581,0.110059 -0.241891,0.215736 -0.335569,0.312716z"/>
    <path id="_129937096" class="fil7" d="M7.72831 1.70518c-0.0506477,-0.0154747 -0.099977,-0.0301106 -0.147974,-0.0439314 0.507373,-0.466999 1.29643,-1.03195 2.44118,-1.4535 0.124301,-0.045686 0.251656,-0.067364 0.377113,-0.067364 0.293282,-9.58782e-006 0.575802,0.118587 0.782031,0.325473 -0.198775,-0.127782 -0.432229,-0.198362 -0.672217,-0.198362 -0.14142,-4.79391e-006 -0.285171,0.0244969 -0.425527,0.0762184 -1.07051,0.394074 -1.83557,0.910215 -2.35461,1.36147z"/>
    <path id="_129937192" class="fil9" d="M7.33141 2.08237c-0.0505614,-0.0048802 -0.101626,-0.00917555 -0.152269,-0.0127374 0.10676,-0.121085 0.239657,-0.259763 0.401193,-0.408393 0.0480014,0.0138065 0.0973212,0.028471 0.147964,0.0439458 -0.07025,0.0609833 -0.135883,0.120821 -0.197284,0.178995 -0.0724887,0.068668 -0.138947,0.134973 -0.199604,0.19819z"/>
    <path id="_129937288" class="fil5" d="M7.48343 2.72148c0,0 0.626118,-1.08531 2.36595,-1.72591 0.46442,-0.171071 0.980806,0.0689364 1.15294,0.533021 0.320353,0.863863 0.709043,2.35677 0.404836,3.99961 4.79391e-006,0 -1.10395,-2.5121 -3.92373,-2.80672z"/>
    <path id="_129937384" class="fil6" d="M11.3777 4.21745c-0.0543678,-0.0658779 -0.109987,-0.1305 -0.166843,-0.193727 -0.0642959,-0.835574 -0.271762,-1.55347 -0.455062,-2.04793 -0.124134,-0.334673 -0.442162,-0.543203 -0.779797,-0.543203 -0.0946702,-1.43817e-005 -0.190836,0.0163856 -0.284763,0.0509785 -0.606507,0.223353 -1.06621,0.505134 -1.40368,0.76937 -0.0611511,-0.0160596 -0.122475,-0.0311173 -0.183966,-0.0452689 0.36206,-0.341533 0.940177,-0.766057 1.79421,-1.08052 0.0856528,-0.0316254 0.173453,-0.0465105 0.259849,-0.0465105 0.308344,-9.58782e-006 0.599555,0.190337 0.713176,0.496692 0.246038,0.663444 0.494458,1.58881 0.506879,2.64012z"/>
    <path id="_129937480" class="fil4" d="M7.73186 2.61192c1.37199,0.208468 2.31423,0.936213 2.87274,1.52708 0.338306,0.357818 0.576305,0.703497 0.727083,0.95325 0.167662,-1.40834 -0.148544,-2.67264 -0.460863,-3.51492 -0.145471,-0.392262 -0.582014,-0.594344 -0.973025,-0.450182 -1.25233,0.461189 -1.9113,1.15881 -2.16594,1.48478zm3.6753 3.05654c-0.0551156,0 -0.105763,-0.0325219 -0.128357,-0.0838311 -0.00264624,-0.00604512 -0.277644,-0.620409 -0.885062,-1.26052 -0.809174,-0.852636 -1.79321,-1.34493 -2.92488,-1.46318 -0.0472536,-0.00496649 -0.0887976,-0.0334327 -0.110313,-0.0757198 -0.0215966,-0.0422919 -0.0202782,-0.0926855 0.00339409,-0.133817 0.0266494,-0.0460935 0.6718,-1.13671 2.43894,-1.7875 0.535835,-0.19738 1.13382,0.0790276 1.33293,0.615941 0.354606,0.956381 0.713842,2.43952 0.411289,4.07384 -0.0112465,0.0605711 -0.0605759,0.106669 -0.121732,0.113788 -0.00545068,0.000656766 -0.010839,0.00099234 -0.016213,0.00099234z"/>
    <path id="_129937576" class="fil0" d="M13.0637 8.17791c0,0 0.275405,0.199197 0.469712,0.307357 0,0 -0.159302,0.733042 -1.07705,1.26085 0,-4.79391e-006 -0.409798,0.654589 -1.32664,1.34923 -0.81926,0.620486 -2.04338,1.27326 -3.74266,1.51987 -1.69928,0.246685 -3.05844,-0.031031 -4.0203,-0.393 -1.07655,-0.405253 -1.65553,-0.916256 -1.65553,-0.916256 -1.02994,-0.245132 -1.39106,-0.902607 -1.39106,-0.902607 0.155467,-0.158976 0.362928,-0.428173 0.362928,-0.428173 -0.332089,-0.274499 -0.533955,-0.750003 -0.533955,-0.750003 0.492076,-0.25356 0.638357,-0.570926 0.638357,-0.570926 -0.0160548,-0.923303 0.109948,-1.71948 0.332146,-2.4046 0.341744,-1.05249 0.909803,-1.8441 1.53661,-2.43605 1.81686,-1.7161 4.53402,-2.11057 6.76376,-0.981798 1.27012,0.642744 2.54131,1.85213 3.16801,4.10942 4.79391e-006,0 0.230472,0.262749 0.774332,0.365857 4.79391e-006,-4.79391e-006 -0.0583419,0.513251 -0.298656,0.870824z"/>
    <path id="_129937672" class="fil1" d="M11.1297 11.0953c-0.81927,0.620495 -2.04339,1.27327 -3.74267,1.51988 -1.69928,0.246685 -3.05844,-0.031031 -4.0203,-0.393 0.1747,-1.80794 1.56208,-3.3317 3.44003,-3.60429 1.87795,-0.272591 3.64137,0.793781 4.32294,2.47742z"/>
    <path id="_129937768" class="fil10" d="M4.1365 2.83187c0,0 0.0637207,0.976937 0.589047,2.0242 0.0196167,0.0391423 -0.0218506,0.0806048 -0.0608251,0.0607389 -0.269442,-0.137619 -0.917751,-0.574977 -1.13664,-1.67263 4.79391e-006,0 0.433053,-0.315377 0.608414,-0.4123z"/>
    <path id="_129937864" class="fil10" d="M5.87832 2.22189c0,0 -0.288071,0.0174786 -0.604191,0.152283 4.79391e-006,-9.58782e-006 0.415177,2.36869 1.01515,2.92347 0.0210213,0.0194345 0.0549478,0.0145687 0.0695932,-0.010096 0.41742,-0.702437 0.141929,-3.09138 0.141929,-3.09138 -0.341446,-0.0393916 -0.62248,0.0257337 -0.62248,0.0257193z"/>
    <path id="_129937960" class="fil10" d="M7.72161 2.31143c0,0 0.216723,0.954755 0.0108294,2.10819 -0.00769423,0.0431069 0.0438643,0.0710841 0.0755568,0.0408825 0.219216,-0.208554 0.716407,-0.812156 0.614206,-1.9267 4.79391e-006,-1.43817e-005 -0.504885,-0.179331 -0.700592,-0.222375z"/>
    <path id="_129938056" class="fil2" d="M3.38327 12.0784c-0.0409688,-0.0155562 -0.0807726,-0.0311892 -0.119503,-0.0468317 -0.939607,-0.378767 -1.45468,-0.826303 -1.45966,-0.830689 -0.0172533,-0.0152303 -0.0379774,-0.0259015 -0.0603266,-0.0312803 -0.739298,-0.176023 -1.1136,-0.5792 -1.24484,-0.752323 0.141147,-0.157149 0.287908,-0.347074 0.29518,-0.35659 0.0461893,-0.0598328 0.036568,-0.145562 -0.0216972,-0.193727 -0.206963,-0.171061 -0.362218,-0.434381 -0.439511,-0.583505 0.434789,-0.259768 0.5756,-0.556937 0.581866,-0.570428 0.00880642,-0.0191996 0.0132168,-0.0400483 0.0128477,-0.0611559 -0.0111986,-0.637293 0.0457147,-1.23552 0.170122,-1.79288 0.0116109,1.21334 0.340847,3.50077 2.46327,4.45998 -0.0830881,0.2447 -0.143002,0.498682 -0.177758,0.759442zm7.68964 -1.11628c-0.107417,-0.240151 -0.237179,-0.466563 -0.386303,-0.677509 1.76202,-1.52318 1.42727,-3.80969 1.09335,-4.97636 0.277817,0.499085 0.502402,1.05628 0.672878,1.67049 0.00570955,0.0203502 0.0158055,0.0391423 0.0297127,0.0550293 0.00984669,0.0111746 0.229393,0.256043 0.720046,0.381499 -0.0316925,0.164925 -0.105595,0.461519 -0.255381,0.684379 -0.0422008,0.0627235 -0.0270616,0.147633 0.0342621,0.19191 0.00967891,0.00702787 0.204317,0.147384 0.384314,0.257946 -0.0767889,0.203655 -0.32101,0.696378 -0.979487,1.07523 -0.0198564,0.0114095 -0.036659,0.0276369 -0.0489075,0.0470043 -0.00355229,0.00570475 -0.370162,0.581267 -1.16328,1.21153 -0.0326849,0.0259782 -0.0664532,0.0523016 -0.101204,0.0788598z"/>
    <path id="_129938152" class="fil3" d="M6.12071 12.5676c-1.15476,0 -2.08451,-0.240314 -2.73744,-0.489238 0.0347607,-0.260765 0.0946702,-0.514732 0.177758,-0.759442 0.608577,0.275079 1.36462,0.441002 2.30289,0.441002 0.423048,-4.79391e-006 0.883158,-0.0337635 1.38349,-0.106425 1.61008,-0.233694 2.70608,-0.735271 3.4392,-1.36893 0.149124,0.210942 0.278886,0.437358 0.386298,0.677514 -0.742888,0.567776 -1.96492,1.26151 -3.70608,1.51424l4.79391e-006 -4.79391e-006c-0.439846,0.0638837 -0.855771,0.0912857 -1.24612,0.0912761z"/>
    <path id="_129938248" class="fil7" d="M1.12789 6.73012c0.270894,-1.10676 0.813973,-2.04908 1.62447,-2.81448 0.246191,-0.232548 0.50943,-0.440258 0.785914,-0.622485 0.0135716,0.0633084 0.0286292,0.124383 0.0449333,0.183219 -0.309413,0.197687 -0.60328,0.425939 -0.876629,0.684216 -0.626814,0.591856 -1.19488,1.38349 -1.53662,2.43597 -0.0142811,0.0440129 -0.0283272,0.0885435 -0.0420714,0.133563zm10.4033 -1.83187c-0.612063,-0.8124 -1.34212,-1.35584 -2.06085,-1.71954 -0.335651,-0.169896 -0.682063,-0.3052 -1.03501,-0.406739 -0.00106904,-0.0610744 -0.00405565,-0.123889 -0.00902214,-0.188434 0.316954,0.0961515 0.628357,0.220458 0.930493,0.373307 0.892837,0.451826 1.61951,1.10146 2.17437,1.94142zm-7.29788 -1.45036c-0.0483274,-0.222859 -0.0734859,-0.399203 -0.0859021,-0.50513 0.369668,-0.183727 0.756542,-0.326628 1.15302,-0.427593 0.0211891,0.10932 0.054617,0.275324 0.0990566,0.473691 -0.153343,0.110639 -0.362214,0.220707 -0.601459,0.309993 -0.201258,0.0751398 -0.3959,0.125044 -0.564718,0.149043zm3.5395 -0.825977c-0.324811,-0.0541281 -0.652528,-0.0810123 -0.97941,-0.0810123 -0.0863863,-4.79391e-006 -0.172705,0.00190318 -0.258938,0.00562805 -0.00686009,-0.0818608 -0.0134038,-0.152101 -0.0187825,-0.207797 0.0756383,-0.0029147 0.15144,-0.00438643 0.227327,-0.00438643 0.333666,-1.43817e-005 0.668324,0.028634 0.999674,0.0864774 0.00885435,0.0510504 0.0195304,0.118836 0.0301297,0.20109z"/>
    <path id="_129938344" class="fil11" d="M3.58321 3.47638c-0.0163089,-0.0588357 -0.0313714,-0.11991 -0.0449381,-0.183219 0.19679,-0.129762 0.400114,-0.246522 0.609153,-0.350382 0.0124162,0.105921 0.0375747,0.28228 0.0859021,0.505134 -0.077786,0.011002 -0.150117,0.0165534 -0.215079,0.0165534 -0.0934285,-4.79391e-006 -0.171718,-0.0114239 -0.229317,-0.0346744 -0.0206857,-0.00828388 -0.0425316,-0.0124977 -0.0642144,-0.0124977 -0.0304557,-1.43817e-005 -0.0605807,0.00819279 -0.0871437,0.0247462 -0.018121,0.0113232 -0.0363283,0.0227567 -0.054363,0.0343388z"/>
    <path id="_129938440" class="fil11" d="M5.3995 2.98886c-0.0444348,-0.198358 -0.0778723,-0.364352 -0.0990566,-0.473672 0.397717,-0.101291 0.805118,-0.160462 1.21525,-0.17643 0.00537877,0.0556861 0.0119177,0.125955 0.0187825,0.207797 -0.254552,0.0110691 -0.508279,0.0383992 -0.759106,0.0816787 -0.0532076,0.00917555 -0.100135,0.0433609 -0.121732,0.092767 -0.035916,0.0817554 -0.125538,0.175026 -0.25414,0.26786z"/>
    <path id="_129938536" class="fil11" d="M8.43536 2.77198c-0.218799,-0.0629009 -0.440009,-0.112877 -0.662533,-0.150035 -0.0105898,-0.0822683 -0.0212706,-0.150035 -0.0301249,-0.201095 0.229902,0.0401202 0.458044,0.0942579 0.683636,0.162696 0.00497129,0.0645356 0.00794351,0.12736 0.00902214,0.188434z"/>
    <path id="_129938632" class="fil4" d="M1.61416 11.4072c-0.0340895,-0.0379917 -0.0640898,-0.0764629 -0.094138,-0.116435 -0.0301777,-0.0393916 -0.0584905,-0.0805185 -0.0861082,-0.122393 -0.0275506,-0.0417981 -0.0539603,-0.0846605 -0.0781695,-0.129594 -0.0238929,-0.0450196 -0.0471769,-0.0907823 -0.0640227,-0.141094 -0.00690803,-0.0207001 0.00424261,-0.0431164 0.0249475,-0.0499861 0.0131593,-0.00447272 0.0270185,-0.00149091 0.0371384,0.0065389l0.00143338 0.00115533c0.0370761,0.0298709 0.0749576,0.0590898 0.113242,0.0878868l0.114598 0.0866404 0.114071 0.0870526c0.037661,0.0289648 0.0759404,0.0587638 0.1113,0.0879779 0.0598855,0.0494013 0.0683516,0.138036 0.018912,0.19795 -0.0494348,0.0599095 -0.138074,0.0683516 -0.197974,0.0189503 -0.00525413,-0.00438643 -0.0107719,-0.0097652 -0.0152303,-0.0146502z"/>
    <path id="_129938728" class="fil4" d="M12.3343 9.67694c0.0255707,-0.0380685 0.0538692,-0.0775415 0.0816787,-0.115941l0.0846605 -0.115941 0.0852405 -0.11561c0.0284615,-0.0384759 0.0565106,-0.0773689 0.0834908,-0.116511l0.000910843 -0.00133271c0.012421,-0.0179484 0.0370761,-0.0224211 0.0550293,-0.0100049 0.0114287,0.00785243 0.0173779,0.020935 0.0170471,0.033845 -0.0018121,0.0530398 -0.0111698,0.103443 -0.0212658,0.153511 -0.010422,0.049895 -0.0235813,0.0984813 -0.0380685,0.146478 -0.0146358,0.0479056 -0.0300386,0.0954132 -0.0478336,0.141837 -0.0173683,0.0468317 -0.0352496,0.0921917 -0.0570955,0.13828 -0.0331787,0.0701733 -0.117015,0.100222 -0.187274,0.0670381 -0.0701685,-0.0332793 -0.100135,-0.117101 -0.0669518,-0.187279 0.00290032,-0.00621291 0.00678818,-0.0128237 0.0104316,-0.0183703z"/>
    <path id="_129938824" class="fil4" d="M7.36683 12.4764l0.020192 0.138784 -0.020192 -0.138784c1.82267,-0.264571 3.07648,-1.01234 3.80729,-1.5931 0.793124,-0.630265 1.15972,-1.20582 1.16328,-1.21153 0.012258,-0.0193674 0.0290463,-0.0355852 0.0489075,-0.0470043 0.658477,-0.378853 0.902689,-0.871576 0.979487,-1.07523 -0.179992,-0.110562 -0.374635,-0.250913 -0.384314,-0.257946 -0.0613141,-0.0442814 -0.0764677,-0.129182 -0.0342621,-0.19191 0.149786,-0.222859 0.223684,-0.519449 0.255381,-0.684379 -0.490652,-0.125457 -0.710199,-0.370325 -0.720046,-0.381499 -0.0139023,-0.0158918 -0.0240031,-0.0346744 -0.0297127,-0.0550293 -0.525988,-1.89518 -1.56762,-3.24837 -3.09601,-4.02188 -2.17669,-1.10156 -4.83088,-0.716325 -6.60447,0.958797 -1.24536,1.1761 -1.8593,2.76955 -1.82473,4.73621 0.000369131,0.0211028 -0.00404606,0.0419611 -0.0128477,0.0611559 -0.00626564,0.0134901 -0.147082,0.310665 -0.581866,0.570428 0.0772922,0.149124 0.232548,0.412449 0.439511,0.583505 0.05827,0.0481596 0.0678818,0.133899 0.0216972,0.193727 -0.00727236,0.00951591 -0.154033,0.199441 -0.29518,0.35659 0.131243,0.173118 0.505542,0.576305 1.24484,0.752323 0.022354,0.00537397 0.0430733,0.01605 0.0603266,0.0312803 0.00497608,0.00438643 0.520048,0.451922 1.45966,0.830689 0.86578,0.348978 2.28055,0.709374 4.10306,0.444808zm-1.2462 0.371816c-1.27715,0 -2.29032,-0.284428 -2.97437,-0.561655 -0.867386,-0.351461 -1.37919,-0.75158 -1.50038,-0.852123 -1.05306,-0.262663 -1.43278,-0.934635 -1.44861,-0.963432 -0.0296887,-0.0540418 -0.0205611,-0.121233 0.0225506,-0.165424 0.0895886,-0.0918657 0.199417,-0.224432 0.272347,-0.315128 -0.292711,-0.293042 -0.464161,-0.691829 -0.47208,-0.710453 -0.028682,-0.0675318 -0.000445834,-0.145812 0.0648137,-0.179407 0.360723,-0.185961 0.517421,-0.408067 0.561746,-0.481304 -0.0275554,-2.03163 0.616008,-3.6825 1.91314,-4.90751 1.85942,-1.75598 4.64171,-2.1599 6.92366,-1.00505 1.59188,0.805617 2.67835,2.20557 3.22958,4.16107 0.0624023,0.0567599 0.275822,0.225755 0.675361,0.301556 0.0721675,0.0137298 0.121483,0.0806863 0.113208,0.153592 -0.00231546,0.0201009 -0.0532939,0.45126 -0.250664,0.815382 0.0957536,0.0662039 0.238746,0.162116 0.350799,0.224758 0.053874,0.0300339 0.0816787,0.0918609 0.0686009,0.152188 -0.00694638,0.0320185 -0.179987,0.78427 -1.11487,1.33549 -0.0876279,0.130835 -0.464501,0.659968 -1.19613,1.24356 -0.759183,0.605591 -2.06108,1.38515 -3.95211,1.65964 -0.453739,0.0658731 -0.883408,0.0942579 -1.28659,0.0942579z"/>
    <path id="_129938920" class="fil2" d="M9.02382 8.92196c-0.169067,-0.0750535 -0.343599,-0.138769 -0.522843,-0.190328 0.076717,-0.0810986 0.155994,-0.184211 0.237174,-0.313306 4.79391e-006,0 0.221949,0.19389 0.285669,0.503634z"/>
    <path id="_129939016" class="fil3" d="M7.07313 11.1124c-0.987594,0 -1.40857,-0.797745 -1.40857,-0.797745 -0.58433,-0.405095 -0.335325,-1.05231 -0.335325,-1.05231 0.278967,0.161282 0.495868,0.223684 0.664685,0.223684 0.374467,-9.10843e-005 0.511923,-0.307434 0.562316,-0.525326 0.0758876,0.0290415 0.163607,0.046755 0.264403,0.046755 0.0747323,0 0.156737,-0.0097652 0.246527,-0.0319418 0.21086,-0.0522297 0.351538,-0.145073 0.444971,-0.251493 0.107086,0.123966 0.277726,0.268459 0.491481,0.268459 0.14747,0 0.31554,-0.068855 0.497354,-0.260846 0.179244,0.0515585 0.353771,0.115279 0.522843,0.190337 0.0340128,0.165419 0.0229245,0.363954 -0.0911946,0.583587 4.79391e-006,-4.79391e-006 -0.000249283,1.20706 -1.35246,1.54188 -0.18329,0.0453456 -0.352118,0.0649575 -0.507033,0.0649527z"/>
    <path id="_129939112" class="fil4" d="M6.85525 8.11966c0,0 -0.349644,0.0827525 -0.589052,0.234691 -0.103194,0.0655328 -0.132077,0.202912 -0.0662902,0.305943 0.11909,0.186363 0.376619,0.436697 0.867271,0.315214 0.490652,-0.121569 0.601626,-0.463097 0.619997,-0.683473 0.010096,-0.121813 -0.079531,-0.229811 -0.201426,-0.239571 -0.282596,-0.0227663 -0.630505,0.0671963 -0.6305,0.0671963z"/>
    <path id="_129939208" class="fil4" d="M7.16325 8.76324l0.0133223 0.0319418 0.0162993 0.0357626c0.011678,0.0238305 0.0240031,0.0474981 0.036496,0.0710026 0.0253262,0.0469132 0.054617,0.0912761 0.084905,0.133731 0.0615778,0.0845694 0.133736,0.157149 0.213674,0.212346 0.160054,0.110303 0.356423,0.142255 0.563395,0.102614 0.0257433,-0.00512949 0.0516352,-0.00935292 0.077043,-0.0168794 0.0258248,-0.0063759 0.0512229,-0.0132456 0.0753891,-0.0220951 0.0501539,-0.0146502 0.0957488,-0.0354174 0.140021,-0.0574311 0.0427042,-0.0237538 0.0823402,-0.0506477 0.117264,-0.0815157 0.0341806,-0.0317021 0.0630591,-0.067364 0.0882991,-0.106257 0.101794,-0.154839 0.123055,-0.382655 0.10932,-0.616689l-0.000249283 -0.00413715c-0.00131833,-0.0229197 0.0161363,-0.0426994 0.0391423,-0.0440225 0.0150625,-0.000915637 0.028797,0.00637111 0.0367405,0.017958 0.0756479,0.109891 0.117432,0.234192 0.134642,0.369414 0.015561,0.13423 -0.00363858,0.282361 -0.0713334,0.4151 -0.0331739,0.0662854 -0.0782846,0.126617 -0.129263,0.180074 -0.051966,0.0524598 -0.109814,0.0969041 -0.170304,0.135136 -0.122389,0.0743056 -0.251412,0.119253 -0.383407,0.147801 -0.0661991,0.0149762 -0.135217,0.0232553 -0.204983,0.0278862 -0.0703315,0.00181689 -0.141674,0 -0.212845,-0.013073 -0.142082,-0.0225985 -0.281944,-0.0798618 -0.39788,-0.164019 -0.0582556,-0.0417981 -0.111554,-0.0888791 -0.159637,-0.13969 -0.0475748,-0.0512325 -0.0892914,-0.106257 -0.126698,-0.163108 -0.0375651,-0.0568606 -0.0693439,-0.116521 -0.0971534,-0.177509 -0.013979,-0.030542 -0.0267309,-0.0615682 -0.0380685,-0.093347l-0.0162993 -0.048337c-0.00545547,-0.0172868 -0.0096022,-0.0310262 -0.0154747,-0.0534521 -0.020192,-0.076971 0.025983,-0.155745 0.102944,-0.175855 0.0704274,-0.0184566 0.142341,0.0186196 0.169484,0.0840804l0.00521578 0.0125696z"/>
    <path id="_129939304" class="fil4" d="M7.16566 8.77309c0.00529727,0.0225937 0.00793872,0.0366638 0.0112465,0.0545403l0.00811609 0.0503073c0.0048035,0.0334327 0.00802501,0.0667888 0.00992819,0.100303 0.00381116,0.0670333 0.00355708,0.13456 -0.00314481,0.202337 -0.00652931,0.0677715 -0.0177087,0.135965 -0.035916,0.203497 -0.0188688,0.0672682 -0.0440273,0.133812 -0.0760554,0.197945 -0.0633036,0.12852 -0.160208,0.244461 -0.275405,0.33077 -0.0567647,0.0447703 -0.118999,0.079694 -0.18214,0.110811 -0.0638885,0.0284615 -0.128764,0.0533754 -0.194307,0.0710026 -0.130088,0.0363235 -0.265146,0.0567695 -0.408063,0.0481596 -0.0713334,-0.00562805 -0.143252,-0.0178717 -0.213674,-0.0400531 -0.0700103,-0.0234998 -0.138117,-0.0558587 -0.198362,-0.0989751 -0.121813,-0.0858206 -0.207878,-0.207874 -0.256704,-0.333829 -0.0479056,-0.127614 -0.0690179,-0.257117 -0.0533802,-0.389529 0.00273732,-0.0229245 0.0234231,-0.0392238 0.0462612,-0.0365728 0.0149858,0.00181689 0.0272294,0.0113328 0.0330205,0.0240798l0.00174019 0.00388786c0.0970719,0.213339 0.222193,0.404918 0.384476,0.494377 0.040475,0.0225937 0.082671,0.040801 0.127604,0.0528001 0.04536,0.0109972 0.0929348,0.0162993 0.141761,0.0174594 0.0494923,-0.00124642 0.0994737,-0.00413715 0.150697,-0.0145639 0.025494,-0.00348038 0.0511414,-0.00926663 0.07688,-0.0156377 0.0260741,-0.00522057 0.0508922,-0.0135764 0.0760506,-0.0210213 0.201594,-0.0614915 0.360397,-0.181402 0.450513,-0.353695 0.0449381,-0.0860651 0.0748953,-0.183966 0.0898763,-0.287491 0.00695597,-0.05164 0.0121622,-0.104603 0.0126607,-0.157897 0.000167787,-0.0265631 0,-0.0532891 -0.000829347,-0.0797707l-0.00223396 -0.0392334 -0.00314481 -0.0345114 -0.00123683 -0.013562c-0.00719566,-0.0792002 0.0511367,-0.149373 0.130337,-0.156655 0.0724983,-0.00662519 0.13737,0.041707 0.153429,0.11072z"/>
    <path id="_129939400" class="fil4" d="M8.55295 9.32415c0,0 0.0500676,0.407741 -0.113208,0.816298 -0.127111,0.318522 -0.383733,0.637873 -0.894908,0.764404 -0.511093,0.12653 -0.887132,-0.0361605 -1.14814,-0.258608 -0.334994,-0.285094 -0.480973,-0.669072 -0.480973,-0.669072 4.79391e-006,0 1.19572,0.142672 1.11802,-1.13679 0.528227,1.16791 1.5192,0.483782 1.51921,0.483773z"/>
    <path id="_129939496" class="fil12" d="M8.43974 10.1404c-0.127111,0.318527 -0.383733,0.637878 -0.894908,0.764408 -0.511093,0.12653 -0.887132,-0.0361605 -1.14814,-0.258608 4.79391e-006,-4.79391e-006 0.703248,-1.24264 2.04305,-0.505801z"/>
    <path id="_129939592" class="fil4" d="M6.14728 10.1207c0.176018,0.303459 0.602039,0.832429 1.36288,0.643913 0.761024,-0.188434 0.890853,-0.854769 0.904923,-1.2054 -0.185865,0.0789461 -0.468226,0.155002 -0.762994,0.0730736 -0.193065,-0.0536247 -0.361969,-0.165673 -0.505134,-0.334581 -0.0478336,0.216234 -0.144906,0.394165 -0.290636,0.531621 -0.222524,0.209945 -0.507781,0.274413 -0.709039,0.291374zm1.04908 0.972944c-0.997273,0.000162993 -1.41097,-1.05338 -1.41544,-1.06537 -0.017958,-0.0471769 -0.00993298,-0.100303 0.0211028,-0.140188 0.0311173,-0.0397271 0.0808493,-0.0604944 0.130917,-0.054454 0.00414194,0.00041707 0.449271,0.0475029 0.726584,-0.215573 0.173703,-0.164853 0.251076,-0.423542 0.230055,-0.769039 -0.00421864,-0.0695165 0.0417933,-0.132159 0.109402,-0.148875 0.0676181,-0.0168027 0.137542,0.0171286 0.166253,0.0806 0.14259,0.315372 0.331849,0.508116 0.56224,0.572911 0.368426,0.103443 0.739993,-0.146061 0.743632,-0.148626 0.0416255,-0.028308 0.0951687,-0.033102 0.141094,-0.0123299 0.045849,0.0207672 0.0777908,0.0638022 0.0838311,0.11387 0.00174498,0.0141468 0.158971,1.42247 -1.11644,1.73834 -0.136296,0.0336772 -0.263991,0.0487397 -0.383235,0.0487349z"/>
    <path id="_129939688" class="fil4" d="M3.62715 8.0753c0.106919,0.576636 0.549569,0.977996 0.988668,0.896567 0.439098,-0.0815157 0.708296,-0.614949 0.601296,-1.19158 -0.107,-0.576554 -0.54966,-0.977991 -0.988672,-0.896476 -0.439094,0.0814294 -0.708296,0.614862 -0.601291,1.19149z"/>
    <path id="_129939784" class="fil1" d="M4.34877 7.74255c0.0312803,0.16841 0.160539,0.285674 0.288809,0.261839 0.128271,-0.0237538 0.206886,-0.179575 0.175606,-0.347985 -0.031194,-0.168401 -0.160543,-0.285669 -0.288732,-0.261915 -0.128261,0.0238257 -0.206886,0.179661 -0.175682,0.348062z"/>
    <path id="_129939880" class="fil4" d="M9.49544 6.36849c-0.118251,0.0603266 -0.237179,0.127772 -0.345588,0.200184 -0.109066,0.072901 -0.210194,0.1526 -0.30205,0.238746 -0.0472488,0.0419515 -0.0882991,0.0890421 -0.131248,0.133899l-0.0583419 0.072158c-0.00934813,0.0123299 -0.0201967,0.0235045 -0.0289648,0.0361653l-0.0260645 0.0380637c-0.0739892,0.0988073 -0.126372,0.210865 -0.177432,0.323742l-0.266215 -0.205151c0.0105898,-0.00712375 0.0172916,-0.0110883 0.0246551,-0.0155562 0.00745453,-0.00464051 0.0145639,-0.00877286 0.0215151,-0.0124977 0.0140749,-0.00778052 0.0283033,-0.0155562 0.0422056,-0.0221766 0.027891,-0.0144009 0.0561079,-0.0266494 0.0842434,-0.0390608 0.056362,-0.0241709 0.114287,-0.0431979 0.172629,-0.0599143 0.116765,-0.0329438 0.237673,-0.0503121 0.358244,-0.0512229 0.120322,-0.000498567 0.240817,0.0117499 0.354687,0.0457627 0.114944,0.0281355 0.221613,0.0803555 0.320094,0.13853 0.0288833,0.0169609 0.0383944,0.0541233 0.0214336,0.0829203 -0.0126607,0.021424 -0.0364146,0.0321911 -0.059665,0.0293771l-0.00720046 -0.000997134c-0.0534569,-0.00662039 -0.104023,-0.0186963 -0.155577,-0.023912 -0.0517982,-0.00422344 -0.101957,-0.0114191 -0.152768,-0.0109205 -0.100869,-0.00331739 -0.200098,0.00521098 -0.296508,0.0225889 -0.0965686,0.01605 -0.190587,0.0434472 -0.280621,0.0789461 -0.0225937,0.00843728 -0.0444396,0.0188688 -0.0667025,0.0280588l-0.064713 0.031194c-0.0209398,0.0111698 -0.0421241,0.0220136 -0.0618175,0.0340991 -0.010259,0.00578146 -0.0195304,0.0119129 -0.0289648,0.0179532 -0.00479391,0.00297702 -0.00943442,0.00579584 -0.0134038,0.00860987l-0.00959741 0.00662039 -0.00381116 0.00255515c-0.079857,0.0547081 -0.188928,0.0342717 -0.243631,-0.0456716 -0.0335861,-0.0490801 -0.0383944,-0.110313 -0.018864,-0.162034 0.0555279,-0.143918 0.120322,-0.287572 0.215573,-0.411289 0.0425412,-0.0654657 0.0985628,-0.120078 0.149704,-0.178003 0.0571818,-0.0519804 0.112379,-0.106094 0.175687,-0.14946 0.122973,-0.0911179 0.257366,-0.16377 0.397967,-0.21483 0.141516,-0.0504032 0.284763,-0.0832511 0.438106,-0.0855665 0.0336868,-0.000503361 0.0613189,0.0263953 0.0618127,0.0599958 0.00041707,0.0239983 -0.0131545,0.0449381 -0.033102,0.0551971l-0.00570475 0.00289552z"/>
    <path id="_129939976" class="fil13" d="M6.61161 8.56297c-0.0546218,0 -0.0937689,-0.0137298 -0.102206,-0.0404606 -0.015144,-0.0474262 0.0726565,-0.117758 0.196129,-0.157068 0.0541233,-0.0172964 0.106094,-0.0256522 0.148707,-0.0256522 0.0545451,-4.79391e-006 0.0936826,0.0138208 0.102206,0.0404654 0.0151488,0.0474981 -0.0727428,0.117844 -0.196133,0.157068 -0.0541952,0.0172868 -0.106171,0.0256522 -0.148702,0.0256474z"/>
   </g>
   <path id="_129175576" class="fil14 str0" d="M31.1705 12.3583c-0.54989,0 -1.08361,-0.0679297 -1.60115,-0.203784 -0.517546,-0.135855 -0.938049,-0.316993 -1.26151,-0.543419l0.630754 -1.41677c0.304059,0.200548 0.656636,0.362281 1.05773,0.485197 0.401097,0.122916 0.795722,0.184374 1.18388,0.184374 0.7375,0 1.10625,-0.184374 1.10625,-0.553126 0,-0.194077 -0.105126,-0.338019 -0.315377,-0.431821 -0.210251,-0.0938073 -0.54827,-0.192461 -1.01406,-0.295971 -0.511074,-0.109977 -0.938049,-0.228042 -1.28092,-0.354193 -0.34287,-0.126152 -0.637226,-0.328316 -0.883058,-0.606497 -0.245832,-0.278176 -0.368748,-0.653396 -0.368748,-1.12565 0,-0.414036 0.113213,-0.787635 0.339634,-1.12081 0.226426,-0.333167 0.56445,-0.596789 1.01406,-0.790871 0.449616,-0.194077 1.00112,-0.291115 1.65452,-0.291115 0.44638,0 0.886294,0.0501347 1.31973,0.150414 0.433446,0.100274 0.815133,0.247447 1.14506,0.441529l-0.591938 1.42647c-0.646929,-0.349337 -1.27445,-0.524008 -1.88256,-0.524008 -0.381691,0 -0.659868,0.0566065 -0.834538,0.169815 -0.174676,0.113213 -0.262006,0.260391 -0.262006,0.441534 0,0.181138 0.103505,0.316993 0.310526,0.407564 0.207015,0.0905714 0.540183,0.184374 0.999502,0.281412 0.517546,0.109977 0.946136,0.228042 1.28577,0.354193 0.339639,0.126152 0.63399,0.3267 0.883062,0.601645 0.249063,0.274945 0.373599,0.648544 0.373599,1.1208 0,0.407569 -0.113213,0.776316 -0.339639,1.10625 -0.226426,0.329936 -0.56606,0.593558 -1.01891,0.790871 -0.452852,0.197313 -1.00274,0.295971 -1.64967,0.295971zm6.49193 -0.0485192c-0.582235,0 -1.10302,-0.116449 -1.56234,-0.349342 -0.459319,-0.232893 -0.816743,-0.556362 -1.07228,-0.970393 -0.255535,-0.414036 -0.383307,-0.883058 -0.383307,-1.40707 0,-0.524013 0.127772,-0.991419 0.383307,-1.40222 0.255539,-0.4108 0.612964,-0.731028 1.07228,-0.960685 0.459319,-0.229662 0.980101,-0.34449 1.56234,-0.34449 0.595174,0 1.10948,0.127767 1.54293,0.383307 0.433442,0.255535 0.740731,0.609728 0.921869,1.06258l-1.42648 0.727792c-0.23936,-0.472258 -0.588702,-0.708387 -1.04803,-0.708387 -0.329931,0 -0.603256,0.109977 -0.819979,0.329931 -0.216723,0.219959 -0.32508,0.524013 -0.32508,0.912171 0,0.39463 0.108357,0.703535 0.32508,0.926725 0.216723,0.22319 0.490048,0.334788 0.819979,0.334788 0.459324,0 0.808666,-0.236129 1.04803,-0.708387l1.42648 0.727792c-0.181138,0.452852 -0.488428,0.807045 -0.921869,1.06258 -0.433442,0.255535 -0.947752,0.383307 -1.54293,0.383307zm5.80295 0c-0.562829,0 -1.07067,-0.116449 -1.52351,-0.349342 -0.452852,-0.232893 -0.807045,-0.556362 -1.06258,-0.970393 -0.255539,-0.414036 -0.383307,-0.883058 -0.383307,-1.40707 0,-0.517541 0.127767,-0.983332 0.383307,-1.39737 0.255535,-0.414031 0.608112,-0.73588 1.05773,-0.965537 0.449616,-0.229662 0.95907,-0.34449 1.52837,-0.34449 0.569296,0 1.08037,0.114829 1.53322,0.34449 0.452847,0.229657 0.805425,0.549886 1.05773,0.960685 0.252304,0.4108 0.378455,0.878206 0.378455,1.40222 0,0.524013 -0.126152,0.993035 -0.378455,1.40707 -0.252304,0.414031 -0.604881,0.7375 -1.05773,0.970393 -0.452852,0.232893 -0.963926,0.349342 -1.53322,0.349342zm0 -1.46529c0.323464,0 0.588707,-0.111597 0.795722,-0.334788 0.20702,-0.22319 0.310526,-0.532095 0.310526,-0.926725 0,-0.388158 -0.103505,-0.692212 -0.310526,-0.912171 -0.207015,-0.219954 -0.472258,-0.329931 -0.795722,-0.329931 -0.323464,0 -0.588707,0.109977 -0.795722,0.329931 -0.207015,0.219959 -0.310526,0.524013 -0.310526,0.912171 0,0.39463 0.10351,0.703535 0.310526,0.926725 0.207015,0.22319 0.472258,0.334788 0.795722,0.334788zm7.45262 1.16447c-0.155265,0.0970384 -0.34449,0.171435 -0.567681,0.22319 -0.22319,0.0517551 -0.460935,0.0776326 -0.713238,0.0776326 -0.685745,0 -1.21299,-0.168204 -1.58174,-0.504602 -0.368748,-0.336408 -0.553122,-0.837774 -0.553122,-1.50411l0 -1.76612 -0.766614 0 0 -1.37796 0.766614 0 0 -1.36825 1.84374 0 0 1.36825 1.20329 0 0 1.37796 -1.20329 0 0 1.74671c0,0.18761 0.0501395,0.334788 0.150414,0.441529 0.100274,0.106741 0.234509,0.160117 0.402713,0.160117 0.213482,0 0.401097,-0.054991 0.562829,-0.164968l0.456083 1.29062zm4.33766 0c-0.15526,0.0970384 -0.34449,0.171435 -0.567681,0.22319 -0.22319,0.0517551 -0.460935,0.0776326 -0.713238,0.0776326 -0.685745,0 -1.21299,-0.168204 -1.58174,-0.504602 -0.368748,-0.336408 -0.553122,-0.837774 -0.553122,-1.50411l0 -1.76612 -0.766614 0 0 -1.37796 0.766614 0 0 -1.36825 1.84375 0 0 1.36825 1.20329 0 0 1.37796 -1.20329 0 0 1.74671c0,0.18761 0.0501347,0.334788 0.150409,0.441529 0.100274,0.106741 0.234513,0.160117 0.402713,0.160117 0.213487,0 0.401097,-0.054991 0.562829,-0.164968l0.456083 1.29062zm0.708387 -5.04604l1.84375 0 0 5.25953 -1.84375 0 0 -5.25953zm0.921874 -0.582235c-0.336403,0 -0.608112,-0.0938073 -0.815133,-0.281417 -0.207015,-0.187605 -0.310526,-0.420503 -0.310526,-0.698684 0,-0.278176 0.10351,-0.511074 0.310526,-0.698679 0.20702,-0.18761 0.47873,-0.281417 0.815133,-0.281417 0.336403,0 0.608112,0.0889558 0.815128,0.266858 0.20702,0.177907 0.310526,0.405948 0.310526,0.68413 0,0.291115 -0.103505,0.532095 -0.310526,0.722941 -0.207015,0.190846 -0.478725,0.286268 -0.815128,0.286268zm4.02713 5.9291c-0.439913,0 -0.873355,-0.0501395 -1.30032,-0.150409 -0.426975,-0.100274 -0.769845,-0.231282 -1.02862,-0.39301l0.553122 -1.26151c0.239365,0.148793 0.524013,0.266858 0.853944,0.354193 0.329936,0.0873355 0.656632,0.131003 0.980096,0.131003 0.297587,0 0.509459,-0.030729 0.63561,-0.0921869 0.126152,-0.0614579 0.189225,-0.150414 0.189225,-0.266858 0,-0.116449 -0.0760123,-0.198933 -0.228042,-0.247452 -0.152029,-0.0485192 -0.39301,-0.095418 -0.722946,-0.140706 -0.420498,-0.0517551 -0.777932,-0.11968 -1.07228,-0.203784 -0.294351,-0.0840996 -0.54827,-0.23936 -0.761757,-0.465786 -0.213487,-0.226426 -0.320228,-0.543419 -0.320228,-0.950987 0,-0.336403 0.100274,-0.635606 0.300818,-0.897612 0.200553,-0.262006 0.493284,-0.469022 0.878206,-0.621051 0.384927,-0.152029 0.845862,-0.228042 1.38281,-0.228042 0.381686,0 0.760142,0.0388163 1.13536,0.116449 0.375219,0.0776278 0.688981,0.187605 0.941285,0.329931l-0.553126 1.25181c-0.465786,-0.258771 -0.970393,-0.388158 -1.51381,-0.388158 -0.29112,0 -0.504607,0.0339649 -0.640462,0.101895 -0.135855,0.0679249 -0.20378,0.156876 -0.20378,0.266858 0,0.122916 0.0743967,0.208636 0.22319,0.25715 0.148793,0.048524 0.394625,0.0986587 0.7375,0.150414 0.433442,0.0646938 0.792486,0.139091 1.07713,0.22319 0.284648,0.0840996 0.5321,0.237744 0.742352,0.460935 0.210251,0.223195 0.315377,0.535336 0.315377,0.936433 0,0.329931 -0.100274,0.625903 -0.300823,0.887909 -0.200548,0.262006 -0.49652,0.467406 -0.887909,0.6162 -0.391394,0.148793 -0.862032,0.22319 -1.41192,0.22319zm6.82186 -5.4342c0.653401,0 1.17903,0.194077 1.57689,0.582235 0.397861,0.388158 0.596789,0.973624 0.596789,1.75641l0 3.00822 -1.84374 0 0 -2.7074c0,-0.718094 -0.287884,-1.07714 -0.863652,-1.07714 -0.316993,0 -0.570912,0.10351 -0.761757,0.310526 -0.190846,0.207015 -0.286268,0.517541 -0.286268,0.931577l0 2.54243 -1.84374 0 0 -7.20032 1.84374 0 0 2.42598c0.200548,-0.18761 0.436677,-0.329936 0.708387,-0.426975 0.271709,-0.0970384 0.562829,-0.145558 0.873355,-0.145558z"/>
  </g>
 </g>
</svg>
