<?xml version="1.0" encoding="UTF-8"?>
<!DOCTYPE svg PUBLIC "-//W3C//DTD SVG 1.1//EN" "http://www.w3.org/Graphics/SVG/1.1/DTD/svg11.dtd">
<!-- Creator: CorelDRAW -->
<svg xmlns="http://www.w3.org/2000/svg" xml:space="preserve" width="189px" height="142px" style="shape-rendering:geometricPrecision; text-rendering:geometricPrecision; image-rendering:optimizeQuality; fill-rule:evenodd; clip-rule:evenodd"
viewBox="0 0 39.7665 29.7104"
 xmlns:xlink="http://www.w3.org/1999/xlink">
 <defs>
  <style type="text/css">
   <![CDATA[
    .fil5 {fill:#000072}
    .fil14 {fill:#4D4D9D}
    .fil3 {fill:#AF6C3E}
    .fil7 {fill:#B065A4}
    .fil9 {fill:#B19DA7}
    .fil4 {fill:#B2B2D4}
    .fil0 {fill:#C183E0}
    .fil11 {fill:#DD6B2C}
    .fil10 {fill:#E7D3C5}
    .fil12 {fill:#F5D2BF}
    .fil1 {fill:#FA9B27}
    .fil6 {fill:#FC90BA}
    .fil8 {fill:#FDE1BE}
    .fil13 {fill:#FF4A8B}
    .fil2 {fill:white}
   ]]>
  </style>
 </defs>
 <g id="Слой_x0020_1">
  <metadata id="CorelCorpID_0Corel-Layer"/>
  <g id="_121131224">
   <path id="_121130456" class="fil0" d="M33.8895 29.7104c1.1669,0 2.01616,-0.375739 2.22092,-1.10237 0.0824843,-0.293777 0.0529459,-0.619111 -0.0727042,-0.960088 -0.369402,0.38719 -0.889897,0.632521 -1.46781,0.657935 -0.0639531,0.00279038 -0.128737,0.00418754 -0.194784,0.00418754 -1.00728,0 -2.23294,-0.328406 -3.64738,-0.977962l-26.2076 0c-0.567725,0 -1.0937,-0.203579 -1.49946,-0.565077 -1.12907,0.187521 -1.76211,0.397943 -1.76211,0.620513 -2.37479e-005,0.783585 7.85105,1.41918 17.535,1.41918 4.1016,0 7.87492,-0.114631 10.8617,-0.305505 0.336088,0.18291 0.69256,0.353677 1.06481,0.506855 1.14719,0.472076 2.25556,0.702328 3.16943,0.702328zm2.15054 -2.06483c0.190134,-0.0837786 0.28915,-0.169924 0.28915,-0.258029 0,-0.0270924 -0.00946749,-0.0541808 -0.0281769,-0.0809882 -0.0750552,0.122032 -0.16261,0.235555 -0.260973,0.339017z"/>
   <path id="_121130360" class="fil1" d="M0.237083 13.2533c0,0.0223349 1.97899e-005,0.0446896 0.001413,0.067725 0.0362868,0.788058 0.159321,1.80666 0.491079,2.86504 0.68597,2.18937 2.26771,4.55204 5.82852,5.40643 -1.97899e-005,-7.91596e-006 1.78767,0.6462 1.14775,-2.46389 -2.77059e-005,0 -3.58036,0.428242 -4.39286,-3.86409 -0.108936,-0.57555 -0.168258,-1.23586 -0.161972,-1.99376 0.00625757,-0.809011 -0.648294,-1.46708 -1.45661,-1.46708 -0.805528,-1.18739e-005 -1.4573,0.652489 -1.45732,1.44962z"/>
   <path id="_121130264" class="fil2" d="M0.237083 13.2533c0,0.0223349 1.97899e-005,0.0446896 0.001413,0.067725 0.0362868,0.788058 0.159321,1.80666 0.491079,2.86504 1.18697,0.29196 2.02112,-0.235413 2.58341,-0.921549 -0.108936,-0.57555 -0.168258,-1.23586 -0.161972,-1.99376 0.00625757,-0.809011 -0.648294,-1.46708 -1.45661,-1.46708 -0.805528,-1.18739e-005 -1.4573,0.652489 -1.45732,1.44962z"/>
   <path id="_121130168" class="fil3" d="M5.94986 21.1786c0.2114,-0.154286 0.406061,-0.32588 0.582409,-0.512566 -2.55298,-0.91374 -3.89829,-2.69288 -4.59769,-4.46589 -0.174009,0.0439771 -0.358989,0.0681366 -0.555863,0.0681366 -0.124296,0 -0.25343,-0.00962977 -0.387332,-0.0300173 0.645218,1.96959 2.03607,4.01517 4.95848,4.94033z"/>
   <path id="_121130072" class="fil4" d="M1.3787 16.2683c0.196886,0 0.381894,-0.0241556 0.555875,-0.0681366 -0.0849106,-0.214895 -0.160156,-0.429777 -0.226899,-0.642851 -0.331897,-1.05839 -0.454768,-2.07698 -0.491075,-2.86504 -0.00139321,-0.0230434 -0.00139321,-0.0453822 -0.00139321,-0.0677211 0,-0.185008 0.0351865,-0.361918 0.0992741,-0.524864 -0.190035,0.0615664 -0.362895,0.169786 -0.505315,0.31891 -0.231114,0.242118 -0.349909,0.558657 -0.334552,0.891808 0.038246,0.829945 0.169508,1.86781 0.516766,2.92788 0.133883,0.0203717 0.263059,0.0300173 0.38732,0.0300173z"/>
   <path id="_121129976" class="fil5" d="M7.51314 19.3766c0.173292,0.963733 0.104605,1.63409 -0.197416,1.89841 -0.267389,0.234146 -0.674685,0.0959217 -0.678596,0.094671 -0.00754391,-0.00265581 -0.0164771,-0.00531161 -0.024017,-0.00712437 -5.07454,-1.21743 -6.02414,-5.56756 -6.1385,-8.05211 -0.0153807,-0.333155 0.103466,-0.649691 0.334552,-0.891808 0.23303,-0.244085 0.547345,-0.378395 0.884826,-0.378395 0.327832,-1.18739e-005 0.635588,0.128179 0.866537,0.36094 0.230655,0.232333 0.356191,0.540363 0.353681,0.867376 -0.0183175,2.32244 0.559635,4.02508 1.71743,5.06071 1.09371,0.978365 2.37355,1.0588 2.88152,1.04736zm-0.598755 2.50787c0.217277,0 0.481049,-0.0526412 0.708783,-0.249654 0.473042,-0.409402 0.579041,-1.26881 0.314723,-2.55423 -0.0247136,-0.120362 -0.137116,-0.201489 -0.259291,-0.187244 -0.0152461,0.00167423 -1.52991,0.162531 -2.737,-0.921691 -1.04835,-0.941655 -1.57124,-2.52267 -1.55435,-4.69934 0.00362551,-0.454087 -0.170625,-0.881759 -0.490794,-1.20444 -0.320462,-0.322971 -0.747572,-0.500847 -1.20248,-0.500847 -0.468039,-3.95798e-006 -0.903817,0.186405 -1.22706,0.524864 -0.321301,0.336349 -0.486472,0.776754 -0.465102,1.24018 0.0561163,1.21854 0.318772,3.01822 1.25135,4.67282 1.10486,1.9601 2.8677,3.24371 5.23915,3.81522 0.0502584,0.0164692 0.215029,0.0643647 0.422071,0.0643647z"/>
   <path id="_121129880" class="fil1" d="M4.52022 27.0954l26.2591 0c0.272555,0.125808 0.531707,0.236822 0.777593,0.334002 1.37771,0.546217 2.35079,0.669239 3.00258,0.639915 0.855138,-0.0377037 1.60196,-0.632236 1.76961,-1.47126 0.201901,-1.01301 -0.477139,-1.95396 -1.1981,-2.63661 -0.704168,-0.667149 -1.44755,-1.0877 -1.44755,-1.0877 0.0579409,-0.647605 0.0265303,-1.28333 -0.0495658,-1.8646 -0.14187,-1.08353 -0.438018,-1.97561 -0.595237,-2.39687 -0.0628369,-0.167704 -0.103327,-0.26055 -0.103327,-0.26055 -3.95798e-006,-3.95798e-006 -4.06529,0.139768 -7.91528,-0.509364 -1.90371,-0.321289 -3.75434,-0.835399 -5.03418,-1.65488 -1.20012,-0.768517 -2.33264,-1.13672 -3.32316,-1.27984 -2.2028,-0.317244 -3.70547,0.479901 -3.70547,0.479901 0.00136946,-0.511458 -0.0258298,-1.07444 -0.108207,-1.63687 -0.20192,-1.38805 -0.735706,-2.77345 -1.98413,-3.37148 -0.0851876,-0.040506 -0.173977,-0.0774933 -0.265434,-0.110305 -0.668562,-0.241852 -1.17303,0.0446777 -1.55295,0.650387 -0.173276,0.275198 -0.320027,0.616883 -0.445835,1.00519 -0.26127,0.813187 -0.426144,1.83039 -0.527377,2.87203 -0.100679,1.03254 -0.139768,2.08954 -0.14954,2.99559 -0.009796,0.877421 -0.273813,1.71855 -0.742545,2.42912 -0.351465,0.534351 -0.819484,0.995412 -1.38121,1.34267 -0.0153886,0.0097683 -0.0307179,0.0188519 -0.0460788,0.0286281 -1.44965,0.899051 -2.5129,1.67387 -2.98303,2.47171 -0.79088,1.33987 0.193525,3.0312 1.74927,3.03119z"/>
   <path id="_121129784" class="fil2" d="M11.0487 22.8737c0,3.15911 4.45641,3.42804 13.1638,3.42804 6.21208,0 8.09484,-5.14867 8.72289,-7.95004 -0.0629794,-0.167704 0,0 0,0 -3.95798e-006,-3.95798e-006 -4.06529,0.139768 -7.91528,-0.509364l-0.812506 2.44168 0.146053 0.30328c0,0 -1.00532,1.62137 -4.9691,-0.74059 -3.96463,-2.36196 -8.33584,-0.131389 -8.33585,3.027z"/>
   <path id="_121129688" class="fil2" d="M31.557 27.4294c1.37771,0.546221 2.35079,0.669243 3.00258,0.639918 0.855138,-0.0377037 1.60196,-0.632236 1.76961,-1.47126 0.201901,-1.01301 -0.477139,-1.95396 -1.1981,-2.63661 -1.06678,0.210972 -2.58831,0.976007 -3.5741,3.46796z"/>
   <path id="_121129592" class="fil2" d="M4.52022 27.0954l1.3735 0c1.8519,-2.3836 0.681834,-4.49129 -0.13974,-5.5029 -1.3413,0.832043 -2.35149,1.55728 -2.86714,2.29284 -0.0425958,0.0593301 -0.0809803,0.119523 -0.11589,0.178865 -0.145365,0.246578 -0.230529,0.504338 -0.263344,0.761535 -0.146766,1.14286 0.742553,2.26966 2.01261,2.26966z"/>
   <path id="_121129496" class="fil6" d="M3.62142 25.0025c-0.319757,0.175525 -0.470968,0.514688 -0.33762,0.757502 0.133194,0.242806 0.50057,0.297268 0.820319,0.121755 0.319742,-0.175521 0.470968,-0.514672 0.337762,-0.757348 -0.133352,-0.242814 -0.500566,-0.297411 -0.820462,-0.12191z"/>
   <path id="_121129400" class="fil6" d="M2.50758 24.8258c0.171753,0.135434 0.45968,0.143129 0.717436,0.00210169 0.319999,-0.176071 0.47083,-0.514949 0.338182,-0.758044 -0.113938,-0.206801 -0.396827,-0.276607 -0.676364,-0.18445 -0.0425958,0.0593301 -0.0809803,0.119523 -0.11589,0.178865 -0.145365,0.246578 -0.230529,0.504338 -0.263364,0.761527z"/>
   <path id="_121129304" class="fil6" d="M4.58682 22.3905c0,0 0.199668,0.703879 0.733054,1.04345 0.498725,0.317509 -0.281769,1.64511 -1.36808,0.742129 -0.334291,-0.277874 -0.425728,-0.766847 -0.191709,-1.13309 0.137528,-0.215033 0.388583,-0.442764 0.826739,-0.652493z"/>
   <path id="_121129208" class="fil2" d="M8.07332 14.7965c2.19708,1.14776 3.90949,-0.122171 4.77575,-1.04581 -0.215868,-1.48244 -0.809712,-2.96209 -2.24956,-3.48178 -1.60964,-0.581289 -2.26911,1.89462 -2.52619,4.52759z"/>
   <path id="_121070624" class="fil6" d="M9.80642 11.8036c0,0.364839 0.224528,0.660583 0.501413,0.660583 0.277023,-3.95798e-006 0.501544,-0.295732 0.501544,-0.660583 -1.97899e-005,-0.364712 -0.22452,-0.660445 -0.501544,-0.660445 -0.276912,-7.91596e-006 -0.501405,0.295736 -0.501413,0.660445z"/>
   <path id="_121070528" class="fil6" d="M8.60071 11.9245c0.0880928,0.189346 0.24604,0.315154 0.42686,0.315154 0.277435,0 0.501686,-0.295455 0.501686,-0.660864 0,-0.356341 -0.214471,-0.6469 -0.4827,-0.659467 -0.173276,0.275198 -0.320027,0.616883 -0.445847,1.00518z"/>
   <path id="_121070432" class="fil6" d="M8.37257 13.9424c0,0 0.645507,-0.203856 1.17931,0.035606 0.499149,0.223958 1.12806,-1.05462 -0.122448,-1.43482 -0.384704,-0.117022 -0.809154,0.0610162 -0.973078,0.428242 -0.0963491,0.215583 -0.144514,0.525561 -0.0837825,0.970976z"/>
   <path id="_121070336" class="fil3" d="M31.6466 27.2109c0.0777862,-0.182768 0.158632,-0.355767 0.241848,-0.519271 -0.0855993,-0.031838 -0.172718,-0.0653463 -0.261662,-0.100533 -0.202617,-0.0800145 -0.414416,-0.169647 -0.635034,-0.269064 -0.0939823,-0.0423108 -0.195758,-0.0649267 -0.298665,-0.0649267l-5.5025 -3.95798e-006c-0.31333,0.0294632 -0.639495,0.0446817 -0.978092,0.0446817 -1.6183,0 -3.09027,-0.00921418 -4.41367,-0.0446777l-13.3664 -3.95798e-006c-0.101352,0.198129 -0.221991,0.398778 -0.364134,0.601942l24.7112 0c0.0343513,0 0.068291,0.00739747 0.0994284,0.0217808 0.269903,0.124965 0.525561,0.234297 0.767666,0.330076z"/>
   <path id="_121070240" class="fil4" d="M24.2125 26.3018c0.338609,0 0.664783,-0.0152184 0.978112,-0.0446777l-5.39178 -3.95798e-006c1.3234,0.0354635 2.79538,0.0446817 4.41367,0.0446817z"/>
   <path id="_121070144" class="fil4" d="M34.3853 27.8366c0.0576678,0 0.112264,-0.00125468 0.163928,-0.00348698 0.767267,-0.0336547 1.40377,-0.560608 1.54776,-1.28165 0.00883421,-0.0441315 0.0157369,-0.0882432 0.0208031,-0.132228 -0.329011,0.47683 -0.880944,0.78499 -1.48828,0.811802 -0.0582259,0.00264393 -0.118961,0.00404901 -0.182352,0.00404901 -0.600691,-3.95798e-006 -1.43678,-0.126501 -2.5587,-0.543435 -0.0832284,0.1635 -0.164062,0.336508 -0.241837,0.519275 1.26308,0.499173 2.15643,0.625678 2.73868,0.625678z"/>
   <path id="_121070048" class="fil4" d="M4.52006 26.859l1.5482 0c0.142159,-0.203163 0.262798,-0.403805 0.36417,-0.601938l-1.84241 -3.95798e-006c-0.404237,0 -0.769768,-0.114215 -1.07555,-0.306763 -0.0819856,-0.0297442 -0.151777,-0.0783324 -0.201481,-0.144933 -0.254269,-0.208047 -0.454352,-0.475017 -0.58379,-0.773263 -0.00798325,0.315415 0.07065,0.633075 0.236109,0.922665 0.323225,0.566193 0.904517,0.904236 1.55475,0.904236z"/>
   <path id="_121069952" class="fil7" d="M3.51445 25.9503c-0.0703729,-0.0442621 -0.137655,-0.0927078 -0.201461,-0.144929 0.0496885,0.066601 0.119515,0.115193 0.201461,0.144929z"/>
   <path id="_121069856" class="fil3" d="M8.07932 18.626c0.303015,-0.800917 0.595684,-1.94629 0.718417,-3.5294 -0.163382,-0.0499933 -0.33008,-0.112957 -0.499731,-0.190173 -0.0794763,0.854105 -0.125943,1.82006 -0.137532,2.88836 -0.00308327,0.282319 -0.0305794,0.560189 -0.0811544,0.831212z"/>
   <path id="_121069760" class="fil4" d="M8.79773 15.0966c0.00977226,-0.1251 0.0184482,-0.253137 0.0259881,-0.383829 0.017146,-0.300909 0.0403516,-0.58421 0.0693953,-0.850341 -0.223685,0.00655442 -0.407577,0.0491502 -0.483254,0.0693953 -0.0425958,0.306474 -0.0798681,0.631401 -0.111845,0.974609 0.169623,0.0772083 0.336365,0.140188 0.499731,0.190173zm-0.174001 -2.36379c0.13503,-0.130127 0.31447,-0.208732 0.503245,-0.222973 0.0283233,-0.111013 0.0585069,-0.217265 0.0903409,-0.318914 -0.0585306,0.0314026 -0.122598,0.0487307 -0.189754,0.0487307 -0.0921814,0 -0.178446,-0.0326731 -0.252452,-0.0897828 -0.0537692,0.180808 -0.104301,0.375462 -0.151357,0.582951zm0.896542 -1.27846c0.260692,-0.483392 0.590784,-0.797126 0.989848,-0.965937 -0.127906,-0.0452516 -0.248545,-0.0678596 -0.363038,-0.0678596 -0.172026,-1.18739e-005 -0.330084,0.0509669 -0.477669,0.153451 -0.141886,0.098435 -0.274514,0.241698 -0.397805,0.427826 0.127332,0.0933965 0.220475,0.257894 0.248664,0.45252z"/>
   <path id="_121069664" class="fil7" d="M9.02757 12.2396c0.0671353,0 0.131255,-0.0173162 0.189757,-0.0487307 0.0876812,-0.279683 0.188637,-0.524444 0.302995,-0.736545 -0.0282283,-0.194654 -0.12134,-0.359123 -0.24868,-0.452532 -0.188246,0.284409 -0.354097,0.668958 -0.496521,1.14802 0.0740024,0.0571097 0.160294,0.0897828 0.252448,0.0897828z"/>
   <path id="_121069568" class="fil7" d="M8.40983 13.9318c0.0756806,-0.020249 0.259596,-0.062825 0.483281,-0.0693874 0.0559817,-0.512163 0.134045,-0.961623 0.233877,-1.35258 -0.188796,0.0142289 -0.368199,0.0928503 -0.503222,0.222985 -0.0818313,0.360651 -0.153174,0.760835 -0.213937,1.19898z"/>
   <path id="_121069472" class="fil8" d="M11.7675 16.4445c0,0 1.31643,-1.01133 3.88728,-1.01133 0.413007,-1.18739e-005 0.858854,0.0261108 1.33653,0.0867115 -0.0858763,-0.12637 -0.15471,-0.245189 -0.209587,-0.351587 -0.424616,-0.0710695 -0.816686,-0.0981619 -1.16813,-0.0981619 -0.196344,-7.91596e-006 -0.380212,0.008383 -0.549582,0.0224853 -1.2173,0.100378 -1.98859,0.499731 -1.99585,0.503503 -0.0346323,0.0184204 -0.0727477,0.0276465 -0.110725,0.0276465 -0.0424771,-3.95798e-006 -0.0847562,-0.0114544 -0.122317,-0.0340703 -0.0375612,-0.0226238 -0.0673015,-0.0545964 -0.0869885,-0.0920191 -0.392382,0.231645 -0.73375,0.539667 -0.980625,0.946824z"/>
   <path id="_121069376" class="fil3" d="M31.846 21.5171c0.453794,-0.0938239 0.877013,-0.206642 1.26839,-0.330634 -0.382305,0.106256 -0.797699,0.20274 -1.24437,0.281492 -0.00796742,0.0163267 -0.015919,0.0326731 -0.024017,0.0491502zm-7.84966 -0.624142c0.0897908,-0.0506938 0.160302,-0.103185 0.214202,-0.149964 -1.59304,-0.594263 -2.78951,-1.36933 -3.61024,-2.02406 -1.23447,-0.984674 -1.87033,-1.87745 -2.01819,-2.0982 -0.560897,-0.33078 -0.959252,-0.704287 -1.24032,-1.05085 -0.118834,-0.0187094 -0.235413,-0.035325 -0.350467,-0.0499853 0.270306,0.397939 0.708894,0.871282 1.40886,1.27383 -1.58319e-005,0 0.691582,1.1046 2.23825,2.27609 0.851314,0.644795 1.96123,1.31 3.35792,1.82313z"/>
   <path id="_121069280" class="fil4" d="M29.1062 21.7929c1.00853,0 1.92367,-0.107095 2.7398,-0.275764 0.00808616,-0.016485 0.0160575,-0.0328156 0.024017,-0.0491502 -0.72929,0.128595 -1.54206,0.21028 -2.43066,0.21028 -0.680282,-3.95798e-006 -1.40522,-0.0478916 -2.17081,-0.159036 -1.14635,-0.166441 -2.16466,-0.442902 -3.05801,-0.7762 -0.0538998,0.0467754 -0.124407,0.099278 -0.21419,0.149964 0.871702,0.320304 1.85511,0.581554 2.95678,0.741429 0.758318,0.110301 1.47685,0.158482 2.15307,0.158478z"/>
   <path id="_121069184" class="fil9" d="M17.3418 15.5699c-0.0957911,-0.118249 -0.178026,-0.233303 -0.248399,-0.342492 -0.105714,-0.0223468 -0.209583,-0.0420298 -0.311655,-0.059065 0.0548774,0.106387 0.123715,0.225225 0.209587,0.351587 0.115047,0.0146604 0.231645,0.031276 0.350467,0.0499695z"/>
   <path id="_121069088" class="fil5" d="M34.0943 28.1372l0.0184284 -0.0361601 0.0148028 -0.0314185c0.00907169,-0.0208031 0.0175972,-0.0414638 0.0251371,-0.0617128 0.015076,-0.0413332 0.0276465,-0.0822389 0.0388159,-0.123988 0.0208031,-0.0829474 0.0339278,-0.167276 0.0413292,-0.25189 0.0124281,-0.169101 0.000977621,-0.339999 -0.0400746,-0.503503 -0.0177357,-0.0819658 -0.0424454,-0.162388 -0.0724667,-0.239881l-0.0476185 -0.114916c-0.0168927,-0.0377077 -0.038812,-0.0734443 -0.0579409,-0.10947 -0.0781939,-0.144383 -0.182075,-0.272273 -0.299085,-0.381185 -0.0155034,-0.0145297 -0.0399321,-0.0136827 -0.0544539,0.00181671 -0.00824447,0.00892921 -0.011589,0.0208031 -0.00991474,0.0319765l0.000558075 0.00390257c0.0120085,0.078752 0.0322536,0.150665 0.0442621,0.224528 0.011585,0.0738559 0.0259723,0.144518 0.0325346,0.216422 0.0103264,0.07065 0.0135442,0.141585 0.0188519,0.210703 0.00418359,0.0342049 0.000277059,0.0696723 0.00209377,0.103743 0.00111615,0.0343394 0.00293286,0.0682752 0.000419546,0.102488 -0.00377196,0.136131 -0.0168966,0.269206 -0.0344898,0.400176 -0.00740538,0.0657579 -0.0189904,0.130415 -0.0287626,0.1952l-0.0166196 0.0956407c-0.00223626,0.0161961 -0.00502268,0.0314224 -0.00781701,0.0465023l-0.00335241 0.0221964c-0.00112011,0.00684335 -0.00265185,0.0152264 -0.00139321,0.0167581l0.166849 0.209441c0.0554355,0.0696763 0.15695,0.0811307 0.226765,0.0256952 0.0182859,-0.0146643 0.0330927,-0.0333737 0.043142,-0.0530647z"/>
   <path id="_121068992" class="fil5" d="M35.7485 27.8378l0.0184759 -0.036168 0.0148028 -0.0315491c0.00900837,-0.0206646 0.0175536,-0.0413292 0.0251213,-0.0615743 0.0150047,-0.0414717 0.0275515,-0.0822429 0.0386932,-0.123992 0.0208309,-0.083082 0.0339832,-0.167415 0.0413569,-0.25189 0.0125389,-0.169235 0.000989495,-0.339995 -0.0400191,-0.503641 -0.017807,-0.0818233 -0.0424731,-0.162388 -0.0725063,-0.239881l-0.0476026 -0.114777c-0.0169006,-0.0376998 -0.0388159,-0.0734443 -0.0579013,-0.109604 -0.078281,-0.144241 -0.182107,-0.272139 -0.299073,-0.381189 -0.0155826,-0.0145258 -0.0399875,-0.0136827 -0.0545093,0.00195524 -0.0083078,0.00893712 -0.011589,0.0206686 -0.00995828,0.031834l0.000613487 0.00390653c0.0120085,0.0788944 0.032214,0.150803 0.0442225,0.224667 0.0116127,0.0738599 0.0259723,0.144514 0.03259,0.216288 0.0103264,0.0707885 0.0135007,0.141719 0.0188083,0.210699 0.00419546,0.0343434 0.000376008,0.0698148 0.00219272,0.103885 0.00108449,0.0343434 0.00293286,0.0681366 0.00033247,0.102484 -0.00378779,0.136139 -0.0169085,0.269064 -0.0344305,0.40018 -0.00743309,0.0656194 -0.0190181,0.130408 -0.0287626,0.1952l-0.0167502 0.0955021c-0.00217293,0.0161961 -0.0049079,0.031557 -0.00776952,0.0466369l-0.00334054 0.0221964c-0.00108449,0.00670878 -0.0025806,0.0150839 -0.00132197,0.0167621l0.16675 0.209437c0.0555305,0.0696723 0.157021,0.0811307 0.226737,0.0256992 0.0184402,-0.0148068 0.0331323,-0.0333737 0.0432489,-0.0530647z"/>
   <path id="_121068896" class="fil5" d="M33.4489 22.8447c-0.000839092,0.0466211 0.000142487,0.0971803 0.00307535,0.146469 0.00306744,0.0496964 0.00670086,0.0996976 0.012147,0.14996 0.0097683,0.100659 0.0226199,0.201069 0.0492887,0.307325l0.000692647 0.00278642c0.0101958,0.0404981 0.0512479,0.0649346 0.0915996,0.0548814 0.015634,-0.00406485 0.0289051,-0.0125705 0.0386814,-0.0238785 0.0759537,-0.087978 0.126363,-0.184588 0.170067,-0.281215 0.0222003,-0.0484496 0.0416103,-0.0974574 0.059342,-0.14675 0.0177278,-0.0497162 0.0328117,-0.0982965 0.0446817,-0.150938l0.000415588 -0.00209377c0.0289051,-0.128179 -0.0516596,-0.255519 -0.179839,-0.284424 -0.128183,-0.0289051 -0.255519,0.0516635 -0.284286,0.179843 -0.00363343,0.0156261 -0.00544222,0.0325346 -0.00586573,0.0480341z"/>
   <path id="_121068800" class="fil5" d="M12.8607 15.1713c-0.0720669,0.0350479 -0.128179,0.0698148 -0.189053,0.107242 -0.0592312,0.0378264 -0.116456,0.0781899 -0.172865,0.119242 -0.112688,0.082516 -0.218101,0.174812 -0.317794,0.272832 -0.0992899,0.098431 -0.190173,0.20665 -0.27018,0.321566 -0.0794683,0.115613 -0.145638,0.240859 -0.192829,0.371132 -0.0110467,0.0301519 0.00461105,0.063395 0.0346284,0.0742873 0.0216185,0.00795158 0.0448202,0.00209377 0.0603196,-0.0128516l0.00418359 -0.00418754c0.0470604,-0.0460867 0.0858763,-0.0950865 0.135304,-0.136554 0.0441157,-0.0448281 0.0935508,-0.0848947 0.141723,-0.124831 0.0994047,-0.0773627 0.199811,-0.150938 0.306205,-0.216699 0.105825,-0.0663318 0.215033,-0.126644 0.324919,-0.184454 0.0551386,-0.0287666 0.111006,-0.0558511 0.166857,-0.0816809 0.05388,-0.0268193 0.114777,-0.0526412 0.161969,-0.0731633l0.0050108 -0.00224022c0.119788,-0.052372 0.174412,-0.191847 0.122195,-0.311647 -0.0523878,-0.119812 -0.19199,-0.174397 -0.311794,-0.122175 -0.00267164,0.00124676 -0.00614674,0.00293286 -0.00879859,0.00418359z"/>
   <path id="_121068704" class="fil5" d="M32.7776 18.5927c0.201905,0.52068 0.841688,2.35303 0.670502,4.26008 -0.00824447,0.0924189 0.0384003,0.181378 0.119104,0.227038 0.0289012,0.0164612 2.89127,1.66172 2.52977,3.47159 -0.143991,0.721041 -0.780482,1.248 -1.54776,1.28165 -0.672738,0.0293207 -1.85413,-0.111706 -3.67028,-0.95227 -0.0311454,-0.0143833 -0.0650692,-0.0217808 -0.0994166,-0.0217808l-26.2594 0c-0.650257,0 -1.23151,-0.338043 -1.55475,-0.904236 -0.318772,-0.558242 -0.315277,-1.22008 0.0094952,-1.77063 0.485609,-0.823252 1.70487,-1.64901 2.94994,-2.41879 1.38246,-0.85454 2.21828,-2.33892 2.23574,-3.97062 0.0432568,-4.01098 0.579179,-6.5754 1.50897,-7.22076 0.248245,-0.172311 0.526119,-0.199249 0.849917,-0.0823775 1.82843,0.66029 2.20627,3.02631 2.20139,4.89497 -0.000304765,0.0830662 0.043142,0.160294 0.114354,0.203159 0.0710458,0.0428649 0.15974,0.0455207 0.233042,0.0064238 0.00724311,-0.00377196 0.778571,-0.403109 1.99585,-0.503503 1.1201,-0.0927236 2.86128,0.0571097 4.79458,1.29436 3.64388,2.33194 11.6276,2.23713 12.919,2.20572zm1.59749 9.71733c0.0660429,0 0.130835,-0.00139717 0.194784,-0.00418754 0.985632,-0.0432924 1.80438,-0.72663 1.99113,-1.66172 0.383287,-1.91934 -2.02493,-3.52801 -2.62966,-3.8983 0.161406,-2.31003 -0.74017,-4.3997 -0.779406,-4.48934 -0.0389584,-0.0888171 -0.129853,-0.144375 -0.224801,-0.141446 -0.0903449,0.00321388 -9.05088,0.281215 -12.8135,-2.12669 -2.05493,-1.31503 -3.91478,-1.46834 -5.11321,-1.36529 -0.822991,0.07065 -1.45018,0.265434 -1.81043,0.404367 -0.0470723,-1.95495 -0.544832,-4.27124 -2.50983,-4.98084 -0.471669,-0.170498 -0.902697,-0.123711 -1.28053,0.138652 -1.35777,0.942356 -1.68057,4.6555 -1.71227,7.60446 -0.0157805,1.46862 -0.767686,2.8043 -2.01149,3.5731 -1.49865,0.926563 -2.60086,1.71994 -3.1087,2.58104 -0.4122,0.698556 -0.41693,1.53815 -0.0128436,2.24565 0.408551,0.715457 1.14342,1.14258 1.96569,1.14258l26.2076 0c1.41443,0.649548 2.6401,0.977962 3.64738,0.977962z"/>
   <path id="_121068608" class="fil1" d="M19.3929 21.7504c0.124285,1.47057 0.590226,3.06961 2.03008,3.06961 1.7004,0 2.07838,-1.54178 2.12934,-2.65811 0.0286241,-0.632941 -0.0481726,-1.12904 -0.0481726,-1.12904 -3.95798e-006,-1.18739e-005 -1.57752,-1.66703 -4.07562,-1.69188 -7.91596e-006,-3.95798e-006 -0.141858,1.15822 -0.0356179,2.40942z"/>
   <path id="_121068512" class="fil2" d="M19.3929 21.7504c0.124285,1.47057 0.590226,3.06961 2.03008,3.06961 1.7004,0 2.07838,-1.54178 2.12934,-2.65811 -0.894191,-0.593151 -2.41292,-1.22818 -4.15941,-0.411499z"/>
   <path id="_121068416" class="fil3" d="M19.3841 19.8466c0.0208111,-0.313049 0.0444125,-0.505581 0.0444125,-0.505581 0.151626,0.00139321 0.300205,0.00907169 0.444861,0.0219193 -0.0139756,-0.216157 -0.194927,-0.350329 -0.379095,-0.350329 -0.109755,-7.91596e-006 -0.220614,0.047753 -0.297826,0.15429 -0.0860228,0.11868 -0.16295,0.267666 -0.217824,0.454634 0.135573,0.0698069 0.271019,0.144933 0.405903,0.225217l-0.00043142 -0.000150403z"/>
   <path id="_121068320" class="fil4" d="M21.1454 24.8471c0.119931,0 0.246028,-0.00934479 0.378676,-0.0288933 -0.0330966,0.00124676 -0.066878,0.00181276 -0.101091,0.00181276 -1.43985,0 -1.90579,-1.59903 -2.03006,-3.0696l-1.18739e-005 -1.18739e-005c-0.0629715,-0.741005 -0.038804,-1.44933 -0.00878276,-1.90383 -0.134476,-0.0801531 -0.269903,-0.155264 -0.405483,-0.225079 -0.0409097,0.138925 -0.0693953,0.298942 -0.0804262,0.482973 -0.0710695,1.19578 -0.0867075,4.74264 2.24719,4.74264zm1.68824 -0.576959c0.055578,-0.0534723 0.105852,-0.111971 0.14886,-0.175643 -0.0459522,0.0612854 -0.0955061,0.120081 -0.14886,0.175643z"/>
   <path id="_121068224" class="fil3" d="M19.3929 21.7504c0.217685,-0.101791 0.431887,-0.181086 0.641605,-0.24057 -0.111009,-0.797699 -0.148563,-1.59191 -0.16029,-2.12906 -0.000154361,-0.00600822 -0.000419546,-0.0120085 -0.000835134,-0.0178742 -0.144668,-0.0128595 -0.293223,-0.0205221 -0.444861,-0.0219193 -7.91596e-006,-3.95798e-006 -0.0235935,0.192548 -0.0444006,0.505593 -0.0300332,0.454491 -0.0541768,1.16283 0.00879463,1.90384l-1.18739e-005 -1.18739e-005z"/>
   <path id="_121068128" class="fil4" d="M21.423 24.82c0.0342128,0 0.0680021,-0.000558075 0.101095,-0.00181276 0.000692647,-0.000150403 0.0015357,-0.000142487 0.00223626,-0.000281017 -3.95798e-006,-1.18739e-005 0.839167,-0.0970418 1.30734,-0.547761 0.0533298,-0.0555859 0.102904,-0.114358 0.148844,-0.175655 0.000684731,-0.000981579 0.00125468,-0.00181276 0.00181276,-0.00265185 0,-7.91596e-006 -0.338597,0.0911761 -0.778428,0.0911761 -0.654444,0 -1.53327,-0.201624 -1.85553,-1.20429 -0.143683,-0.446828 -0.244769,-0.958694 -0.315843,-1.4689 -0.209722,0.0594845 -0.423908,0.138791 -0.641593,0.240582l-1.18739e-005 -1.18739e-005c0.124285,1.47057 0.590226,3.06961 2.03007,3.06961z"/>
   <path id="_121068032" class="fil5" d="M23.4618 21.0392c-0.026657,0.477261 -0.0577944,0.946694 -0.132493,1.40091 -0.0357604,0.22703 -0.0814038,0.450161 -0.142982,0.665333 -0.0601811,0.21516 -0.139768,0.422237 -0.245324,0.609197 -0.105144,0.186825 -0.236675,0.352565 -0.393756,0.4827 -0.15653,0.131389 -0.339298,0.223547 -0.535756,0.284983 -0.197028,0.0593301 -0.41372,0.078752 -0.625401,0.0790251 -0.103323,-0.000847008 -0.203575,-0.015357 -0.30034,-0.0379768 -0.0967726,-0.0226238 -0.189754,-0.0562706 -0.276742,-0.102068 -0.353135,-0.175655 -0.614227,-0.534917 -0.788347,-0.940401 -0.174963,-0.408143 -0.280791,-0.859416 -0.349209,-1.3167 -0.068572,-0.458548 -0.0948055,-0.926437 -0.107095,-1.39545 -0.0142566,-0.468609 -0.0173162,-0.942356 -0.024298,-1.41402l-0.000150403 -0.00419942c-0.000973663,-0.0624094 -0.0522097,-0.112252 -0.114623,-0.111275 -0.0532032,0.000688689 -0.0973228,0.0383964 -0.108492,0.0882471 -0.213355,0.951135 -0.216145,1.92576 -0.105702,2.89883 0.0614318,0.485902 0.157642,0.975587 0.352288,1.44809 0.0980154,0.235262 0.219913,0.467477 0.385515,0.67873 0.163215,0.210842 0.373507,0.402273 0.624558,0.528778 0.249503,0.129434 0.530868,0.189334 0.800632,0.194222 0.264318,-0.00043142 0.526681,-0.0248522 0.787365,-0.103604 0.25886,-0.0804381 0.50448,-0.218382 0.709037,-0.398501 0.205392,-0.179981 0.367364,-0.399618 0.489539,-0.63112 0.243511,-0.465815 0.349351,-0.969864 0.370712,-1.46359 0.00543827,-0.123715 0.00488811,-0.247144 -0.000977621,-0.370016 -0.00489602,-0.122876 -0.0136827,-0.24505 -0.0295978,-0.366525 -0.0296176,-0.243099 -0.0762386,-0.482557 -0.154013,-0.716577 -0.00755183,-0.0227624 -0.0319765,-0.0350479 -0.0545964,-0.027508 -0.0173122,0.00586177 -0.0286202,0.0215037 -0.0295978,0.0385389l-0.000154361 0.00194337z"/>
   <path id="_121067936" class="fil5" d="M22.1267 24.7184c-0.00405297,-0.0414678 -0.0143793,-0.0982806 -0.0220578,-0.148828l-0.0256952 -0.157512c-0.0184284,-0.105559 -0.0333658,-0.212227 -0.0484457,-0.320157 -0.00782097,-0.0541887 -0.011589,-0.108215 -0.0187094,-0.163085l-0.00615862 -0.0822548c-0.00305952,-0.0276465 -0.00515329,-0.0554197 -0.00599238,-0.0830662 -0.00880255,-0.111857 -0.00641985,-0.223408 -0.00921418,-0.342092l-1.18739e-005 -0.00336428c-0.000692647,-0.030425 -0.0259604,-0.0544381 -0.0565358,-0.0537454 -0.0188637,0.000415588 -0.0354675,0.0106113 -0.0449627,0.0252717 -0.0664703,0.1029 -0.122733,0.21531 -0.16225,0.332459 -0.0417607,0.116713 -0.0714891,0.238207 -0.0899214,0.360936 -0.020249,0.122721 -0.0282046,0.247148 -0.0254102,0.371417 0.0025054,0.061982 0.00656233,0.124269 0.0152184,0.186267 0.00934084,0.0635256 0.0189904,0.120358 0.0407712,0.191432 0.0382499,0.124823 0.17049,0.195061 0.295455,0.156661 0.109315,-0.0335201 0.176771,-0.13921 0.166018,-0.248961l-0.00209773 -0.0213771z"/>
   <path id="_121067840" class="fil5" d="M20.891 24.5556c-0.00405297,-0.0414678 -0.0142329,-0.0982885 -0.0220499,-0.148836l-0.0257031 -0.157504c-0.0184244,-0.105559 -0.0332193,-0.212231 -0.0482992,-0.320161 -0.00796742,-0.0541848 -0.0117315,-0.108073 -0.0187094,-0.163089l-0.00628527 -0.0822469c-0.00307931,-0.0276465 -0.00516517,-0.0554276 -0.00600426,-0.0830741 -0.00866798,-0.111853 -0.00628132,-0.223408 -0.00907565,-0.342092l-0.000142487 -0.00321388c-0.000708479,-0.0305833 -0.0259683,-0.0545924 -0.0564052,-0.0538919 -0.0188519,0.000403714 -0.0354675,0.0106074 -0.0451012,0.0252717 -0.0664783,0.10303 -0.122733,0.215306 -0.162111,0.332455 -0.0418913,0.116863 -0.0714891,0.238207 -0.0899214,0.36094 -0.020253,0.122725 -0.0283431,0.247144 -0.0255527,0.371413 0.00250144,0.0619899 0.00670482,0.12413 0.0153609,0.186263 0.00921022,0.0635216 0.0189904,0.120362 0.0406326,0.191436 0.038246,0.124815 0.170486,0.195061 0.295455,0.156661 0.109466,-0.0335122 0.17691,-0.139206 0.166018,-0.248957l-0.00210565 -0.0213731z"/>
   <path id="_121067744" class="fil1" d="M31.0755 4.52958c6.10116,2.52519 6.90268,8.86589 6.90268,8.86589 0.91761,-1.80037 1.3912,-3.63412 1.61468,-5.28048 0.206381,-1.52477 0.198845,-2.8892 0.130162,-3.91882 -0.0768838,-1.15042 -1.07133,-2.02811 -2.22137,-1.95354 -2.18052,0.140742 -3.79959,0.724532 -4.86705,1.26769 -1.04262,0.528763 -1.5591,1.01929 -1.5591,1.01927z"/>
   <path id="_121067648" class="fil3" d="M38.4395 11.7682c0.431828,-1.14007 0.706876,-2.2705 0.872838,-3.34145 -0.223685,0.176601 -0.49677,0.264872 -0.769677,0.264872 -0.0168452,-1.97899e-005 -0.0336231,-0.000415588 -0.0504603,-0.000973663 -0.103054,0.534074 -0.244017,1.08449 -0.432865,1.6405 0.156384,0.461323 0.283099,0.940262 0.380168,1.43706zm-5.4935 -7.24299c0.198137,-0.111971 0.429223,-0.229666 0.693122,-0.344993 -0.191159,-0.137283 -0.375462,-0.263902 -0.550417,-0.379654 -0.142848,0.0650573 -0.27772,0.130273 -0.404921,0.194923 -0.150383,0.0763495 -0.289732,0.151773 -0.41805,0.224944 0.229682,0.0931273 0.457143,0.194919 0.680266,0.30478z"/>
   <path id="_121067552" class="fil8" d="M33.0887 3.80059c1.05615,-0.481017 2.54134,-0.948768 4.46208,-1.07276 0.0456672,-0.00294078 0.0909702,-0.00432607 0.136111,-0.00432607 0.625915,-2.77059e-005 1.19531,0.280791 1.581,0.728581 -0.3165,-0.585631 -0.935192,-0.977404 -1.63103,-0.977404 -0.0398252,-2.37479e-005 -0.0799077,0.00125864 -0.120137,0.00391049 -2.04935,0.132351 -3.59779,0.668543 -4.64416,1.18126 0.0702265,0.0449508 0.14242,0.0918766 0.216141,0.140738z"/>
   <path id="_121067456" class="fil10" d="M32.2657 4.22044c0.128322,-0.0731712 0.267674,-0.148547 0.418054,-0.22492 0.127194,-0.0646774 0.262082,-0.129853 0.404921,-0.194923 -0.0737253,-0.0488929 -0.145911,-0.0957831 -0.216145,-0.140746 -0.33232,0.162792 -0.614089,0.32324 -0.845171,0.467616 0.0797217,0.0300134 0.159174,0.0610202 0.238342,0.092973z"/>
   <path id="_121067360" class="fil6" d="M32.2051 5.32715c0,0 1.53341,-1.4552 4.65514,-1.65696 0.8334,-0.0537573 1.55354,0.582112 1.60929,1.41542 0.103731,1.55111 0.016295,4.15256 -1.26388,6.6642 -3.95798e-006,-1.58319e-005 -0.580588,-4.59323 -5.00056,-6.42266z"/>
   <path id="_121067264" class="fil7" d="M37.7868 9.61516c0.484279,-1.70654 0.526336,-3.32246 0.44669,-4.51378 -0.0452714,-0.67651 -0.609034,-1.19773 -1.27529,-1.19773 -0.0273457,-7.91596e-006 -0.055012,0.000839092 -0.0826862,0.00265581 -1.52759,0.098716 -2.66741,0.509083 -3.41876,0.888456 0.0920151,0.0519406 0.183195,0.105282 0.273813,0.160294 0.672588,-0.265719 1.55146,-0.500851 2.63977,-0.57122 0.0304765,-0.00197107 0.0607629,-0.00293286 0.0908832,-0.00293286 0.730283,-1.18739e-005 1.34556,0.570943 1.39497,1.30986 0.0593776,0.88787 0.0506147,2.14861 -0.24625,3.53107 0.0615783,0.12943 0.120584,0.260688 0.176851,0.393328z"/>
   <path id="_121067168" class="fil5" d="M36.9582 3.90364c0.666255,0 1.23002,0.521242 1.27529,1.19774 0.101107,1.51231 0.00600426,3.70924 -0.94086,5.90686 -0.124019,-0.476272 -0.343153,-1.14956 -0.71867,-1.89071 -0.619871,-1.22343 -1.79477,-2.85248 -3.91336,-3.84789 0.571216,-0.405345 1.97715,-1.21868 4.21492,-1.36333 0.0276702,-0.00184442 0.0553484,-0.00265581 0.0826862,-0.00265581zm0.247627 8.08268c0.0877484,0 0.169778,-0.0489998 0.210675,-0.129145 1.2735,-2.49853 1.40399,-5.07006 1.28918,-6.78736 -0.0644993,-0.964022 -0.898735,-1.69816 -1.86072,-1.63575 -3.17067,0.204976 -4.73758,1.65963 -4.80278,1.72134 -0.0580913,0.0551466 -0.0843367,0.136 -0.0696763,0.214887 0.0145218,0.078744 0.0681406,0.144799 0.142147,0.175378 1.77369,0.734142 3.1295,2.00269 4.02931,3.77012 0.675449,1.32688 0.825568,2.45258 0.826992,2.46375 0.0132355,0.103046 0.0919716,0.185427 0.19425,0.203163 0.0135561,0.00236291 0.0271992,0.00362947 0.0406287,0.00361759z"/>
   <path id="_121067072" class="fil1" d="M28.4496 4.1484c-6.5673,0.686136 -9.13869,6.53729 -9.13869,6.53729 -0.367795,-1.98693 -0.300482,-3.87972 -0.0466369,-5.52176 0.235682,-1.52043 0.630843,-2.82637 0.989547,-3.79399 0.400722,-1.08102 1.60378,-1.63976 2.68506,-1.24133 2.05058,0.754835 3.43683,1.77499 4.30573,2.59922 0.849209,0.803395 1.205,1.42058 1.20498,1.42057z"/>
   <path id="_121066976" class="fil3" d="M19.3313 8.99449c0.234305,-0.448625 0.492064,-0.871817 0.773136,-1.26962 -0.0229128,-0.586747 -0.00167423,-1.15459 0.051525,-1.69593 -0.280938,-0.0713505 -0.536876,-0.238904 -0.711273,-0.486187 -0.145495,1.07402 -0.203155,2.23616 -0.113376,3.45176zm7.32604 -5.38229c0.245882,-0.0418794 0.491775,-0.0746792 0.739058,-0.0986962 -0.102353,-0.106703 -0.214471,-0.21852 -0.336785,-0.33441 -0.103612,-0.0981777 -0.214333,-0.19911 -0.332874,-0.302018 -0.200658,0.0612695 -0.413304,0.130134 -0.635592,0.207489 0.220329,0.185697 0.408135,0.364008 0.566193,0.527635z"/>
   <path id="_121066880" class="fil8" d="M26.7268 2.87707c0.0854528,-0.0261068 0.168685,-0.0508007 0.249673,-0.0741211 -0.856072,-0.787947 -2.18743,-1.74117 -4.11891,-2.45244 -0.209733,-0.0770817 -0.424612,-0.113657 -0.636289,-0.113657 -0.494843,-2.37479e-005 -0.971534,0.200088 -1.31949,0.549158 0.335383,-0.215603 0.729282,-0.334691 1.13421,-0.334691 0.238611,-1.18739e-005 0.481156,0.0413292 0.71797,0.128599 1.80624,0.664909 3.0971,1.53578 3.97284,2.29715z"/>
   <path id="_121066784" class="fil10" d="M27.3964 3.51351c0.0853103,-0.00822864 0.171464,-0.0154836 0.256917,-0.0214879 -0.180136,-0.204303 -0.404367,-0.438291 -0.676918,-0.689069 -0.0809961,0.0232927 -0.164205,0.0480341 -0.249658,0.0741449 0.118534,0.1029 0.22927,0.20386 0.332874,0.302018 0.122306,0.115862 0.234439,0.227734 0.336785,0.334394z"/>
   <path id="_121066688" class="fil6" d="M27.1399 4.59185c0,0 -1.05643,-1.8312 -3.99198,-2.91207 -0.783601,-0.28864 -1.65488,0.116309 -1.94531,0.899348 -0.540518,1.45756 -1.19634,3.97649 -0.683064,6.7484 -3.95798e-006,-3.95798e-006 1.86265,-4.23857 6.62036,-4.73568z"/>
   <path id="_120995640" class="fil7" d="M20.5693 7.11594c0.0917341,-0.111152 0.185578,-0.22019 0.281503,-0.32687 0.108484,-1.40983 0.45854,-2.62111 0.767817,-3.45539 0.209444,-0.564681 0.74604,-0.916526 1.31572,-0.916526 0.159728,-1.97899e-005 0.321986,0.0276465 0.480467,0.0860148 1.02334,0.376859 1.79897,0.852296 2.36838,1.29813 0.103177,-0.0270963 0.20665,-0.0525026 0.310397,-0.0763772 -0.610891,-0.576254 -1.58632,-1.29255 -3.02729,-1.82313 -0.144526,-0.0533536 -0.292661,-0.0784709 -0.438433,-0.0784709 -0.520265,-1.58319e-005 -1.01161,0.321147 -1.20332,0.838051 -0.415125,1.1194 -0.834283,2.68073 -0.855237,4.45457z"/>
   <path id="_120995544" class="fil5" d="M26.7208 4.40699c-2.31491,0.351738 -3.90471,1.57963 -4.84706,2.57658 -0.570816,0.603739 -0.972377,1.18699 -1.22678,1.60839 -0.282889,-2.37623 0.250635,-4.50945 0.777593,-5.93059 0.245454,-0.661854 0.982011,-1.00281 1.64175,-0.75958 2.113,0.778147 3.22487,1.95522 3.65451,2.50522zm-6.2012 5.15719c0.0929928,0 0.17845,-0.0548735 0.216569,-0.141442 0.00446064,-0.0102037 0.468455,-1.0468 1.49333,-2.12683 1.36529,-1.43862 3.02562,-2.26925 4.93504,-2.46877 0.0797296,-0.008383 0.149821,-0.0564131 0.186128,-0.127764 0.0364372,-0.0713505 0.0342088,-0.156384 -0.0057272,-0.225779 -0.0449706,-0.0777704 -1.13351,-1.91794 -4.11514,-3.01598 -0.904098,-0.333028 -1.91305,0.133344 -2.249,1.03926 -0.598312,1.61366 -1.20444,4.11611 -0.693953,6.87364 0.0189825,0.102195 0.102211,0.179981 0.205395,0.19199 0.00920231,0.00110823 0.0182898,0.00167423 0.0273615,0.00167423z"/>
   <path id="_120995448" class="fil1" d="M17.7246 13.7983c0,0 -0.464679,0.336096 -0.792526,0.518591 0,0 0.268787,1.23683 1.81727,2.12739 0,-3.95798e-006 0.691443,1.10446 2.23839,2.27651 1.38231,1.04693 3.44771,2.14832 6.31485,2.56442 2.86714,0.416221 5.1604,-0.0523601 6.78331,-0.663096 1.81642,-0.683773 2.79332,-1.54597 2.79332,-1.54597 1.73778,-0.413597 2.34709,-1.52293 2.34709,-1.52293 -0.262311,-0.268232 -0.612355,-0.722442 -0.612355,-0.722442 0.560323,-0.463151 0.900928,-1.26545 0.900928,-1.26545 -0.830262,-0.427822 -1.07708,-0.963297 -1.07708,-0.963297 0.0270924,-1.55785 -0.185511,-2.90121 -0.560415,-4.0572 -0.576615,-1.77583 -1.53508,-3.11149 -2.59266,-4.11025 -3.06552,-2.89551 -7.65009,-3.56109 -11.4123,-1.65655 -2.14303,1.08448 -4.28786,3.12503 -5.34527,6.93368 -1.18739e-005,0 -0.388864,0.443322 -1.3065,0.617299 -7.91596e-006,-1.18739e-005 0.098435,0.865983 0.50391,1.46931z"/>
   <path id="_120995352" class="fil2" d="M20.9877 18.7208c1.38232,1.04694 3.44773,2.14834 6.31486,2.56443 2.86714,0.416221 5.1604,-0.0523601 6.78331,-0.663096 -0.294763,-3.05047 -2.63564,-5.62146 -5.80423,-6.08139 -3.1686,-0.459937 -6.14395,1.33932 -7.29394,4.18006z"/>
   <path id="_120995256" class="fil11" d="M32.7871 4.77811c0,0 -0.107511,1.64834 -0.993873,3.41535 -0.0331006,0.0660429 0.0368607,0.136 0.102626,0.102488 0.454618,-0.232203 1.54848,-0.970141 1.9178,-2.82218 -3.95798e-006,0 -0.730675,-0.532127 -1.02655,-0.695659z"/>
   <path id="_120995160" class="fil11" d="M29.8482 3.74891c0,0 0.486052,0.029487 1.01943,0.256944 -1.18739e-005,-1.97899e-005 -0.700515,3.99659 -1.71282,4.93267 -0.0354675,0.032784 -0.0927118,0.0245751 -0.117425,-0.0170352 -0.704299,-1.1852 -0.239466,-5.21597 -0.239466,-5.21597 0.576104,-0.0664624 1.05029,0.043423 1.05029,0.0433993z"/>
   <path id="_120995064" class="fil11" d="M26.7381 3.89999c0,0 -0.365674,1.61092 -0.018278,3.55707 0.0129822,0.0727279 -0.0740063,0.119939 -0.127483,0.0689757 -0.369877,-0.35188 -1.20877,-1.37032 -1.03633,-3.25084 -7.91596e-006,-2.77059e-005 0.851876,-0.302576 1.18209,-0.375205z"/>
   <path id="_120994968" class="fil3" d="M34.058 20.3794c0.0691222,-0.0262493 0.136281,-0.0526253 0.201631,-0.0790171 1.58537,-0.639083 2.45444,-1.39419 2.46283,-1.40159 0.029111,-0.0256992 0.0640758,-0.043704 0.101791,-0.0527797 1.24739,-0.296995 1.87892,-0.977261 2.10037,-1.26937 -0.238152,-0.265153 -0.485771,-0.585603 -0.498045,-0.601657 -0.0779287,-0.100956 -0.061701,-0.245609 0.0366113,-0.326874 0.349197,-0.288624 0.611156,-0.732911 0.741567,-0.984524 -0.7336,-0.438295 -0.971186,-0.9397 -0.981757,-0.962458 -0.0148622,-0.0323961 -0.0222993,-0.0675786 -0.0216818,-0.103189 0.0188994,-1.07528 -0.0771331,-2.08465 -0.287037,-3.02506 -0.019592,2.04723 -0.575103,5.90672 -4.15619,7.52516 0.140184,0.412869 0.241279,0.841403 0.29992,1.28137zm-12.9745 -1.88346c0.18124,-0.405194 0.400184,-0.787215 0.651792,-1.14313 -2.97298,-2.57001 -2.40817,-6.42795 -1.84477,-8.39644 -0.468748,0.842092 -0.847685,1.78222 -1.13532,2.81855 -0.00963373,0.0343394 -0.0266689,0.0660429 -0.0501278,0.0928503 -0.0166196,0.0188519 -0.387051,0.43201 -1.21491,0.64369 0.0534723,0.278274 0.178169,0.778709 0.430898,1.15473 0.0712041,0.105829 0.0456553,0.249096 -0.0578103,0.323798 -0.0163346,0.0118581 -0.34474,0.24868 -0.648436,0.435224 0.129565,0.34362 0.541622,1.17498 1.65265,1.8142 0.0335083,0.0192556 0.0618553,0.0466369 0.08252,0.07931 0.00599634,0.00962581 0.624562,0.980752 1.96276,2.04416 0.0551466,0.0438386 0.112122,0.0882471 0.170759,0.133059z"/>
   <path id="_120994872" class="fil4" d="M29.4392 21.2049c1.94839,0 3.51712,-0.405467 4.61879,-0.825473 -0.0586454,-0.439981 -0.159732,-0.868488 -0.29992,-1.28137 -1.02683,0.464125 -2.30248,0.744081 -3.88559,0.744081 -0.713794,-3.95798e-006 -1.49012,-0.0569672 -2.33431,-0.179562 -2.71663,-0.39431 -4.56586,-1.2406 -5.80284,-2.30974 -0.251609,0.355914 -0.470549,0.737938 -0.651785,1.14314 1.25345,0.95799 3.31534,2.1285 6.25314,2.55493l-7.91596e-006 -7.91596e-006c0.742133,0.107792 1.44391,0.154021 2.10253,0.154005z"/>
   <path id="_120994776" class="fil8" d="M37.8634 11.3555c-0.457072,-1.8674 -1.37338,-3.45734 -2.74091,-4.74876 -0.41539,-0.392371 -0.859543,-0.742826 -1.32604,-1.05029 -0.0229048,0.106814 -0.0483111,0.209864 -0.0758191,0.309138 0.522066,0.333547 1.01789,0.71867 1.4791,1.15445 1.0576,0.998614 2.01607,2.33432 2.59268,4.11012 0.0241001,0.0742676 0.0477966,0.149402 0.0709864,0.22536zm-17.5532 -3.09084c1.03271,-1.37073 2.26451,-2.28766 3.47719,-2.90133 0.566332,-0.286657 1.15082,-0.514949 1.74634,-0.686274 0.00180484,-0.103046 0.00684335,-0.209029 0.0152184,-0.317937 -0.534787,0.162234 -1.0602,0.371971 -1.56998,0.629865 -1.50646,0.762355 -2.73253,1.85846 -3.66874,3.27569zm12.3134 -2.44714c0.0815423,-0.376024 0.123996,-0.673561 0.144937,-0.852288 -0.623726,-0.309997 -1.27648,-0.551113 -1.94545,-0.721461 -0.0357524,0.18445 -0.0921537,0.464544 -0.167138,0.799235 0.258733,0.186678 0.611156,0.372391 1.01482,0.523047 0.339575,0.126774 0.667985,0.21098 0.952829,0.251474zm-5.97207 -1.39364c0.548042,-0.0913265 1.10098,-0.136689 1.65252,-0.136689 0.145761,-3.95798e-006 0.291402,0.00321388 0.436898,0.0094952 0.0115771,-0.138118 0.0226199,-0.256636 0.0316955,-0.350606 -0.127625,-0.00491581 -0.255519,-0.00740142 -0.38356,-0.00740142 -0.562983,-2.77059e-005 -1.12764,0.0483111 -1.68672,0.145911 -0.0149414,0.0861375 -0.0329502,0.200507 -0.0508324,0.33929z"/>
   <path id="_120994680" class="fil12" d="M33.7206 5.86557c0.0275119,-0.0992741 0.0529261,-0.202316 0.075823,-0.309134 -0.332043,-0.218944 -0.675105,-0.415952 -1.02781,-0.591188 -0.0209456,0.178719 -0.063391,0.476276 -0.144933,0.852296 0.131247,0.018559 0.253287,0.0279236 0.362895,0.0279236 0.157638,-3.95798e-006 0.289728,-0.0192714 0.386912,-0.0585029 0.0349015,-0.0139796 0.0717661,-0.0210842 0.10835,-0.0210842 0.0513825,-2.77059e-005 0.102211,0.0138252 0.147031,0.0417488 0.0305754,0.0191091 0.0612973,0.0383964 0.0917302,0.0579409z"/>
   <path id="_120994584" class="fil12" d="M30.6561 5.04299c0.074976,-0.334683 0.131393,-0.614758 0.167138,-0.799207 -0.671056,-0.170906 -1.35845,-0.270742 -2.05045,-0.297688 -0.00907565,0.0939546 -0.0201065,0.212516 -0.0316955,0.350606 0.429496,0.0186817 0.8576,0.0647882 1.28081,0.137813 0.0897749,0.0154876 0.16895,0.0731672 0.205392,0.156526 0.0606007,0.13794 0.211819,0.295313 0.4288,0.45195z"/>
   <path id="_120994488" class="fil12" d="M25.5338 4.67705c0.369173,-0.106125 0.742406,-0.190454 1.11787,-0.253149 0.0178663,-0.138806 0.035887,-0.253145 0.0508244,-0.339298 -0.387902,0.0676934 -0.772843,0.15904 -1.15347,0.27451 -0.00838696,0.108888 -0.0134017,0.214891 -0.0152184,0.317937z"/>
   <path id="_120994392" class="fil5" d="M37.0429 19.2469c0.0575174,-0.0641035 0.108136,-0.129018 0.158834,-0.196458 0.0509194,-0.0664664 0.0986883,-0.135858 0.145286,-0.206512 0.0464904,-0.0705233 0.0910494,-0.14284 0.131892,-0.218659 0.04032,-0.0759576 0.0796029,-0.15317 0.108029,-0.238065 0.0116563,-0.0349213 -0.00715999,-0.0727477 -0.0420971,-0.0843367 -0.0222043,-0.00754391 -0.045588,-0.00251332 -0.0626628,0.0110309l-0.00241833 0.00195524c-0.0625559,0.050393 -0.126473,0.0996936 -0.191068,0.148286l-0.193359 0.146184 -0.192465 0.146885c-0.0635493,0.0488692 -0.128136,0.0991474 -0.187798,0.14844 -0.101039,0.0833511 -0.11532,0.232899 -0.0319053,0.33399 0.0834105,0.101087 0.232971,0.115332 0.334034,0.0319765 0.00886192,-0.00740538 0.018179,-0.0164771 0.0256992,-0.0247176z"/>
   <path id="_120994296" class="fil5" d="M18.9552 16.3275c-0.0431499,-0.0642301 -0.090895,-0.130831 -0.137813,-0.195619l-0.142848 -0.195627 -0.143821 -0.195065c-0.0480222,-0.0649188 -0.0953517,-0.130538 -0.140872,-0.196585l-0.00153965 -0.00224813c-0.0209536,-0.0302865 -0.0625519,-0.0378264 -0.0928463,-0.0168808 -0.0192793,0.0132513 -0.0293247,0.035325 -0.0287666,0.0571097 0.00306348,0.08949 0.0188479,0.174535 0.035887,0.259006 0.0175814,0.0841863 0.0397896,0.166164 0.0642262,0.247148 0.0247018,0.0808299 0.0506859,0.160987 0.0807072,0.239319 0.0293089,0.0790211 0.0594805,0.155549 0.0963412,0.233319 0.0559777,0.118395 0.197436,0.169093 0.315981,0.113103 0.118391,-0.056144 0.168954,-0.197578 0.112961,-0.315981 -0.00488811,-0.0104847 -0.0114504,-0.0216422 -0.0175972,-0.0309989z"/>
   <path id="_120994200" class="fil5" d="M27.3367 21.0509l-0.0340703 0.234166 0.0340703 -0.234166c-3.07533,-0.446397 -5.19083,-1.70807 -6.42389,-2.68799 -1.33821,-1.06342 -1.95676,-2.03453 -1.96276,-2.04416 -0.0206765,-0.0326731 -0.0490077,-0.0600386 -0.08252,-0.07931 -1.11103,-0.639218 -1.52307,-1.47057 -1.65265,-1.8142 0.303688,-0.186548 0.632101,-0.423354 0.648436,-0.435224 0.103454,-0.0747109 0.129018,-0.217962 0.0578103,-0.323798 -0.252733,-0.37602 -0.377417,-0.876451 -0.430898,-1.15473 0.827859,-0.211681 1.19829,-0.624839 1.21491,-0.64369 0.023451,-0.0268114 0.0404941,-0.0585029 0.0501278,-0.0928503 0.887478,-3.19766 2.64499,-5.48085 5.22379,-6.78596 3.67264,-1.85862 8.15097,-1.20863 11.1435,1.61774 2.10124,1.98438 3.13714,4.67295 3.07879,7.99123 -0.000617445,0.035606 0.00682752,0.0707964 0.0216818,0.103189 0.0105718,0.0227544 0.248161,0.524167 0.981757,0.962458 -0.130412,0.251609 -0.392371,0.695912 -0.741567,0.984524 -0.0983163,0.0812613 -0.114536,0.225922 -0.0366113,0.326874 0.0122737,0.0160536 0.259893,0.336504 0.498045,0.601657 -0.221441,0.292095 -0.852981,0.972377 -2.10037,1.26937 -0.0377235,0.00906378 -0.0726804,0.0270845 -0.101791,0.0527797 -0.00839092,0.00739747 -0.877457,0.762509 -2.46283,1.40159 -1.4608,0.588813 -3.84789,1.1969 -6.92294,0.750504zm2.10267 0.627348c2.15489,0 3.86437,-0.479897 5.01854,-0.947655 1.46352,-0.593008 2.32707,-1.26811 2.53154,-1.43776 1.77679,-0.443183 2.41746,-1.57697 2.44419,-1.62556 0.0500962,-0.091184 0.0346957,-0.204552 -0.0380481,-0.279117 -0.151155,-0.154995 -0.336464,-0.378672 -0.459522,-0.531703 0.493881,-0.494439 0.783166,-1.1673 0.796528,-1.19871 0.0483903,-0.11395 0.000752016,-0.246024 -0.109359,-0.302714 -0.608631,-0.313757 -0.873028,-0.688511 -0.947814,-0.812083 0.0464904,-3.42788 -1.03937,-6.21334 -3.22796,-8.28027 -3.13733,-2.9628 -7.83178,-3.64431 -11.682,-1.69579 -2.68591,1.35929 -4.51908,3.72138 -5.44915,7.02081 -0.105286,0.0957752 -0.465383,0.380908 -1.13951,0.508806 -0.121763,0.02317 -0.204976,0.136139 -0.191012,0.259153 0.00390257,0.0339159 0.0899174,0.761397 0.422934,1.37576 -0.161557,0.111702 -0.402827,0.273532 -0.591888,0.37923 -0.090899,0.050674 -0.137813,0.154991 -0.115751,0.256778 0.0117196,0.0540225 0.303692,1.32326 1.88108,2.25333 0.147858,0.220752 0.783736,1.11354 2.01819,2.0982 1.28094,1.02179 3.47759,2.33711 6.66825,2.80026 0.765576,0.11114 1.49054,0.159036 2.17081,0.159032z"/>
   <path id="_120994104" class="fil3" d="M24.5409 15.0537c0.28526,-0.12664 0.579741,-0.234146 0.882179,-0.321135 -0.129442,-0.136839 -0.263202,-0.310812 -0.400176,-0.528632 -1.18739e-005,0 -0.374484,0.327147 -0.482003,0.849767z"/>
   <path id="_120994008" class="fil4" d="M27.8322 18.7495c1.66633,0 2.37663,-1.34601 2.37663,-1.34601 0.985913,-0.683496 0.565774,-1.77552 0.565774,-1.77552 -0.470691,0.272131 -0.836654,0.377413 -1.12149,0.377413 -0.631824,-0.000146445 -0.863746,-0.518721 -0.94878,-0.886362 -0.128041,0.0489998 -0.276045,0.0788905 -0.446116,0.0788905 -0.126093,0 -0.264456,-0.0164731 -0.415952,-0.0538958 -0.355779,-0.0881205 -0.593143,-0.244773 -0.750786,-0.424331 -0.180686,0.209163 -0.468593,0.452955 -0.829256,0.452955 -0.248826,0 -0.5324,-0.116171 -0.839167,-0.440112 -0.302437,0.0869885 -0.596911,0.194503 -0.882175,0.321147 -0.0573868,0.279109 -0.0386774,0.614089 0.15387,0.984663 -1.18739e-005,-3.95798e-006 0.000419546,2.03663 2.28195,2.60157 0.309265,0.0765157 0.594121,0.109604 0.855502,0.109597z"/>
   <path id="_120993912" class="fil5" d="M28.1999 13.7c0,0 0.589941,0.13963 0.993885,0.395988 0.174116,0.110574 0.22285,0.342369 0.111845,0.516208 -0.200935,0.314446 -0.63545,0.736822 -1.46331,0.531846 -0.827859,-0.205114 -1.0151,-0.781365 -1.0461,-1.15319 -0.0170391,-0.205534 0.134183,-0.387752 0.339856,-0.404225 0.476818,-0.0384122 1.06383,0.113376 1.06382,0.113376z"/>
   <path id="_120993816" class="fil5" d="M27.6802 14.7859l-0.0224813 0.0538958 -0.027504 0.0603355c-0.0196989,0.0402131 -0.0404941,0.0801452 -0.0615783,0.1198 -0.0427264,0.0791596 -0.0921537,0.154013 -0.143259,0.225641 -0.103893,0.142693 -0.225641,0.265153 -0.360521,0.358288 -0.270053,0.186112 -0.60138,0.24002 -0.950592,0.173138 -0.0434388,-0.0086561 -0.087127,-0.0157805 -0.129996,-0.0284816 -0.0435695,-0.0107618 -0.0864265,-0.0223468 -0.127202,-0.0372802 -0.0846177,-0.0247216 -0.161549,-0.0597616 -0.236252,-0.0969033 -0.0720511,-0.0400825 -0.138929,-0.0854568 -0.197852,-0.137536 -0.0576717,-0.0534882 -0.106398,-0.113661 -0.148986,-0.179285 -0.171753,-0.261254 -0.207628,-0.645642 -0.18445,-1.04051l0.000415588 -0.00698584c0.00222834,-0.0386734 -0.027223,-0.0720432 -0.0660389,-0.0742794 -0.0254142,-0.00154361 -0.0485921,0.0107538 -0.0619939,0.0303023 -0.127637,0.185416 -0.198137,0.395149 -0.227176,0.623303 -0.0262533,0.226476 0.00614279,0.476414 0.120358,0.700377 0.0559777,0.111845 0.13209,0.213636 0.218101,0.303834 0.0876851,0.0885123 0.185285,0.163504 0.287353,0.228011 0.2065,0.125373 0.424193,0.201208 0.646904,0.249381 0.111694,0.0252678 0.22815,0.0392355 0.34586,0.0470525 0.118672,0.00306348 0.239042,0 0.359123,-0.0220618 0.239735,-0.0381312 0.475714,-0.134746 0.671333,-0.276746 0.0982885,-0.0705233 0.188222,-0.14996 0.269345,-0.23569 0.0802758,-0.0864463 0.150661,-0.179285 0.213775,-0.27521 0.0633871,-0.0959335 0.117006,-0.196597 0.163924,-0.299504 0.0235896,-0.051529 0.0451012,-0.103881 0.0642301,-0.1575l0.027504 -0.0815542c0.00920231,-0.0291703 0.0162,-0.0523483 0.0261108,-0.0901866 0.0340663,-0.129869 -0.0438426,-0.262786 -0.173696,-0.296714 -0.118827,-0.0311454 -0.240162,0.0314145 -0.28596,0.141862l-0.00879859 0.0212108z"/>
   <path id="_120993720" class="fil5" d="M27.6761 14.8025c-0.00894108,0.0381233 -0.0134017,0.0618632 -0.0189825,0.092027l-0.0136907 0.0848789c-0.00810595,0.0564091 -0.0135403,0.112692 -0.0167502,0.169243 -0.00643568,0.113095 -0.00600426,0.227038 0.00530369,0.341392 0.011019,0.11435 0.0298828,0.229409 0.0606007,0.343351 0.031834,0.113499 0.0742834,0.225775 0.128322,0.33399 0.10681,0.216842 0.270318,0.412465 0.464683,0.558095 0.0957831,0.0755341 0.200784,0.134464 0.307321,0.186963 0.107792,0.0480261 0.217262,0.0900599 0.327848,0.1198 0.219494,0.0612893 0.447371,0.0957871 0.688511,0.0812653 0.120354,-0.00949915 0.241698,-0.0301598 0.360521,-0.0675825 0.118126,-0.0396511 0.233042,-0.0942474 0.334691,-0.166995 0.20553,-0.144803 0.350748,-0.350744 0.43313,-0.56326 0.0808299,-0.215322 0.116448,-0.433826 0.0900599,-0.657235 -0.00461105,-0.0386814 -0.0395165,-0.0661814 -0.0780514,-0.0617128 -0.0252875,0.00306744 -0.0459403,0.019125 -0.0557125,0.0406326l-0.00293682 0.00655837c-0.163789,0.359955 -0.3749,0.683203 -0.648713,0.834145 -0.068291,0.0381193 -0.139487,0.0688372 -0.215306,0.0890823 -0.0765276,0.018559 -0.156803,0.027508 -0.239185,0.0294632 -0.0835055,-0.00210565 -0.167834,-0.00698188 -0.254265,-0.0245751 -0.0430153,-0.00586969 -0.0862879,-0.015638 -0.129715,-0.0263879 -0.043993,-0.00880651 -0.0858684,-0.0229009 -0.128318,-0.0354675 -0.340145,-0.103751 -0.608084,-0.306067 -0.760138,-0.596776 -0.0758191,-0.145214 -0.126363,-0.310393 -0.151638,-0.48507 -0.0117394,-0.087127 -0.0205261,-0.17649 -0.0213612,-0.266412 -0.000288933,-0.0448241 0,-0.0899174 0.00139717,-0.134599l0.00376404 -0.0661933 0.00530765 -0.0582298 0.00208981 -0.022885c0.0121431,-0.133629 -0.086284,-0.252032 -0.219909,-0.264318 -0.122325,-0.0111734 -0.231783,0.0703729 -0.258876,0.186813z"/>
   <path id="_120609432" class="fil5" d="M25.3354 15.7323c0,0 -0.0844752,0.687964 0.191012,1.37731 0.214467,0.537431 0.647458,1.07626 1.50995,1.28975 0.862345,0.213486 1.49683,-0.0610162 1.93721,-0.43634 0.565216,-0.481029 0.811525,-1.1289 0.811525,-1.1289 -3.95798e-006,0 -2.0175,0.24072 -1.88639,-1.91808 -0.891258,1.97058 -2.5633,0.81627 -2.56331,0.816254z"/>
   <path id="_120789760" class="fil13" d="M25.5264 17.1096c0.214467,0.537442 0.647458,1.07627 1.50995,1.28976 0.862345,0.213486 1.49683,-0.0610162 1.93721,-0.43634 -1.18739e-005,-1.18739e-005 -1.18656,-2.09667 -3.44716,-0.853424z"/>
   <path id="_120789736" class="fil5" d="M29.3944 17.0764c-0.296995,0.512012 -1.0158,1.40453 -2.29954,1.08645 -1.28404,-0.317945 -1.5031,-1.44222 -1.52684,-2.03383 0.313603,0.133202 0.790021,0.261524 1.28738,0.123291 0.32575,-0.0904795 0.610736,-0.279536 0.852296,-0.564523 0.0807032,0.364839 0.244488,0.665056 0.490378,0.896977 0.375454,0.354231 0.85676,0.463009 1.19634,0.491629zm-1.77008 1.64161c1.68266,0.000281017 2.38068,-1.77732 2.38822,-1.79757 0.0302983,-0.079599 0.0167541,-0.169231 -0.035606,-0.236533 -0.0525026,-0.0670324 -0.136416,-0.102068 -0.220891,-0.0918766 -0.00699375,0.000700563 -0.758044,0.0801491 -1.22594,-0.363731 -0.293081,-0.278147 -0.423635,-0.714621 -0.388167,-1.29757 0.00712041,-0.117287 -0.0705114,-0.222985 -0.184588,-0.251189 -0.114085,-0.0283471 -0.232064,0.0289012 -0.280514,0.135996 -0.240586,0.532115 -0.559912,0.857322 -0.948641,0.96665 -0.621633,0.174535 -1.24856,-0.246444 -1.2547,-0.250774 -0.0702383,-0.047761 -0.160575,-0.0558511 -0.238069,-0.0208031 -0.0773587,0.035044 -0.131255,0.107653 -0.141446,0.192128 -0.00294078,0.0238745 -0.268224,2.40008 1.88373,2.93305 0.229967,0.0568247 0.445415,0.0822389 0.646611,0.0822271z"/>
   <path id="_120789160" class="fil5" d="M33.6465 13.6252c-0.180401,0.972939 -0.927268,1.65014 -1.66814,1.51275 -0.740875,-0.13754 -1.19508,-1.03758 -1.01454,-2.01052 0.180531,-0.972805 0.927414,-1.65013 1.66814,-1.5126 0.740871,0.137393 1.19508,1.03744 1.01454,2.01037z"/>
   <path id="_120765056" class="fil2" d="M32.4289 13.0637c-0.0527797,0.284147 -0.270872,0.482003 -0.487299,0.44179 -0.21643,-0.0400825 -0.34907,-0.302991 -0.296294,-0.587139 0.0526293,-0.284143 0.27088,-0.481999 0.487168,-0.441924 0.216411,0.0402012 0.34907,0.303134 0.296425,0.587273z"/>
   <path id="_120765032" class="fil5" d="M23.7451 10.7453c0.199526,0.101791 0.400184,0.215591 0.583098,0.337766 0.18403,0.123006 0.354659,0.257475 0.509645,0.402827 0.0797177,0.0707845 0.148982,0.150241 0.221449,0.225922l0.098435 0.121751c0.0157686,0.0207992 0.0340743,0.039659 0.0488732,0.0610202l0.0439771 0.0642222c0.124835,0.166714 0.21322,0.355783 0.29937,0.546237l0.449175 -0.346145c-0.0178624,-0.0120164 -0.0291703,-0.0187054 -0.0415984,-0.0262454 -0.0125785,-0.00782493 -0.0245751,-0.0148028 -0.0363026,-0.0210842 -0.0237479,-0.0131326 -0.047753,-0.0262493 -0.071212,-0.0374188 -0.0470525,-0.024298 -0.094667,-0.0449627 -0.142139,-0.0659083 -0.0950945,-0.0407791 -0.192829,-0.0728823 -0.291268,-0.101091 -0.197016,-0.0555819 -0.401015,-0.0848908 -0.604451,-0.0864265 -0.203021,-0.000839092 -0.406322,0.0198255 -0.598451,0.0772123 -0.193945,0.047472 -0.373922,0.135581 -0.540082,0.233739 -0.0487346,0.0286202 -0.0647882,0.0913185 -0.0361641,0.139907 0.0213612,0.0361522 0.0614358,0.0543154 0.100671,0.0495698l0.0121431 -0.00168214c0.0901945,-0.0111694 0.175517,-0.0315491 0.262505,-0.0403477 0.0873962,-0.00712437 0.172026,-0.0192675 0.257756,-0.0184284 0.170193,-0.00559659 0.33762,0.00879463 0.500289,0.0381193 0.162938,0.0270805 0.321566,0.0733018 0.473481,0.133202 0.0381193,0.0142329 0.074984,0.031838 0.112541,0.0473375l0.109189 0.0526332c0.0353289,0.0188479 0.0710735,0.0371496 0.104305,0.0575332 0.0173083,0.00976038 0.0329542,0.0201065 0.0488692,0.0302983 0.00808616,0.00501872 0.015919,0.00977621 0.0226199,0.0145218l0.0161921 0.0111694 0.00642776 0.00431816c0.134742,0.0923041 0.318772,0.0578182 0.411068,-0.0770619 0.0566743,-0.0828128 0.0647882,-0.186128 0.031834,-0.273394 -0.0936933,-0.242826 -0.203017,-0.485213 -0.363731,-0.693957 -0.071774,-0.110455 -0.166299,-0.202601 -0.252586,-0.30034 -0.0964877,-0.087697 -0.189619,-0.179004 -0.296437,-0.252171 -0.207489,-0.153744 -0.434242,-0.276323 -0.671472,-0.362476 -0.238773,-0.0850412 -0.480467,-0.140469 -0.739197,-0.144375 -0.0568406,-0.000847008 -0.103466,0.0445392 -0.104301,0.101229 -0.000700563,0.0404941 0.0222003,0.0758191 0.0558511,0.0931353l0.00962581 0.00488019z"/>
   <path id="_120765008" class="fil14" d="M28.6109 14.448c0.0921616,0 0.158208,-0.0231661 0.172449,-0.0682673 0.0255527,-0.0800185 -0.122595,-0.198691 -0.330919,-0.265015 -0.0913225,-0.0291862 -0.179008,-0.0432845 -0.250912,-0.0432845 -0.092027,-7.91596e-006 -0.158062,0.0233204 -0.172445,0.0682791 -0.0255646,0.0801412 0.122737,0.198833 0.330923,0.265015 0.0914492,0.0291664 0.179142,0.0432845 0.250904,0.0432726z"/>
  </g>
 </g>
</svg>
