<?xml version="1.0" encoding="UTF-8"?>
<!DOCTYPE svg PUBLIC "-//W3C//DTD SVG 1.1//EN" "http://www.w3.org/Graphics/SVG/1.1/DTD/svg11.dtd">
<!-- Creator: CorelDRAW -->
<svg xmlns="http://www.w3.org/2000/svg" xml:space="preserve" width="135px" height="27px" style="shape-rendering:geometricPrecision; text-rendering:geometricPrecision; image-rendering:optimizeQuality; fill-rule:evenodd; clip-rule:evenodd"
viewBox="0 0 14.015 2.2413"
 xmlns:xlink="http://www.w3.org/1999/xlink">
 <defs>
  <style type="text/css">
   <![CDATA[
    .str0 {stroke:#E77817;stroke-width:0.0773343}
    .fil0 {fill:#E77817;fill-rule:nonzero}
    .fil1 {fill:white;fill-rule:nonzero}
   ]]>
  </style>
 </defs>
 <g id="Слой_x0020_1">
  <metadata id="CorelCorpID_0Corel-Layer"/>
  <g id="_143739896">
   <path id="_142073208" class="fil0 str0" d="M0.925011 2.20264c-0.168434,0 -0.331929,-0.0208081 -0.490454,-0.0624346 -0.158525,-0.0416058 -0.287343,-0.0970906 -0.386434,-0.166454l0.193222 -0.433979c0.0931311,0.0614344 0.201141,0.11097 0.324,0.148616 0.122869,0.0376566 0.243747,0.056485 0.362636,0.056485 0.225919,0 0.338869,-0.056485 0.338869,-0.169434 0,-0.0594443 -0.032202,-0.103535 -0.096606,-0.132273 -0.064404,-0.0287374 -0.167939,-0.0589494 -0.310616,-0.0906564 -0.156556,-0.0336971 -0.287354,-0.0698586 -0.392374,-0.108495 -0.10503,-0.0386465 -0.195192,-0.100566 -0.270495,-0.185788 -0.075303,-0.0852121 -0.11296,-0.200141 -0.11296,-0.344808 0,-0.126818 0.034687,-0.241262 0.10404,-0.343323 0.0693534,-0.10205 0.172899,-0.182808 0.310626,-0.242252 0.137727,-0.0594443 0.306656,-0.0891716 0.506808,-0.0891716 0.136727,0 0.271495,0.0153534 0.404252,0.0460603 0.132778,0.0307275 0.249687,0.0758082 0.350757,0.135263l-0.181323 0.436949c-0.198172,-0.10701 -0.390384,-0.160515 -0.576656,-0.160515 -0.116929,0 -0.202142,0.0173435 -0.255647,0.0520202 -0.053505,0.0346767 -0.0802524,0.0797574 -0.0802524,0.135253 0,0.0554848 0.0317071,0.0970906 0.0951212,0.124838 0.0634141,0.0277475 0.165475,0.056485 0.306161,0.086202 0.158546,0.0336868 0.289818,0.0698483 0.393858,0.108495 0.10404,0.0386465 0.194212,0.100071 0.270495,0.184303 0.0763032,0.0842119 0.114444,0.198646 0.114444,0.343313 0,0.124848 -0.0346767,0.237798 -0.10403,0.338858 -0.0693637,0.101071 -0.173404,0.181828 -0.312121,0.242263 -0.138717,0.0604445 -0.307151,0.0906667 -0.505323,0.0906667zm1.9886 -0.0148688c-0.178354,0 -0.337879,-0.0356666 -0.478576,-0.10701 -0.140697,-0.0713435 -0.250182,-0.170424 -0.328465,-0.297242 -0.0782726,-0.126828 -0.117404,-0.270495 -0.117404,-0.43101 0,-0.160515 0.0391312,-0.303687 0.117404,-0.429525 0.0782829,-0.125838 0.187768,-0.223929 0.328465,-0.294272 0.140697,-0.0703639 0.300222,-0.105525 0.478576,-0.105525 0.182313,0 0.339858,0.0391312 0.472616,0.117404 0.132778,0.0782726 0.226909,0.186778 0.282394,0.325485l-0.436959 0.22295c-0.0733232,-0.144667 -0.180333,-0.21699 -0.32103,-0.21699 -0.10106,0 -0.184788,0.0336765 -0.251171,0.10105 -0.0663941,0.0673839 -0.0995859,0.160515 -0.0995859,0.279424 0,0.120879 0.0331919,0.215505 0.0995859,0.283868 0.0663838,0.0683635 0.150111,0.102545 0.251171,0.102545 0.140697,0 0.247707,-0.072323 0.32103,-0.21699l0.436959 0.222939c-0.0554848,0.138717 -0.149616,0.247212 -0.282394,0.325495 -0.132757,0.0782726 -0.290303,0.117404 -0.472616,0.117404zm1.77754 0c-0.172404,0 -0.32797,-0.0356666 -0.466676,-0.10701 -0.138717,-0.0713435 -0.247212,-0.170424 -0.325495,-0.297242 -0.0782726,-0.126828 -0.117414,-0.270495 -0.117414,-0.43101 0,-0.158535 0.0391415,-0.301222 0.117414,-0.42804 0.0782829,-0.126828 0.186283,-0.225414 0.324,-0.295757 0.137727,-0.0703639 0.293788,-0.105525 0.468171,-0.105525 0.174384,0 0.330939,0.0351613 0.469646,0.105525 0.138717,0.0703433 0.246727,0.168434 0.32401,0.294272 0.0772724,0.125838 0.115929,0.26901 0.115929,0.429525 0,0.160515 -0.0386568,0.304182 -0.115929,0.43101 -0.0772827,0.126818 -0.185293,0.225899 -0.32401,0.297242 -0.138707,0.0713435 -0.295262,0.10701 -0.469646,0.10701zm0 -0.448848c0.0990807,0 0.180323,-0.0341818 0.243747,-0.102545 0.0634141,-0.0683635 0.0951212,-0.16299 0.0951212,-0.283868 0,-0.118909 -0.0317071,-0.21204 -0.0951212,-0.279424 -0.0634244,-0.0673736 -0.144667,-0.10105 -0.243747,-0.10105 -0.0990807,0 -0.180323,0.0336765 -0.243747,0.10105 -0.0634141,0.0673839 -0.0951212,0.160515 -0.0951212,0.279424 0,0.120879 0.0317071,0.215505 0.0951212,0.283868 0.0634244,0.0683635 0.144667,0.102545 0.243747,0.102545zm2.28287 0.356707c-0.0475554,0.0297273 -0.105525,0.0525048 -0.173889,0.0683635 -0.0683635,0.0158484 -0.141181,0.0237777 -0.218475,0.0237777 -0.210061,0 -0.371555,-0.051515 -0.484515,-0.154565 -0.11296,-0.10304 -0.169434,-0.256626 -0.169434,-0.460737l0 -0.540989 -0.234828 0 0 -0.422091 0.234828 0 0 -0.419131 0.564767 0 0 0.419131 0.368596 0 0 0.422091 -0.368596 0 0 0.53505c0,0.0574542 0.0153637,0.102545 0.0460809,0.135242 0.0307172,0.0326969 0.0718281,0.0490506 0.123364,0.0490506 0.0653836,0 0.122858,-0.0168486 0.172394,-0.0505354l0.139707 0.395343zm0.802586 0.0921412c-0.134758,0 -0.267525,-0.0153534 -0.398313,-0.0460706 -0.130798,-0.0307172 -0.235818,-0.0708485 -0.315091,-0.120384l0.169424 -0.386434c0.0733335,0.045586 0.160515,0.0817475 0.261586,0.108495 0.101071,0.0267577 0.201141,0.0401417 0.300222,0.0401417 0.0911514,0 0.15605,-0.00941416 0.194707,-0.0282425 0.0386362,-0.0188283 0.0579595,-0.0460706 0.0579595,-0.0817372 0,-0.0356769 -0.0232828,-0.0609394 -0.0698586,-0.0758082 -0.0465656,-0.0148585 -0.120384,-0.0292221 -0.221444,-0.043101 -0.128808,-0.0158587 -0.238303,-0.0366565 -0.328465,-0.0624139 -0.0901615,-0.0257678 -0.167949,-0.0733232 -0.233343,-0.142677 -0.0653939,-0.0693637 -0.0980908,-0.166475 -0.0980908,-0.291313 0,-0.103051 0.0307172,-0.194687 0.0921515,-0.274949 0.0614344,-0.0802524 0.151101,-0.143666 0.26901,-0.190242 0.117909,-0.0465656 0.259101,-0.0698483 0.423586,-0.0698483 0.116909,0 0.232838,0.0118785 0.347777,0.0356666 0.114929,0.0237777 0.21104,0.0574748 0.288323,0.10106l-0.169424 0.383454c-0.142677,-0.0792625 -0.297252,-0.118899 -0.463707,-0.118899 -0.0891819,0 -0.154576,0.010404 -0.196192,0.0312121 -0.0416058,0.0208081 -0.0624242,0.0480504 -0.0624242,0.0817372 0,0.0376566 0.0227878,0.0639091 0.0683738,0.0787779 0.0455757,0.0148688 0.120879,0.0302222 0.225909,0.0460706 0.132768,0.0198182 0.242758,0.042606 0.329939,0.0683635 0.0872021,0.0257678 0.163,0.0728283 0.227404,0.141202 0.064404,0.0683635 0.0965957,0.163969 0.0965957,0.286838 0,0.10106 -0.0307069,0.191717 -0.0921412,0.27198 -0.0614344,0.0802524 -0.152091,0.143172 -0.27198,0.188747 -0.119889,0.0455757 -0.26405,0.0683738 -0.432495,0.0683738z"/>
   <path id="_30652920" class="fil1 str0" d="M9.87221 2.20264c-0.217969,0 -0.413666,-0.0460809 -0.58706,-0.138232 -0.173404,-0.0921412 -0.309636,-0.220454 -0.408717,-0.384929 -0.0990807,-0.164475 -0.148626,-0.350757 -0.148626,-0.558828 0,-0.208081 0.0495455,-0.394343 0.148626,-0.558828 0.0990807,-0.164475 0.235313,-0.292788 0.408717,-0.384929 0.173394,-0.0921619 0.369091,-0.138222 0.58706,-0.138222 0.190242,0 0.361656,0.0336765 0.514242,0.101071 0.152586,0.0673736 0.279424,0.164464 0.380485,0.291293l-0.374535 0.338858c-0.134758,-0.162495 -0.298242,-0.243737 -0.490464,-0.243737 -0.112949,0 -0.213515,0.0247676 -0.301707,0.0743131 -0.0881817,0.0495352 -0.156545,0.119394 -0.205101,0.209566 -0.0485453,0.0901512 -0.072818,0.193697 -0.072818,0.310616 0,0.116919 0.0242727,0.220454 0.072818,0.310626 0.0485556,0.0901615 0.116919,0.16002 0.205101,0.209566 0.088192,0.0495352 0.188758,0.0743028 0.301707,0.0743028 0.192222,0 0.355707,-0.0812423 0.490464,-0.243747l0.374535 0.338869c-0.10106,0.126828 -0.227899,0.223929 -0.380485,0.291303 -0.152586,0.0673736 -0.324,0.101071 -0.514242,0.101071zm1.8043 -1.67945c0.267525,0 0.471646,0.0609291 0.612333,0.182808 0.140697,0.121869 0.21105,0.308646 0.21105,0.560313l0 0.894717 -0.526131 0 0 -0.208081c-0.0812526,0.156556 -0.239778,0.234828 -0.475596,0.234828 -0.124848,0 -0.232848,-0.021798 -0.324,-0.0653836 -0.0911514,-0.0436062 -0.16003,-0.102556 -0.206596,-0.176869 -0.0465552,-0.0743131 -0.0698483,-0.15903 -0.0698483,-0.254151 0,-0.152596 0.0584544,-0.27099 0.175374,-0.355212 0.116929,-0.0842119 0.297252,-0.126333 0.540989,-0.126333l0.32103 0c-0.0099091,-0.170414 -0.123848,-0.255626 -0.341838,-0.255626 -0.0772827,0 -0.155555,0.0123838 -0.234818,0.0371514 -0.0792728,0.0247779 -0.146646,0.0589597 -0.202131,0.102545l-0.190242 -0.383444c0.0891716,-0.0594443 0.197666,-0.105525 0.325485,-0.138212 0.127828,-0.0327073 0.256131,-0.0490506 0.384939,-0.0490506zm-0.0207978 1.30789c0.0653836,0 0.122858,-0.0158484 0.172394,-0.0475554 0.0495455,-0.0317071 0.0852121,-0.0782726 0.10701,-0.139707l0 -0.139717 -0.243737 0c-0.164485,0 -0.246717,0.0545052 -0.246717,0.163495 0,0.0495352 0.0188283,0.0891716 0.0564747,0.118899 0.0376566,0.029717 0.0891716,0.0445858 0.154576,0.0445858zm2.31258 0.264555c-0.0475451,0.0297273 -0.105515,0.0525048 -0.173878,0.0683635 -0.0683738,0.0158484 -0.141192,0.0237777 -0.218475,0.0237777 -0.210061,0 -0.371565,-0.051515 -0.484515,-0.154565 -0.11297,-0.10304 -0.169445,-0.256626 -0.169445,-0.460737l0 -0.540989 -0.234828 0 0 -0.422091 0.234828 0 0 -0.419131 0.564777 0 0 0.419131 0.368586 0 0 0.422091 -0.368586 0 0 0.53505c0,0.0574542 0.0153637,0.102545 0.0460706,0.135242 0.0307275,0.0326969 0.0718384,0.0490506 0.123364,0.0490506 0.0653939,0 0.122869,-0.0168486 0.172404,-0.0505354l0.139697 0.395343z"/>
  </g>
 </g>
</svg>
