<?xml version="1.0" encoding="UTF-8"?>
<!DOCTYPE svg PUBLIC "-//W3C//DTD SVG 1.1//EN" "http://www.w3.org/Graphics/SVG/1.1/DTD/svg11.dtd">
<!-- Creator: CorelDRAW -->
<svg xmlns="http://www.w3.org/2000/svg" xml:space="preserve" width="135px" height="21px" style="shape-rendering:geometricPrecision; text-rendering:geometricPrecision; image-rendering:optimizeQuality; fill-rule:evenodd; clip-rule:evenodd"
viewBox="0 0 12.7011 1.97315"
 xmlns:xlink="http://www.w3.org/1999/xlink">
 <defs>
  <style type="text/css">
   <![CDATA[
    .str0 {stroke:#E77817;stroke-width:0.00766244}
    .str1 {stroke:white;stroke-width:0.00766244}
    .fil0 {fill:#E77817;fill-rule:nonzero}
    .fil1 {fill:white;fill-rule:nonzero}
   ]]>
  </style>
 </defs>
 <g id="Слой_x0020_1">
  <metadata id="CorelCorpID_0Corel-Layer"/>
  <g id="_113939048">
   <path id="_113874384" class="fil0 str0" d="M0.804274 1.96932c-0.153581,0 -0.302636,-0.0189047 -0.447177,-0.056694 -0.144551,-0.0377994 -0.261981,-0.0881985 -0.352321,-0.151197l0.176156 -0.394173c0.0849203,0.055799 0.183396,0.100788 0.295406,0.134988 0.11203,0.0341994 0.222231,0.0513041 0.330641,0.0513041 0.205971,0 0.308961,-0.0513041 0.308961,-0.153892 0,-0.0539991 -0.0293626,-0.0940509 -0.0880778,-0.120145 -0.0587152,-0.0260945 -0.153128,-0.0535466 -0.283209,-0.0823461 -0.142741,-0.0305995 -0.261981,-0.0634414 -0.357751,-0.0985458 -0.0957503,-0.0350944 -0.177966,-0.0913459 -0.246616,-0.168735 -0.0686603,-0.0773987 -0.10299,-0.181797 -0.10299,-0.313185 0,-0.115198 0.0316252,-0.219134 0.0948554,-0.311837 0.0632403,-0.0926934 0.157633,-0.16604 0.283209,-0.220029 0.125576,-0.0539991 0.279599,-0.0809986 0.462089,-0.0809986 0.12466,0 0.247531,0.0139472 0.368581,0.0418417 0.12105,0.0279045 0.227651,0.0688513 0.319801,0.12285l-0.165326 0.396878c-0.180671,-0.0971983 -0.355931,-0.145798 -0.525772,-0.145798 -0.10659,0 -0.184291,0.0157472 -0.233071,0.0472517 -0.0487902,0.0314944 -0.0731753,0.0724412 -0.0731753,0.12284 0,0.0503991 0.0289101,0.0881985 0.0867304,0.113398 0.0578102,0.0251895 0.150866,0.0512941 0.279146,0.0782936 0.14453,0.0305995 0.264244,0.0634414 0.359099,0.0985458 0.0948554,0.0350944 0.177061,0.0908934 0.246616,0.167387 0.0695653,0.0764937 0.104348,0.180439 0.104348,0.311827 0,0.113398 -0.0316151,0.215986 -0.0948554,0.307785 -0.0632403,0.0917984 -0.158096,0.165145 -0.284566,0.220039 -0.126481,0.054894 -0.280051,0.0823461 -0.460732,0.0823461zm1.81309 -0.0135048c-0.162611,0 -0.308056,-0.0323894 -0.436327,-0.0971883 -0.128291,-0.0647989 -0.228113,-0.154797 -0.299479,-0.269985 -0.0713753,-0.115198 -0.107053,-0.245691 -0.107053,-0.391478 0,-0.145787 0.0356776,-0.275838 0.107053,-0.390131 0.0713653,-0.114293 0.171188,-0.203386 0.299479,-0.26728 0.12827,-0.0638939 0.273716,-0.0958408 0.436327,-0.0958408 0.166231,0 0.309866,0.0355469 0.430917,0.106641 0.12106,0.0710938 0.206886,0.16964 0.257466,0.295627l-0.398386 0.202492c-0.0668503,-0.131388 -0.164421,-0.197092 -0.292701,-0.197092 -0.0921504,0 -0.168483,0.0305995 -0.229018,0.0917984 -0.0605252,0.061199 -0.0907828,0.145787 -0.0907828,0.253786 0,0.109798 0.0302576,0.195734 0.0907828,0.257838 0.0605353,0.0620939 0.136868,0.0931459 0.229018,0.0931459 0.12828,0 0.225851,-0.0657039 0.292701,-0.197092l0.398386 0.202492c-0.0505801,0.125988 -0.136405,0.224534 -0.257466,0.295627 -0.12105,0.0710938 -0.264686,0.106641 -0.430917,0.106641zm1.62069 0c-0.157201,0 -0.299016,-0.0323894 -0.425497,-0.0971883 -0.12647,-0.0647989 -0.225398,-0.154797 -0.296764,-0.269985 -0.0713753,-0.115198 -0.107053,-0.245691 -0.107053,-0.391478 0,-0.143987 0.0356776,-0.273585 0.107053,-0.388773 0.0713653,-0.115198 0.169841,-0.204744 0.295406,-0.268638 0.125576,-0.0638939 0.267854,-0.0958408 0.426854,-0.0958408 0.158991,0 0.301731,0.0319469 0.428202,0.0958408 0.126481,0.0638939 0.224946,0.152987 0.295406,0.26728 0.0704703,0.114293 0.105695,0.244343 0.105695,0.390131 0,0.145787 -0.0352251,0.27628 -0.105695,0.391478 -0.0704602,0.115188 -0.168926,0.205186 -0.295406,0.269985 -0.12647,0.0647989 -0.269211,0.0971883 -0.428202,0.0971883zm0 -0.407668c0.0903303,0 0.164411,-0.031052 0.222231,-0.0931459 0.0578202,-0.062104 0.0867304,-0.14804 0.0867304,-0.257838 0,-0.107998 -0.0289101,-0.192587 -0.0867304,-0.253786 -0.0578202,-0.061199 -0.131901,-0.0917984 -0.222231,-0.0917984 -0.0903404,0 -0.164411,0.0305995 -0.222231,0.0917984 -0.0578202,0.061199 -0.0867304,0.145787 -0.0867304,0.253786 0,0.109798 0.0289101,0.195734 0.0867304,0.257838 0.0578202,0.0620939 0.13189,0.0931459 0.222231,0.0931459zm2.08141 0.323974c-0.0433602,0.0269995 -0.0962129,0.0477042 -0.158548,0.0620939 -0.0623352,0.0143998 -0.128733,0.0215996 -0.199193,0.0215996 -0.191521,0 -0.338776,-0.0467891 -0.441767,-0.140388 -0.10298,-0.0935984 -0.154466,-0.233091 -0.154466,-0.418478l0 -0.491371 -0.214106 0 0 -0.383373 0.214106 0 0 -0.380678 0.514922 0 0 0.380678 0.336061 0 0 0.383373 -0.336061 0 0 0.485972c0,0.0521991 0.0140076,0.0931459 0.0420127,0.12284 0.0279951,0.0297045 0.0655028,0.0445568 0.112463,0.0445568 0.0596303,0 0.11203,-0.0153048 0.157201,-0.0459042l0.127375 0.359079zm0.731743 0.0836935c-0.12285,0 -0.243911,-0.0139472 -0.363151,-0.0418417 -0.11925,-0.0279045 -0.215011,-0.0643464 -0.287281,-0.109346l0.154476 -0.350984c0.0668503,0.0413993 0.146351,0.0742512 0.238501,0.0985458 0.0921403,0.0243046 0.183376,0.0364519 0.273716,0.0364519 0.0831204,0 0.142288,-0.00854734 0.177523,-0.0256521 0.0352251,-0.0170947 0.0528527,-0.0418417 0.0528527,-0.0742412 0,-0.0323994 -0.0212376,-0.0553465 -0.0636928,-0.0688513 -0.0424652,-0.0134947 -0.109768,-0.026547 -0.201908,-0.0391468 -0.11744,-0.0143998 -0.217263,-0.0332944 -0.299469,-0.056694 -0.0822154,-0.0233996 -0.153128,-0.0665989 -0.212758,-0.129588 -0.0596202,-0.0629989 -0.0894353,-0.151197 -0.0894353,-0.264585 0,-0.0935984 0.0280152,-0.176839 0.0840153,-0.249743 0.0560102,-0.0728937 0.137773,-0.130493 0.245278,-0.172787 0.107505,-0.0422942 0.236228,-0.0634414 0.386189,-0.0634414 0.10661,0 0.212306,0.0107998 0.317086,0.0323894 0.1048,0.0215996 0.192426,0.0521991 0.262896,0.0917984l-0.154486 0.348279c-0.13008,-0.0719988 -0.271011,-0.107988 -0.422782,-0.107988 -0.0813103,0 -0.140931,0.0094423 -0.178881,0.028347 -0.0379301,0.0188946 -0.0569052,0.0436417 -0.0569052,0.0742412 0,0.0341994 0.0207851,0.0580515 0.0623252,0.0715463 0.0415602,0.0135048 0.11022,0.027452 0.205991,0.0418518 0.12104,0.0179997 0.221316,0.0386943 0.300816,0.0620939 0.0795104,0.0233996 0.148613,0.0661464 0.207328,0.12824 0.0587253,0.0620939 0.0880778,0.148945 0.0880778,0.260533 0,0.0917984 -0.0279951,0.174145 -0.0840153,0.247038 -0.0560102,0.0728937 -0.138668,0.13004 -0.247973,0.17144 -0.109315,0.0413993 -0.240753,0.0620939 -0.394334,0.0620939z"/>
   <path id="_113874408" class="fil1 str1" d="M8.96187 1.96932c-0.198741,0 -0.377159,-0.0418518 -0.535255,-0.125545 -0.158096,-0.0836935 -0.282314,-0.200239 -0.372644,-0.349626 -0.0903404,-0.149397 -0.135511,-0.318584 -0.135511,-0.507571 0,-0.188987 0.0451702,-0.358184 0.135511,-0.507571 0.0903303,-0.149387 0.214548,-0.265933 0.372644,-0.349626 0.158096,-0.0837036 0.336514,-0.125545 0.535255,-0.125545 0.173461,0 0.329746,0.0305995 0.468857,0.0917884 0.139121,0.061199 0.254761,0.149397 0.346911,0.264585l-0.341491 0.307785c-0.12286,-0.147587 -0.271916,-0.221386 -0.447177,-0.221386 -0.10298,0 -0.194678,0.0224946 -0.275073,0.0674938 -0.0804053,0.0449992 -0.142741,0.108451 -0.187006,0.190344 -0.0442652,0.0818936 -0.0663977,0.175934 -0.0663977,0.282133 0,0.106188 0.0221326,0.200239 0.0663977,0.282133 0.0442652,0.0818936 0.1066,0.145345 0.187006,0.190334 0.0803953,0.0449992 0.172093,0.0675039 0.275073,0.0675039 0.175261,0 0.324316,-0.0737987 0.447177,-0.221386l0.341491 0.307775c-0.0921504,0.115198 -0.207791,0.203386 -0.346911,0.264585 -0.13911,0.061199 -0.295396,0.0917984 -0.468857,0.0917984zm1.64507 -1.52541c0.243911,0 0.430012,0.0553465 0.558292,0.16604 0.12828,0.110693 0.192416,0.280333 0.192416,0.508919l0 0.812651 -0.479687 0 0 -0.188987c-0.0740904,0.142188 -0.218621,0.213281 -0.433642,0.213281 -0.11382,0 -0.212286,-0.0197997 -0.295406,-0.0593889 -0.0831103,-0.0395993 -0.145898,-0.0931459 -0.188353,-0.16064 -0.0424551,-0.0675039 -0.0636827,-0.14445 -0.0636827,-0.230839 0,-0.138598 0.0532952,-0.246143 0.159906,-0.322637 0.10659,-0.0764937 0.271001,-0.114735 0.493242,-0.114735l0.292691 0c-0.00903001,-0.154797 -0.112925,-0.232196 -0.311666,-0.232196 -0.0704703,0 -0.141836,0.0112523 -0.214106,0.033757 -0.0722602,0.0224946 -0.133701,0.0535466 -0.184291,0.0931358l-0.173441 -0.348279c0.0813003,-0.053989 0.180218,-0.0958408 0.296754,-0.125535 0.116535,-0.0297045 0.233523,-0.0445467 0.350974,-0.0445467zm-0.0189751 1.18793c0.0596202,0 0.11202,-0.0143998 0.157191,-0.0431993 0.0451702,-0.0287995 0.0776903,-0.0710938 0.0975603,-0.126893l0 -0.126893 -0.222231 0c-0.149961,0 -0.224936,0.0494941 -0.224936,0.148492 0,0.0449992 0.017155,0.0809886 0.0514852,0.107988 0.0343301,0.0269995 0.0813103,0.0405043 0.140931,0.0405043zm2.10851 0.240281c-0.0433602,0.0269995 -0.0962129,0.0477042 -0.158548,0.0620939 -0.0623252,0.0143998 -0.128733,0.0215996 -0.199193,0.0215996 -0.191521,0 -0.338776,-0.0467891 -0.441767,-0.140388 -0.10298,-0.0935984 -0.154466,-0.233091 -0.154466,-0.418478l0 -0.491371 -0.214106 0 0 -0.383373 0.214106 0 0 -0.380678 0.514922 0 0 0.380678 0.336061 0 0 0.383373 -0.336061 0 0 0.485972c0,0.0521991 0.0140076,0.0931459 0.0420127,0.12284 0.0279951,0.0297045 0.0655028,0.0445568 0.112463,0.0445568 0.0596303,0 0.11203,-0.0153048 0.157201,-0.0459042l0.127375 0.359079z"/>
  </g>
 </g>
</svg>
